<svg width="32" height="32" viewBox="0 0 32 32" fill="none" xmlns="http://www.w3.org/2000/svg">
<g id="vuesax/bulk/close-circle">
<g id="close-circle">
<path id="Vector" opacity="0.4" d="M15.9974 29.3332C23.3612 29.3332 29.3307 23.3636 29.3307 15.9998C29.3307 8.63604 23.3612 2.6665 15.9974 2.6665C8.6336 2.6665 2.66406 8.63604 2.66406 15.9998C2.66406 23.3636 8.6336 29.3332 15.9974 29.3332Z" fill="#92ABFE"/>
<path id="Vector_2" d="M17.4099 16L20.4766 12.9333C20.8632 12.5466 20.8632 11.9066 20.4766 11.52C20.0899 11.1333 19.4499 11.1333 19.0632 11.52L15.9966 14.5866L12.9299 11.52C12.5432 11.1333 11.9032 11.1333 11.5166 11.52C11.1299 11.9066 11.1299 12.5466 11.5166 12.9333L14.5832 16L11.5166 19.0666C11.1299 19.4533 11.1299 20.0933 11.5166 20.48C11.7166 20.68 11.9699 20.7733 12.2232 20.7733C12.4766 20.7733 12.7299 20.68 12.9299 20.48L15.9966 17.4133L19.0632 20.48C19.2632 20.68 19.5166 20.7733 19.7699 20.7733C20.0232 20.7733 20.2766 20.68 20.4766 20.48C20.8632 20.0933 20.8632 19.4533 20.4766 19.0666L17.4099 16Z" fill="#92ABFE"/>
</g>
</g>
</svg>
