<svg width="12" height="13" viewBox="0 0 12 13" fill="none" xmlns="http://www.w3.org/2000/svg">
<path d="M8.095 1.40234H3.905C2.085 1.40234 1 2.48734 1 4.30734V8.49234C1 10.3173 2.085 11.4023 3.905 11.4023H8.09C9.91 11.4023 10.995 10.3173 10.995 8.49734V4.30734C11 2.48734 9.915 1.40234 8.095 1.40234ZM8 6.77734H6.375V8.40234C6.375 8.60734 6.205 8.77734 6 8.77734C5.795 8.77734 5.625 8.60734 5.625 8.40234V6.77734H4C3.795 6.77734 3.625 6.60734 3.625 6.40234C3.625 6.19734 3.795 6.02734 4 6.02734H5.625V4.40234C5.625 4.19734 5.795 4.02734 6 4.02734C6.205 4.02734 6.375 4.19734 6.375 4.40234V6.02734H8C8.205 6.02734 8.375 6.19734 8.375 6.40234C8.375 6.60734 8.205 6.77734 8 6.77734Z" fill="#92ABFE"/>
</svg>
