<svg width="13" height="13" viewBox="0 0 13 13" fill="none" xmlns="http://www.w3.org/2000/svg">
<path opacity="0.4" d="M8.82352 1.40234H4.63352C2.81352 1.40234 1.72852 2.48734 1.72852 4.30734V8.49234C1.72852 10.3173 2.81352 11.4023 4.63352 11.4023H8.81852C10.6385 11.4023 11.7235 10.3173 11.7235 8.49734V4.30734C11.7285 2.48734 10.6435 1.40234 8.82352 1.40234Z" fill="#92ABFE"/>
<path d="M6.09836 8.54242C6.00336 8.54242 5.90836 8.50742 5.83336 8.43242C5.68836 8.28742 5.68836 8.04742 5.83336 7.90242L7.33336 6.40242L5.83336 4.90242C5.68836 4.75742 5.68836 4.51742 5.83336 4.37242C5.97836 4.22742 6.21836 4.22742 6.36336 4.37242L8.12836 6.13742C8.27336 6.28242 8.27336 6.52242 8.12836 6.66742L6.36336 8.43242C6.28836 8.50742 6.19336 8.54242 6.09836 8.54242Z" fill="#92ABFE"/>
</svg>
