<svg width="17" height="17" viewBox="0 0 17 17" fill="none" xmlns="http://www.w3.org/2000/svg">
<path d="M8.6671 1.79883V9.45161L2.17405 13.9933C1.58377 13.2919 1.54905 12.2294 2.20877 11.0419L4.37543 7.14605L6.4171 3.47244C7.03516 2.36133 7.84766 1.79883 8.6671 1.79883Z" fill="#FFCB89"/>
<path opacity="0.6" d="M15.1599 13.9928C14.7086 14.5415 13.9238 14.8678 12.8752 14.8678H4.45855C3.40994 14.8678 2.62522 14.5415 2.17383 13.9928L8.66689 9.45117L15.1599 13.9928Z" fill="#FFCB89"/>
<path opacity="0.4" d="M15.161 13.9933L8.66797 9.45161V1.79883C9.48741 1.79883 10.2999 2.36133 10.918 3.47244L12.9596 7.14605L15.1263 11.0419C15.786 12.2294 15.7513 13.2919 15.161 13.9933Z" fill="#2ED173"/>
</svg>
