<svg width="13" height="13" viewBox="0 0 13 13" fill="none" xmlns="http://www.w3.org/2000/svg">
<path opacity="0.4" d="M6.9375 1.82812C5.6275 1.82812 4.5625 2.89313 4.5625 4.20312C4.5625 5.48812 5.5675 6.52812 6.8775 6.57312C6.9175 6.56812 6.9575 6.56812 6.9875 6.57312C6.9975 6.57312 7.0025 6.57312 7.0125 6.57312C7.0175 6.57312 7.0175 6.57312 7.0225 6.57312C8.3025 6.52812 9.3075 5.48812 9.3125 4.20312C9.3125 2.89313 8.2475 1.82812 6.9375 1.82812Z" fill="#A9A6A6"/>
<path d="M9.47797 7.90258C8.08297 6.97258 5.80797 6.97258 4.40297 7.90258C3.76797 8.32758 3.41797 8.90258 3.41797 9.51758C3.41797 10.1326 3.76797 10.7026 4.39797 11.1226C5.09797 11.5926 6.01797 11.8276 6.93797 11.8276C7.85797 11.8276 8.77797 11.5926 9.47797 11.1226C10.108 10.6976 10.458 10.1276 10.458 9.50758C10.453 8.89258 10.108 8.32258 9.47797 7.90258Z" fill="#A9A6A6"/>
</svg>
