<svg width="13" height="13" viewBox="0 0 13 13" fill="none" xmlns="http://www.w3.org/2000/svg">
<path opacity="0.4" d="M11.6367 4.5752V7.5752C11.6367 9.3252 10.6367 10.0752 9.13672 10.0752H4.86172C5.03672 9.7802 5.13672 9.4402 5.13672 9.0752C5.13672 7.9702 4.24172 7.0752 3.13672 7.0752C2.53672 7.0752 2.00172 7.34019 1.63672 7.75519V4.5752C1.63672 2.8252 2.63672 2.0752 4.13672 2.0752H9.13672C10.6367 2.0752 11.6367 2.8252 11.6367 4.5752Z" fill="#92ABFE"/>
<path d="M6.63672 7.3252C7.32707 7.3252 7.88672 6.76555 7.88672 6.0752C7.88672 5.38484 7.32707 4.8252 6.63672 4.8252C5.94636 4.8252 5.38672 5.38484 5.38672 6.0752C5.38672 6.76555 5.94636 7.3252 6.63672 7.3252Z" fill="#92ABFE"/>
<path d="M9.88672 7.4502C9.68172 7.4502 9.51172 7.2802 9.51172 7.0752V5.0752C9.51172 4.8702 9.68172 4.7002 9.88672 4.7002C10.0917 4.7002 10.2617 4.8702 10.2617 5.0752V7.0752C10.2617 7.2802 10.0917 7.4502 9.88672 7.4502Z" fill="#92ABFE"/>
<path d="M3.13672 7.0752C2.03172 7.0752 1.13672 7.9702 1.13672 9.0752C1.13672 9.4502 1.24171 9.80519 1.42671 10.1052C1.77171 10.6852 2.40672 11.0752 3.13672 11.0752C3.86672 11.0752 4.50173 10.6852 4.84673 10.1052C5.03173 9.80519 5.13672 9.4502 5.13672 9.0752C5.13672 7.9702 4.24172 7.0752 3.13672 7.0752ZM4.12172 8.91019L3.05672 9.8952C2.98672 9.9602 2.89171 9.99521 2.80171 9.99521C2.70671 9.99521 2.61171 9.96019 2.53671 9.88519L2.04172 9.3902C1.89672 9.2452 1.89672 9.0052 2.04172 8.8602C2.18672 8.7152 2.42672 8.7152 2.57172 8.8602L2.81172 9.10019L3.61172 8.3602C3.76172 8.2202 4.00172 8.23019 4.14172 8.38019C4.28172 8.53019 4.27172 8.77019 4.12172 8.91019Z" fill="#92ABFE"/>
</svg>
