<svg width="134" height="50" viewBox="0 0 134 50" fill="none" xmlns="http://www.w3.org/2000/svg">
<g opacity="0.5">
<path d="M0 28.748L2.22222 26.773C4.44445 24.7855 8.88889 20.8355 13.3333 18.9605C17.7778 17.0855 22.2222 17.2855 26.6667 16.998C31.1111 16.7105 35.5556 15.9105 40 14.898C44.4445 13.873 48.8889 12.623 53.3333 16.123C57.7778 19.623 62.2222 27.873 66.6667 30.9105C71.1111 33.9605 75.5556 31.7855 80 29.998C84.4445 28.2105 88.8889 26.7855 93.3333 28.223C97.7778 29.6605 102.222 33.9605 106.667 30.5605C111.111 27.1605 115.556 16.0855 120 9.87304C124.444 3.66055 128.889 2.33555 131.111 1.66055L133.333 0.998047V49.748H131.111C128.889 49.748 124.444 49.748 120 49.748C115.556 49.748 111.111 49.748 106.667 49.748C102.222 49.748 97.7778 49.748 93.3333 49.748C88.8889 49.748 84.4445 49.748 80 49.748C75.5556 49.748 71.1111 49.748 66.6667 49.748C62.2222 49.748 57.7778 49.748 53.3333 49.748C48.8889 49.748 44.4445 49.748 40 49.748C35.5556 49.748 31.1111 49.748 26.6667 49.748C22.2222 49.748 17.7778 49.748 13.3333 49.748C8.88889 49.748 4.44445 49.748 2.22222 49.748H0V28.748Z" fill="#58DA8F" fill-opacity="0.6"/>
<path d="M0 33.623L2.22222 31.398C4.44445 29.1605 8.88889 24.7105 13.3333 20.348C17.7778 15.998 22.2222 11.748 26.6667 11.4605C31.1111 11.1605 35.5556 14.8355 40 18.973C44.4445 23.123 48.8889 27.748 53.3333 30.3355C57.7778 32.9105 62.2222 33.4605 66.6667 34.523C71.1111 35.5855 75.5556 37.1605 80 37.8105C84.4445 38.4605 88.8889 38.1605 93.3333 35.2105C97.7778 32.248 102.222 26.623 106.667 21.848C111.111 17.0855 115.556 13.1605 120 14.023C124.444 14.873 128.889 20.498 131.111 23.3105L133.333 26.123V49.748H131.111C128.889 49.748 124.444 49.748 120 49.748C115.556 49.748 111.111 49.748 106.667 49.748C102.222 49.748 97.7778 49.748 93.3333 49.748C88.8889 49.748 84.4445 49.748 80 49.748C75.5556 49.748 71.1111 49.748 66.6667 49.748C62.2222 49.748 57.7778 49.748 53.3333 49.748C48.8889 49.748 44.4445 49.748 40 49.748C35.5556 49.748 31.1111 49.748 26.6667 49.748C22.2222 49.748 17.7778 49.748 13.3333 49.748C8.88889 49.748 4.44445 49.748 2.22222 49.748H0V33.623Z" fill="#C0F2D5" fill-opacity="0.8"/>
</g>
</svg>
