<svg width="13" height="13" viewBox="0 0 13 13" fill="none" xmlns="http://www.w3.org/2000/svg">
<path opacity="0.4" d="M8.99549 1.26074H4.82273C3.01022 1.26074 1.92969 2.34128 1.92969 4.15379V8.32157C1.92969 10.1391 3.01022 11.2196 4.82273 11.2196H8.99051C10.803 11.2196 11.8836 10.1391 11.8836 8.32655V4.15379C11.8885 2.34128 10.808 1.26074 8.99549 1.26074Z" fill="#A9A6A6"/>
<path d="M4.36479 8.10689C4.22537 8.10689 4.0959 8.0322 4.03117 7.90273C3.93656 7.7185 4.01125 7.49442 4.20047 7.39981C4.63368 7.1857 5.00216 6.85705 5.26607 6.4587C5.3557 6.32426 5.3557 6.15496 5.26607 6.02051C4.99718 5.62216 4.6287 5.29352 4.20047 5.0794C4.01125 4.98977 3.93656 4.7657 4.03117 4.57648C4.1208 4.39224 4.34487 4.31755 4.52911 4.41216C5.07685 4.68603 5.54492 5.09932 5.88352 5.60722C6.13747 5.99063 6.13747 6.48858 5.88352 6.87199C5.54492 7.37989 5.07685 7.79319 4.52911 8.06705C4.47932 8.09195 4.41957 8.10689 4.36479 8.10689Z" fill="#A9A6A6"/>
<path d="M9.39843 8.10727H7.40666C7.2025 8.10727 7.0332 7.93796 7.0332 7.73381C7.0332 7.52965 7.2025 7.36035 7.40666 7.36035H9.39843C9.60259 7.36035 9.77189 7.52965 9.77189 7.73381C9.77189 7.93796 9.60259 8.10727 9.39843 8.10727Z" fill="#A9A6A6"/>
</svg>
