<svg width="12" height="11" viewBox="0 0 12 11" fill="none" xmlns="http://www.w3.org/2000/svg">
<path opacity="0.4" d="M5.99718 9.77756C8.45178 9.77756 10.4416 7.78772 10.4416 5.33312C10.4416 2.87852 8.45178 0.888672 5.99718 0.888672C3.54258 0.888672 1.55273 2.87852 1.55273 5.33312C1.55273 7.78772 3.54258 9.77756 5.99718 9.77756Z" fill="#92ABFE"/>
<path d="M5.99682 6.67097C5.91237 6.67097 5.82793 6.63986 5.76126 6.57319L4.19237 5.0043C4.06348 4.87541 4.06348 4.66208 4.19237 4.53319C4.32126 4.4043 4.53459 4.4043 4.66348 4.53319L5.99682 5.86652L7.33015 4.53319C7.45904 4.4043 7.67237 4.4043 7.80126 4.53319C7.93015 4.66208 7.93015 4.87541 7.80126 5.0043L6.23237 6.57319C6.1657 6.63986 6.08126 6.67097 5.99682 6.67097Z" fill="#92ABFE"/>
</svg>
