<svg width="13" height="13" viewBox="0 0 13 13" fill="none" xmlns="http://www.w3.org/2000/svg">
<path d="M10.7285 3.33431H7.72852C7.52352 3.33431 7.35352 3.17198 7.35352 2.97624C7.35352 2.78049 7.52352 2.61816 7.72852 2.61816H10.7285C10.9335 2.61816 11.1035 2.78049 11.1035 2.97624C11.1035 3.17198 10.9335 3.33431 10.7285 3.33431Z" fill="#92ABFE"/>
<path d="M9.22852 4.76693H7.72852C7.52352 4.76693 7.35352 4.6046 7.35352 4.40885C7.35352 4.21311 7.52352 4.05078 7.72852 4.05078H9.22852C9.43352 4.05078 9.60352 4.21311 9.60352 4.40885C9.60352 4.6046 9.43352 4.76693 9.22852 4.76693Z" fill="#92ABFE"/>
<path d="M6.47852 10.9729C3.65352 10.9729 1.35352 8.77669 1.35352 6.07921C1.35352 3.38173 3.65352 1.18555 6.47852 1.18555C6.68352 1.18555 6.85352 1.34787 6.85352 1.54362C6.85352 1.73937 6.68352 1.90169 6.47852 1.90169C4.06352 1.90169 2.10352 3.77799 2.10352 6.07921C2.10352 8.38043 4.06352 10.2567 6.47852 10.2567C8.89351 10.2567 10.8535 8.38043 10.8535 6.07921C10.8535 5.88346 11.0235 5.72114 11.2285 5.72114C11.4335 5.72114 11.6035 5.88346 11.6035 6.07921C11.6035 8.77669 9.30351 10.9729 6.47852 10.9729Z" fill="#92ABFE"/>
<path d="M11.7292 11.4501C11.6342 11.4501 11.5392 11.4167 11.4642 11.3451L10.4642 10.3902C10.3192 10.2517 10.3192 10.0226 10.4642 9.88411C10.6092 9.74566 10.8492 9.74566 10.9942 9.88411L11.9942 10.839C12.1392 10.9774 12.1392 11.2066 11.9942 11.3451C11.9192 11.4167 11.8242 11.4501 11.7292 11.4501Z" fill="#92ABFE"/>
</svg>
