<svg width="10" height="10" viewBox="0 0 10 10" fill="none" xmlns="http://www.w3.org/2000/svg">
<path d="M7.13518 1.66513L5.04464 0.882131C4.82798 0.80231 4.47449 0.80231 4.25783 0.882131L2.16729 1.66513C1.76438 1.81717 1.4375 2.2885 1.4375 2.71801V5.79681C1.4375 6.10469 1.63895 6.51139 1.88602 6.69384L3.97656 8.25604C4.34525 8.53352 4.94961 8.53352 5.31831 8.25604L7.40885 6.69384C7.65591 6.50759 7.85737 6.10469 7.85737 5.79681V2.71801C7.86117 2.2885 7.53428 1.81717 7.13518 1.66513ZM5.97208 3.79369L4.33765 5.42811C4.28064 5.48513 4.20842 5.51173 4.1362 5.51173C4.06398 5.51173 3.99176 5.48513 3.93475 5.42811L3.32659 4.81235C3.21636 4.70212 3.21636 4.51968 3.32659 4.40945C3.43682 4.29922 3.61927 4.29922 3.72949 4.40945L4.14 4.81995L5.57297 3.38698C5.6832 3.27675 5.86565 3.27675 5.97588 3.38698C6.08611 3.49721 6.08611 3.68346 5.97208 3.79369Z" fill="#92ABFE"/>
</svg>
