<svg width="12" height="12" viewBox="0 0 12 12" fill="none" xmlns="http://www.w3.org/2000/svg">
<g id="vuesax/bold/copy">
<g id="copy">
<path id="Vector" d="M8 6.45V8.55C8 10.3 7.3 11 5.55 11H3.45C1.7 11 1 10.3 1 8.55V6.45C1 4.7 1.7 4 3.45 4H5.55C7.3 4 8 4.7 8 6.45Z" fill="white"/>
<path id="Vector_2" d="M8.54891 1H6.44891C4.84361 1 4.126 1.59323 4.01801 3.03757C4.00417 3.22269 4.15557 3.375 4.34121 3.375H5.54891C7.64891 3.375 8.62391 4.35 8.62391 6.45V7.6577C8.62391 7.84334 8.77621 7.99474 8.96133 7.9809C10.4057 7.87291 10.9989 7.15529 10.9989 5.55V3.45C10.9989 1.7 10.2989 1 8.54891 1Z" fill="white"/>
</g>
</g>
</svg>
