<svg width="13" height="12" viewBox="0 0 13 12" fill="none" xmlns="http://www.w3.org/2000/svg">
<path opacity="0.4" d="M8.95828 1H4.76828C2.94828 1 1.86328 2.085 1.86328 3.905V8.09C1.86328 9.915 2.94828 11 4.76828 11H8.95328C10.7733 11 11.8583 9.915 11.8583 8.095V3.905C11.8633 2.085 10.7783 1 8.95828 1Z" fill="#92ABFE"/>
<path d="M6.23312 8.14008C6.13812 8.14008 6.04312 8.10508 5.96812 8.03008C5.82313 7.88508 5.82313 7.64508 5.96812 7.50008L7.46812 6.00008L5.96812 4.50008C5.82313 4.35508 5.82313 4.11508 5.96812 3.97008C6.11312 3.82508 6.35313 3.82508 6.49813 3.97008L8.26312 5.73508C8.40812 5.88008 8.40812 6.12008 8.26312 6.26508L6.49813 8.03008C6.42313 8.10508 6.32812 8.14008 6.23312 8.14008Z" fill="#92ABFE"/>
</svg>
