<svg width="13" height="13" viewBox="0 0 13 13" fill="none" xmlns="http://www.w3.org/2000/svg">
<path d="M4.95948 10.7058C5.28295 10.3822 5.46877 9.96925 5.51695 9.54248C5.58233 8.97461 5.39307 8.38609 4.95948 7.95244C4.7014 7.69432 4.38481 7.52224 4.05102 7.44308C3.41441 7.28132 2.70898 7.44996 2.20657 7.95244C1.85902 8.30005 1.66975 8.74402 1.64566 9.20176C1.62846 9.39793 1.64566 9.60099 1.69728 9.79717C1.77643 10.131 1.94848 10.4476 2.20657 10.7058C2.96706 11.4664 4.19899 11.4664 4.95948 10.7058ZM4.31255 8.97117C4.51213 8.97117 4.67731 9.13637 4.67731 9.33598C4.67387 9.53904 4.51213 9.7008 4.30911 9.70424L3.94779 9.7008L3.95123 10.0484C3.94779 10.2515 3.78605 10.4132 3.58303 10.4167C3.38 10.4132 3.21827 10.2515 3.21482 10.0484L3.21827 9.7008L2.85695 9.70424C2.65392 9.7008 2.49219 9.53904 2.48874 9.33598C2.49219 9.23618 2.53348 9.14669 2.59886 9.0813C2.66424 9.01591 2.75371 8.97461 2.8535 8.97117L3.21827 8.97117L3.21827 8.59259C3.21827 8.48934 3.25956 8.39986 3.32494 8.33446C3.39032 8.26907 3.47979 8.22777 3.58303 8.22777C3.78261 8.22777 3.94779 8.39297 3.94779 8.59259L3.94779 8.97117L4.31255 8.97117Z" fill="#92ABFE"/>
<path d="M8.38123 2.00485V3.8544H7.65125V2.00485C7.65125 1.87344 7.53446 1.81016 7.45659 1.81016C7.43226 1.81016 7.40793 1.81503 7.38359 1.82476L3.52446 3.28007C3.26653 3.37741 3.10107 3.62077 3.10107 3.8982V4.22431C2.65822 4.55528 2.37109 5.08581 2.37109 5.68448V3.8982C2.37109 3.319 2.72635 2.80308 3.26653 2.59865L7.13054 1.13848C7.2376 1.09955 7.34953 1.08008 7.45659 1.08008C7.94324 1.08008 8.38123 1.47432 8.38123 2.00485Z" fill="#92ABFE"/>
<path d="M11.6145 7.14082V7.62754C11.6145 7.75896 11.5123 7.86604 11.3761 7.87091H10.6656C10.4076 7.87091 10.174 7.68108 10.1546 7.42799C10.14 7.2771 10.1984 7.13596 10.2957 7.03861C10.3833 6.94613 10.505 6.89746 10.6364 6.89746H11.3712C11.5123 6.90233 11.6145 7.00941 11.6145 7.14082Z" fill="#61CCFF"/>
<path d="M10.6344 6.38545H11.1308C11.3985 6.38545 11.6175 6.16643 11.6175 5.89873V5.68457C11.6175 4.67705 10.795 3.85449 9.78765 3.85449H4.2009C3.78725 3.85449 3.40766 3.99077 3.10107 4.2244C2.65822 4.55537 2.37109 5.0859 2.37109 5.68457V6.55094C2.37109 6.73589 2.56575 6.8527 2.74095 6.7943C3.01347 6.70182 3.3006 6.65315 3.58772 6.65315C5.06227 6.65315 6.2643 7.85535 6.2643 9.33012C6.2643 9.68056 6.17184 10.0651 6.02584 10.4058C5.94798 10.581 6.06964 10.7903 6.25943 10.7903H9.78765C10.795 10.7903 11.6175 9.96773 11.6175 8.96021V8.86774C11.6175 8.60004 11.3985 8.38101 11.1308 8.38101H10.7074C10.2402 8.38101 9.79252 8.09385 9.67085 7.6412C9.57352 7.27129 9.69032 6.91111 9.93365 6.67748C10.1137 6.49253 10.3619 6.38545 10.6344 6.38545ZM7.96758 6.28811H5.53432C5.3348 6.28811 5.16934 6.12262 5.16934 5.92306C5.16934 5.72351 5.3348 5.55802 5.53432 5.55802H7.96758C8.1671 5.55802 8.33256 5.72351 8.33256 5.92306C8.33256 6.12262 8.1671 6.28811 7.96758 6.28811Z" fill="#61CCFF"/>
</svg>
