<svg width="15" height="16" viewBox="0 0 15 16" fill="none" xmlns="http://www.w3.org/2000/svg">
<g clip-path="url(#clip0_10335_204756)">
<path fill-rule="evenodd" clip-rule="evenodd" d="M4.79862 13.9487C4.98497 13.9487 5.12114 13.9882 5.20715 14.0671C5.29315 14.146 5.33621 14.2688 5.3363 14.4354V15.3283H5.05678V14.4732C5.05678 14.2849 4.95121 14.1907 4.74007 14.1907C4.64887 14.19 4.55933 14.2152 4.48191 14.2634C4.49531 14.3197 4.5016 14.3775 4.50065 14.4354V15.3283H4.22113V14.4732C4.22113 14.2849 4.11556 14.1907 3.90442 14.1907C3.80808 14.1908 3.71253 14.2081 3.62229 14.2419V15.3283H3.34292V14.0886C3.43541 14.0426 3.53332 14.0085 3.63435 13.9869C3.74211 13.9618 3.85232 13.9487 3.96297 13.948C4.13731 13.948 4.26685 13.9819 4.35159 14.0497C4.49117 13.983 4.64393 13.9485 4.79862 13.9487ZM6.29399 15.3693C6.08091 15.3693 5.92076 15.3083 5.81355 15.1863C5.70633 15.0644 5.65267 14.8869 5.65258 14.6539C5.65258 14.1823 5.86565 13.9466 6.29181 13.9467C6.50653 13.9467 6.66799 14.0072 6.77617 14.1281C6.88436 14.2491 6.9385 14.4244 6.9386 14.6539C6.9386 14.8832 6.88271 15.0598 6.77094 15.1836C6.65917 15.3074 6.50019 15.3693 6.29399 15.3693ZM6.29123 15.1298C6.53617 15.1298 6.65859 14.9712 6.6585 14.6539C6.6585 14.4961 6.62944 14.3782 6.57133 14.3003C6.51322 14.2223 6.42004 14.1833 6.29181 14.1832C6.16232 14.1832 6.06963 14.2231 6.01374 14.3029C5.95786 14.3827 5.92992 14.4997 5.92992 14.6539C5.92992 14.808 5.95873 14.9259 6.01636 15.0075C6.07399 15.0892 6.16561 15.1297 6.29123 15.1293V15.1298ZM7.87173 13.9493C8.07047 13.9493 8.22127 14.0093 8.32413 14.1294C8.42699 14.2495 8.47856 14.4197 8.47885 14.6398C8.47885 14.9052 8.41721 15.093 8.29391 15.2032C8.17062 15.3134 8.01391 15.3688 7.82379 15.3693C7.44228 15.3693 7.25153 15.2671 7.25153 15.0627V13.4378H7.52843V14.0327C7.58411 14.0061 7.64259 13.9858 7.70277 13.9721C7.75802 13.9579 7.8147 13.9501 7.87173 13.9487V13.9493ZM7.80243 15.1245C7.94771 15.1245 8.04941 15.0823 8.10752 14.9981C8.16563 14.9138 8.19469 14.7982 8.19469 14.6511C8.19469 14.5006 8.16408 14.3859 8.10287 14.307C8.04166 14.228 7.95076 14.1886 7.83018 14.1887C7.77765 14.1891 7.72535 14.1958 7.67444 14.2088C7.62348 14.2211 7.57455 14.2406 7.52916 14.2669V14.9933C7.52867 15.0804 7.61977 15.124 7.80243 15.1239V15.1245ZM8.79469 13.5082H9.09281V13.7638H8.79469V13.5082ZM8.80268 13.9869H9.0822L9.08482 15.3289H8.80268V13.9869ZM9.47823 15.3289V13.4674H9.75514V15.3283L9.47823 15.3289ZM10.6915 13.9455C10.8991 13.9455 11.0513 14.0133 11.1479 14.1489C11.2446 14.2845 11.2921 14.4741 11.2903 14.7177H10.353C10.362 14.8504 10.4007 14.9512 10.4692 15.0203C10.5377 15.0893 10.6348 15.1238 10.7606 15.1237C10.9113 15.1239 11.0597 15.086 11.1918 15.0135V15.277C11.0534 15.3385 10.8949 15.3693 10.7162 15.3693C10.5157 15.3693 10.3582 15.3078 10.2437 15.185C10.1292 15.0622 10.072 14.8879 10.0721 14.662C10.0721 14.4307 10.1262 14.2537 10.2344 14.131C10.3426 14.0083 10.495 13.9465 10.6915 13.9455ZM10.6835 14.178C10.5894 14.178 10.5158 14.2031 10.4627 14.2534C10.4095 14.3036 10.3749 14.3888 10.3588 14.5088H11.0056C10.9931 14.394 10.9611 14.3102 10.9097 14.2574C10.8583 14.2046 10.7828 14.1782 10.6835 14.178ZM8.01396 3.1143C7.70567 3.03808 7.46838 2.99992 7.30209 2.99982C6.06154 2.99982 5.05577 4.00225 5.05577 5.23844C5.05577 6.47463 6.06198 7.47721 7.30209 7.47721C8.5422 7.47721 9.54855 6.47477 9.54855 5.23844C9.54864 5.05784 9.52688 4.87788 9.48376 4.7025L11.2697 4.22148C11.4144 4.77147 11.4417 5.34574 11.35 5.907C11.2582 6.46825 11.0495 7.00393 10.7372 7.47924L7.77991 12.962H5.04022L6.98697 9.37355C6.99758 9.35379 6.96634 9.31021 6.94019 9.30788C4.85993 9.11902 3.23047 7.37566 3.23047 5.25326C3.23047 3.00447 5.05954 1.18164 7.31603 1.18164C7.7291 1.18119 8.13986 1.24325 8.53435 1.36571L8.01396 3.1143Z" fill="#006E53"/>
<path d="M7.28984 6.46933C7.96984 6.46933 8.52109 5.91808 8.52109 5.23808C8.52109 4.55808 7.96984 4.00684 7.28984 4.00684C6.60984 4.00684 6.05859 4.55808 6.05859 5.23808C6.05859 5.91808 6.60984 6.46933 7.28984 6.46933Z" fill="#D6E806"/>
<path d="M9.41724 4.39925C9.20394 3.86528 8.79281 3.43423 8.26953 3.1959M10.2009 4.06336C9.89963 3.3228 9.33 2.72319 8.60585 2.38436M10.9565 3.81159C10.5728 2.83528 9.81817 2.05055 8.85762 1.62891" stroke="#D6E806" stroke-width="0.279838" stroke-linecap="round"/>
</g>
<defs>
<clipPath id="clip0_10335_204756">
<rect width="14.528" height="14.528" fill="white" transform="translate(0.0507812 0.958008)"/>
</clipPath>
</defs>
</svg>
