<svg width="15" height="15" viewBox="0 0 15 15" fill="none" xmlns="http://www.w3.org/2000/svg">
<path d="M0.0507812 7.31673C0.0507812 11.3282 3.30272 14.5807 7.3142 14.5807C11.3257 14.5807 14.5776 11.3282 14.5776 7.31673C14.5776 3.30526 11.3257 0.0527344 7.3142 0.0527344C3.30272 0.0527344 0.0507812 3.30526 0.0507812 7.31673Z" fill="#FFCB05"/>
<path d="M14.144 7.36666C14.144 8.91749 11.0957 10.1746 7.33609 10.1746C3.57563 10.1746 0.527344 8.91749 0.527344 7.36666C0.527344 5.81584 3.57563 4.55957 7.33609 4.55957C11.0957 4.55957 14.144 5.81584 14.144 7.36666Z" fill="#00678F"/>
<path d="M2.96875 8.75321L3.67288 5.94531H4.79788V7.58064L5.53742 5.94531H6.69863L5.99531 8.75321H5.25577L5.67744 6.94083L4.79788 8.75321H4.20078V6.94083L3.74209 8.75321H2.96875Z" fill="white"/>
<path d="M6.92578 8.78859L7.0312 8.39746H7.84075L7.73453 8.78859H6.92578Z" fill="#ED1D24"/>
<path d="M8.73828 8.75321L9.44161 5.94531H10.2512L10.6036 7.439L10.9899 5.94531H11.7286L11.0253 8.75321H10.2512L9.86409 7.22492L9.47702 8.75321H8.73828Z" fill="white"/>
<path d="M6.92623 5.94531L6.75 6.65674H7.48954L7.0912 8.19952H7.89995L8.29909 6.65674H9.03782L9.21325 5.94531H6.92623Z" fill="#FFCB05"/>
</svg>
