<svg width="24" height="24" viewBox="0 0 24 24" fill="none" xmlns="http://www.w3.org/2000/svg">
<rect width="24" height="24" fill="#F1ECEC"/>
<g id="DESK - MONEY TRANSFER - TO MY ACCOUNT PAGE">
<rect width="1440" height="1557" transform="translate(-1214 -578)" fill="white"/>
<g id="Frame 758532452">
<g id="Frame 758532448">
<g id="Frame 758532257">
<g id="Frame 758532178">
<rect x="-334.5" y="-12.5" width="374" height="50" rx="9.5" stroke="black" stroke-opacity="0.3"/>
<g id="Frame 758532179">
<g id="vuesax/outline/frame">
<g id="vuesax/outline/frame_2">
<g id="frame">
<path id="Vector" d="M11.8449 10.6197L11.9033 10.6217L11.9443 10.6135C11.9547 10.613 11.9709 10.6125 11.9925 10.6125C12.0369 10.6125 12.0916 10.6145 12.1442 10.6185L12.1748 10.6209L12.2054 10.6195C14.434 10.5171 16.1812 8.6862 16.1925 6.44253V6.44C16.1925 4.13386 14.3086 2.25 12.0025 2.25C9.69636 2.25 7.8125 4.13386 7.8125 6.44C7.8125 8.70956 9.58604 10.5402 11.8449 10.6197ZM12.1625 11.12H12.1623H12.1621H12.162H12.1618H12.1616H12.1614H12.1613H12.1611H12.1609H12.1608H12.1606H12.1604H12.1602H12.1601H12.1599H12.1597H12.1595H12.1594H12.1592H12.159H12.1589H12.1587H12.1585H12.1583H12.1582H12.158H12.1578H12.1577H12.1575H12.1573H12.1572H12.157H12.1568H12.1566H12.1565H12.1563H12.1561H12.156H12.1558H12.1556H12.1555H12.1553H12.1551H12.155H12.1548H12.1546H12.1545H12.1543H12.1541H12.154H12.1538H12.1536H12.1535H12.1533H12.1532H12.153H12.1528H12.1527H12.1525H12.1523H12.1522H12.152H12.1518H12.1517H12.1515H12.1514H12.1512H12.151H12.1509H12.1507H12.1505H12.1504H12.1502H12.1501H12.1499H12.1497H12.1496H12.1494H12.1493H12.1491H12.1489H12.1488H12.1486H12.1485H12.1483H12.1481H12.148H12.1478H12.1477H12.1475H12.1473H12.1472H12.147H12.1469H12.1467H12.1465H12.1464H12.1462H12.1461H12.1459H12.1458H12.1456H12.1454H12.1453H12.1451H12.145H12.1448H12.1447H12.1445H12.1444H12.1442H12.144H12.1439H12.1437H12.1436H12.1434H12.1433H12.1431H12.143H12.1428H12.1426H12.1425H12.1423H12.1422H12.142H12.1419H12.1417H12.1416H12.1414H12.1413H12.1411H12.1409H12.1408H12.1406H12.1405H12.1403H12.1402H12.14H12.1399H12.1397H12.1396H12.1394H12.1393H12.1391H12.139H12.1388H12.1387H12.1385H12.1384H12.1382H12.1381H12.1379H12.1378H12.1376H12.1374H12.1373H12.1371H12.137H12.1368H12.1367H12.1365H12.1364H12.1362H12.1361H12.1359H12.1358H12.1356H12.1355H12.1353H12.1352H12.135H12.1349H12.1347H12.1346H12.1344H12.1343H12.1341H12.134H12.1338H12.1337H12.1335H12.1334H12.1333H12.1331H12.133H12.1328H12.1327H12.1325H12.1324H12.1322H12.1321H12.1319H12.1318H12.1316H12.1315H12.1313H12.1312H12.131H12.1309H12.1307H12.1306H12.1304H12.1303H12.1301H12.13H12.1298H12.1297H12.1295H12.1294H12.1293H12.1291H12.129H12.1288H12.1287H12.1285H12.1284H12.1282H12.1281H12.1279H12.1278H12.1276H12.1275H12.1273H12.1272H12.127H12.1269H12.1268H12.1266H12.1265H12.1263H12.1262H12.126H12.1259H12.1257H12.1256H12.1254H12.1253H12.1251H12.125H12.1248H12.1247H12.1246H12.1244H12.1243H12.1241H12.124H12.1238H12.1237H12.1235H12.1234H12.1232H12.1231H12.1229H12.1228H12.1226H12.1225H12.1224H12.1222H12.1221H12.1219H12.1218H12.1216H12.1215H12.1213H12.1212H12.121H12.1209H12.1207H12.1206H12.1204H12.1204C12.0391 11.1098 11.9549 11.1106 11.8784 11.1189C9.26514 11.0178 7.3125 8.96409 7.3125 6.44C7.3125 3.85614 9.41864 1.75 12.0025 1.75C14.586 1.75 16.692 3.85562 16.6925 6.43903C16.683 8.97998 14.6981 11.0348 12.1842 11.12H12.1842H12.1842H12.1841H12.1841H12.184H12.1839H12.1839H12.1838H12.1838H12.1837H12.1837H12.1836H12.1835H12.1835H12.1834H12.1834H12.1833H12.1832H12.1832H12.1831H12.1831H12.183H12.1829H12.1829H12.1828H12.1828H12.1827H12.1827H12.1826H12.1825H12.1825H12.1824H12.1824H12.1823H12.1822H12.1822H12.1821H12.1821H12.182H12.182H12.1819H12.1818H12.1818H12.1817H12.1817H12.1816H12.1815H12.1815H12.1814H12.1814H12.1813H12.1812H12.1812H12.1811H12.1811H12.181H12.181H12.1809H12.1808H12.1808H12.1807H12.1807H12.1806H12.1805H12.1805H12.1804H12.1804H12.1803H12.1803H12.1802H12.1801H12.1801H12.18H12.18H12.1799H12.1798H12.1798H12.1797H12.1797H12.1796H12.1796H12.1795H12.1794H12.1794H12.1793H12.1793H12.1792H12.1791H12.1791H12.179H12.179H12.1789H12.1788H12.1788H12.1787H12.1787H12.1786H12.1786H12.1785H12.1784H12.1784H12.1783H12.1783H12.1782H12.1781H12.1781H12.178H12.178H12.1779H12.1779H12.1778H12.1777H12.1777H12.1776H12.1776H12.1775H12.1774H12.1774H12.1773H12.1773H12.1772H12.1771H12.1771H12.177H12.177H12.1769H12.1769H12.1768H12.1767H12.1767H12.1766H12.1766H12.1765H12.1764H12.1764H12.1763H12.1763H12.1762H12.1762H12.1761H12.176H12.176H12.1759H12.1759H12.1758H12.1757H12.1757H12.1756H12.1756H12.1755H12.1754H12.1754H12.1753H12.1753H12.1752H12.1752H12.1751H12.175H12.175H12.1749H12.1749H12.1748H12.1747H12.1747H12.1746H12.1746H12.1745H12.1745H12.1744H12.1743H12.1743H12.1742H12.1742H12.1741H12.174H12.174H12.1739H12.1739H12.1738H12.1737H12.1737H12.1736H12.1736H12.1735H12.1735H12.1734H12.1733H12.1733H12.1732H12.1732H12.1731H12.173H12.173H12.1729H12.1729H12.1728H12.1728H12.1727H12.1726H12.1726H12.1725H12.1725H12.1724H12.1723H12.1723H12.1722H12.1722H12.1721H12.1721H12.172H12.1719H12.1719H12.1718H12.1718H12.1717H12.1716H12.1716H12.1715H12.1715H12.1714H12.1713H12.1713H12.1712H12.1712H12.1711H12.1711H12.171H12.1709H12.1709H12.1708H12.1708H12.1707H12.1706H12.1706H12.1705H12.1705H12.1704H12.1704H12.1703H12.1702H12.1702H12.1701H12.1701H12.17H12.1699H12.1699H12.1698H12.1698H12.1697H12.1696H12.1696H12.1695H12.1695H12.1694H12.1694H12.1693H12.1692H12.1692H12.1691H12.1691H12.169H12.1689H12.1689H12.1688H12.1688H12.1687H12.1687H12.1686H12.1685H12.1685H12.1684H12.1684H12.1683H12.1682H12.1682H12.1681H12.1681H12.168H12.1679H12.1679H12.1678H12.1678H12.1677H12.1677H12.1676H12.1675H12.1675H12.1674H12.1674H12.1673H12.1672H12.1672H12.1671H12.1671H12.167H12.167H12.1669H12.1668H12.1668H12.1667H12.1667H12.1666H12.1665H12.1665H12.1664H12.1664H12.1663H12.1662H12.1662H12.1661H12.1661H12.166H12.166H12.1659H12.1658H12.1658H12.1657H12.1657H12.1656H12.1655H12.1655H12.1654H12.1654H12.1653H12.1653H12.1652H12.1651H12.1651H12.165H12.165H12.1649H12.1648H12.1648H12.1647H12.1647H12.1646H12.1646H12.1645H12.1644H12.1644H12.1643H12.1643H12.1642H12.1641H12.1641H12.164H12.164H12.1639H12.1638H12.1638H12.1637H12.1637H12.1636H12.1636H12.1635H12.1634H12.1634H12.1633H12.1633H12.1632H12.1631H12.1631H12.163H12.163H12.1629H12.1629H12.1628H12.1627H12.1627H12.1626H12.1626H12.1625Z" fill="white" stroke="#92ABFE"/>
<path id="Vector_2" d="M12.1716 22.55C10.2116 22.55 8.24156 22.05 6.75156 21.05C5.36156 20.13 4.60156 18.87 4.60156 17.5C4.60156 16.13 5.36156 14.86 6.75156 13.93C9.75156 11.94 14.6116 11.94 17.5916 13.93C18.9716 14.85 19.7416 16.11 19.7416 17.48C19.7416 18.85 18.9816 20.12 17.5916 21.05C16.0916 22.05 14.1316 22.55 12.1716 22.55ZM7.58156 15.19C6.62156 15.83 6.10156 16.65 6.10156 17.51C6.10156 18.36 6.63156 19.18 7.58156 19.81C10.0716 21.48 14.2716 21.48 16.7616 19.81C17.7216 19.17 18.2416 18.35 18.2416 17.49C18.2416 16.64 17.7116 15.82 16.7616 15.19C14.2716 13.53 10.0716 13.53 7.58156 15.19Z" fill="#92ABFE"/>
</g>
</g>
</g>
</g>
</g>
</g>
</g>
</g>
</g>
</svg>
