<svg width="24" height="24" viewBox="0 0 24 24" fill="none" xmlns="http://www.w3.org/2000/svg">
<rect width="24" height="24" fill="#F1ECEC"/>
<g id="DESK - MONEY TRANSFER - TO MY ACCOUNT PAGE">
<rect width="1440" height="1557" transform="translate(-1214 -685)" fill="white"/>
<g id="Frame 758532452">
<g id="Frame 758532449">
<g id="Frame 758532403">
<g id="Frame 758532178">
<rect x="-334.5" y="-12.5" width="374" height="50" rx="9.5" stroke="black" stroke-opacity="0.3"/>
<g id="Frame 758532179">
<g id="vuesax/linear/bank">
<g id="vuesax/linear/bank_2">
<g id="bank">
<path id="Vector" d="M12.37 2.14984L21.37 5.74982C21.72 5.88982 22 6.30981 22 6.67981V9.99982C22 10.5498 21.55 10.9998 21 10.9998H3C2.45 10.9998 2 10.5498 2 9.99982V6.67981C2 6.30981 2.28 5.88982 2.63 5.74982L11.63 2.14984C11.83 2.06984 12.17 2.06984 12.37 2.14984Z" fill="white" stroke="#92ABFE" stroke-width="1.5" stroke-miterlimit="10" stroke-linecap="round" stroke-linejoin="round"/>
<path id="Vector_2" d="M22 22H2V19C2 18.45 2.45 18 3 18H21C21.55 18 22 18.45 22 19V22Z" fill="white" stroke="#92ABFE" stroke-width="1.5" stroke-miterlimit="10" stroke-linecap="round" stroke-linejoin="round"/>
<path id="Vector_3" d="M4 18V11" stroke="#92ABFE" stroke-width="1.5" stroke-miterlimit="10" stroke-linecap="round" stroke-linejoin="round"/>
<path id="Vector_4" d="M8 18V11" stroke="#92ABFE" stroke-width="1.5" stroke-miterlimit="10" stroke-linecap="round" stroke-linejoin="round"/>
<path id="Vector_5" d="M12 18V11" stroke="#92ABFE" stroke-width="1.5" stroke-miterlimit="10" stroke-linecap="round" stroke-linejoin="round"/>
<path id="Vector_6" d="M16 18V11" stroke="#92ABFE" stroke-width="1.5" stroke-miterlimit="10" stroke-linecap="round" stroke-linejoin="round"/>
<path id="Vector_7" d="M20 18V11" stroke="#92ABFE" stroke-width="1.5" stroke-miterlimit="10" stroke-linecap="round" stroke-linejoin="round"/>
<path id="Vector_8" d="M1 22H23" stroke="#92ABFE" stroke-width="1.5" stroke-miterlimit="10" stroke-linecap="round" stroke-linejoin="round"/>
<path id="Vector_9" d="M12 8.5C12.8284 8.5 13.5 7.82843 13.5 7C13.5 6.17157 12.8284 5.5 12 5.5C11.1716 5.5 10.5 6.17157 10.5 7C10.5 7.82843 11.1716 8.5 12 8.5Z" stroke="#92ABFE" stroke-width="1.5" stroke-miterlimit="10" stroke-linecap="round" stroke-linejoin="round"/>
</g>
</g>
</g>
</g>
</g>
</g>
</g>
</g>
</g>
</svg>
