<svg width="24" height="24" viewBox="0 0 24 24" fill="none" xmlns="http://www.w3.org/2000/svg">
<path d="M12 2.58984V13.6098L2.65 20.1498C1.8 19.1398 1.75 17.6098 2.7 15.8998L5.82 10.2898L8.76 4.99984C9.65 3.39984 10.82 2.58984 12 2.58984Z" fill="#FFCB89"/>
<path opacity="0.6" d="M21.3484 20.1494C20.6984 20.9394 19.5684 21.4094 18.0584 21.4094H5.93844C4.42844 21.4094 3.29844 20.9394 2.64844 20.1494L11.9984 13.6094L21.3484 20.1494Z" fill="#FFCB89"/>
<path opacity="0.4" d="M21.35 20.1498L12 13.6098V2.58984C13.18 2.58984 14.35 3.39984 15.24 4.99984L18.18 10.2898L21.3 15.8998C22.25 17.6098 22.2 19.1398 21.35 20.1498Z" fill="#2ED173"/>
</svg>
