<svg width="15" height="15" viewBox="0 0 15 15" fill="none" xmlns="http://www.w3.org/2000/svg">
<path d="M3.4022 12.8279L3.4022 12.8279L3.4004 12.8274C3.33896 12.8093 3.29061 12.7456 3.29352 12.6709C3.42679 11.113 5.03327 9.81098 7.04383 9.81098C9.05563 9.81098 10.6584 11.1092 10.7946 12.6758C10.8004 12.7474 10.7599 12.8066 10.6894 12.8267L10.6894 12.8267L10.6855 12.8279C10.176 12.9813 9.56112 13.056 8.80425 13.056H5.28341C4.52654 13.056 3.91168 12.9813 3.4022 12.8279ZM3.66267 12.2797L3.57853 12.5845L3.88879 12.6456C4.30007 12.7266 4.76017 12.7626 5.28341 12.7626H8.80425C9.32749 12.7626 9.78758 12.7266 10.1989 12.6456L10.5091 12.5845L10.425 12.2797C10.0686 10.9885 8.63483 10.1044 7.04383 10.1044C5.45283 10.1044 4.0191 10.9885 3.66267 12.2797Z" fill="white" stroke="#92ABFE" stroke-width="0.586806"/>
<path d="M8.80035 1.17383H5.27951C2.34549 1.17383 1.17188 2.34744 1.17188 5.28147V8.8023C1.17188 11.0204 1.84083 12.2351 3.43694 12.687C3.56604 11.1613 5.13281 9.95829 7.03993 9.95829C8.94705 9.95829 10.5138 11.1613 10.6429 12.687C12.239 12.2351 12.908 11.0204 12.908 8.8023V5.28147C12.908 2.34744 11.7344 1.17383 8.80035 1.17383ZM7.03993 8.31524C5.87806 8.31524 4.93917 7.37051 4.93917 6.20863C4.93917 5.04676 5.87806 4.10786 7.03993 4.10786C8.20181 4.10786 9.1407 5.04676 9.1407 6.20863C9.1407 7.37051 8.20181 8.31524 7.03993 8.31524Z" fill="white" stroke="#92ABFE" stroke-width="0.880208" stroke-linecap="round" stroke-linejoin="round"/>
<path d="M7.04087 8.75556C5.6384 8.75556 4.5 7.61131 4.5 6.20885C4.5 4.80638 5.6384 3.66797 7.04087 3.66797C8.44333 3.66797 9.58174 4.80638 9.58174 6.20885C9.58174 7.61131 8.44333 8.75556 7.04087 8.75556ZM7.04087 4.54818C6.12545 4.54818 5.38021 5.29343 5.38021 6.20885C5.38021 7.13013 6.12545 7.87535 7.04087 7.87535C7.95629 7.87535 8.70153 7.13013 8.70153 6.20885C8.70153 5.29343 7.95629 4.54818 7.04087 4.54818Z" fill="#92ABFE"/>
</svg>
