<svg width="24" height="24" viewBox="0 0 24 24" fill="none" xmlns="http://www.w3.org/2000/svg">
<path d="M21.1881 8.04039L18.0081 4.8604C16.8081 3.6604 15.1581 3.72042 14.3481 5.01042L12.5781 7.81041L18.2481 13.4804L21.0481 11.7104C22.2581 10.9404 22.3281 9.17039 21.1881 8.04039Z" fill="white" stroke="#92ABFE" stroke-width="1.5" stroke-linecap="round" stroke-linejoin="round"/>
<path d="M18.2486 13.4697L18.4886 17.5897C18.7186 19.8897 17.9186 20.6897 15.7386 20.9497L7.01865 21.9797C5.17865 22.1897 3.85864 20.8698 4.07864 19.0398L5.05864 10.7598" fill="white"/>
<path d="M18.2486 13.4697L18.4886 17.5897C18.7186 19.8897 17.9186 20.6897 15.7386 20.9497L7.01865 21.9797C5.17865 22.1897 3.85864 20.8698 4.07864 19.0398L5.05864 10.7598" stroke="#92ABFE" stroke-width="1.5" stroke-linecap="round" stroke-linejoin="round"/>
<path d="M12.5781 7.81116L10.8281 7.70117" stroke="#92ABFE" stroke-width="1.5" stroke-linecap="round" stroke-linejoin="round"/>
<path d="M5.28125 20.7799L8.46126 17.5898" stroke="#92ABFE" stroke-width="1.5" stroke-linecap="round" stroke-linejoin="round"/>
<path d="M11 6.5C11 6.91 10.94 7.32001 10.83 7.70001C10.72 8.10001 10.56 8.47001 10.35 8.82001C10.11 9.22001 9.81001 9.58 9.46001 9.88C8.67001 10.58 7.64 11 6.5 11C5.99 11 5.51 10.92 5.06 10.76C4.04 10.42 3.18999 9.72001 2.64999 8.82001C2.23999 8.14001 2 7.34 2 6.5C2 5.08 2.65 3.80999 3.69 2.98999C4.46 2.36999 5.44 2 6.5 2C8.99 2 11 4.01 11 6.5Z" stroke="#92ABFE" stroke-width="1.5" stroke-miterlimit="10" stroke-linecap="round" stroke-linejoin="round"/>
<path d="M6.51562 8.1803V4.82031" stroke="#92ABFE" stroke-width="1.5" stroke-miterlimit="10" stroke-linecap="round" stroke-linejoin="round"/>
<path d="M8.15688 6.5H4.79688" stroke="#92ABFE" stroke-width="1.5" stroke-miterlimit="10" stroke-linecap="round" stroke-linejoin="round"/>
</svg>
