<svg width="674" height="644" viewBox="0 0 674 644" fill="none" xmlns="http://www.w3.org/2000/svg">
<path d="M395.413 390.746C395.324 390.645 395.276 390.516 395.276 390.381C395.276 390.247 395.324 390.117 395.413 390.016L396.121 389.22C396.199 389.133 396.247 389.024 396.259 388.908C396.271 388.791 396.246 388.674 396.187 388.573L395.081 386.66C395.023 386.559 394.935 386.479 394.828 386.432C394.722 386.384 394.604 386.371 394.49 386.395L393.45 386.605C393.318 386.632 393.18 386.61 393.063 386.543C392.946 386.476 392.857 386.368 392.814 386.24L392.477 385.228C392.44 385.118 392.369 385.023 392.275 384.956C392.181 384.888 392.068 384.852 391.952 384.852H389.74C389.62 384.846 389.5 384.879 389.4 384.947C389.301 385.015 389.226 385.114 389.187 385.228L388.878 386.24C388.834 386.368 388.746 386.476 388.629 386.543C388.512 386.61 388.374 386.632 388.242 386.605L387.175 386.395C387.067 386.38 386.956 386.397 386.858 386.444C386.76 386.491 386.677 386.566 386.622 386.66L385.516 388.573C385.456 388.673 385.429 388.79 385.439 388.906C385.448 389.022 385.495 389.132 385.571 389.22L386.273 390.016C386.362 390.117 386.411 390.247 386.411 390.381C386.411 390.516 386.362 390.645 386.273 390.746L385.571 391.543C385.495 391.631 385.448 391.741 385.439 391.857C385.429 391.973 385.456 392.09 385.516 392.189L386.622 394.102C386.68 394.203 386.768 394.283 386.874 394.331C386.981 394.379 387.099 394.392 387.213 394.368L388.253 394.158C388.385 394.13 388.523 394.152 388.64 394.22C388.757 394.287 388.846 394.395 388.889 394.523L389.226 395.535C389.264 395.649 389.339 395.748 389.439 395.816C389.539 395.883 389.658 395.917 389.779 395.91H391.991C392.106 395.911 392.219 395.875 392.314 395.807C392.408 395.74 392.479 395.644 392.516 395.535L392.853 394.523C392.896 394.395 392.985 394.287 393.102 394.22C393.219 394.152 393.357 394.13 393.489 394.158L394.528 394.368C394.642 394.392 394.761 394.379 394.867 394.331C394.973 394.283 395.062 394.203 395.12 394.102L396.226 392.189C396.285 392.088 396.31 391.971 396.298 391.855C396.286 391.739 396.237 391.63 396.16 391.543L395.413 390.746ZM394.589 391.487L395.032 391.985L394.324 393.212L393.671 393.08C393.273 392.998 392.859 393.066 392.507 393.27C392.156 393.474 391.891 393.799 391.764 394.185L391.554 394.805H390.138L389.939 394.174C389.812 393.788 389.547 393.462 389.196 393.259C388.844 393.055 388.43 392.987 388.032 393.069L387.379 393.201L386.66 391.979L387.103 391.482C387.375 391.178 387.525 390.784 387.525 390.376C387.525 389.968 387.375 389.574 387.103 389.27L386.66 388.772L387.368 387.556L388.021 387.689C388.419 387.77 388.833 387.702 389.185 387.499C389.536 387.295 389.801 386.969 389.928 386.583L390.138 385.958H391.554L391.764 386.588C391.891 386.974 392.156 387.3 392.507 387.504C392.859 387.708 393.273 387.776 393.671 387.694L394.324 387.562L395.032 388.789L394.589 389.287C394.32 389.59 394.172 389.981 394.172 390.387C394.172 390.792 394.32 391.184 394.589 391.487ZM390.846 388.17C390.409 388.17 389.981 388.299 389.617 388.542C389.254 388.786 388.97 389.131 388.803 389.535C388.635 389.939 388.591 390.384 388.677 390.813C388.762 391.242 388.973 391.636 389.282 391.945C389.591 392.255 389.985 392.465 390.414 392.551C390.844 392.636 391.288 392.592 391.692 392.425C392.096 392.257 392.442 391.974 392.685 391.61C392.928 391.246 393.058 390.819 393.058 390.381C393.058 389.795 392.825 389.232 392.41 388.818C391.995 388.403 391.433 388.17 390.846 388.17ZM390.846 391.487C390.627 391.487 390.413 391.422 390.232 391.301C390.05 391.179 389.908 391.007 389.824 390.805C389.741 390.603 389.719 390.38 389.761 390.166C389.804 389.951 389.909 389.754 390.064 389.599C390.219 389.445 390.416 389.34 390.63 389.297C390.845 389.254 391.067 389.276 391.269 389.36C391.471 389.443 391.644 389.585 391.765 389.767C391.887 389.949 391.952 390.163 391.952 390.381C391.952 390.675 391.835 390.956 391.628 391.163C391.421 391.371 391.139 391.487 390.846 391.487Z" fill="#AC43FF"/>
<path d="M441.586 401.611C441.497 401.51 441.448 401.38 441.448 401.246C441.448 401.111 441.497 400.982 441.586 400.881L442.294 400.085C442.372 399.998 442.42 399.888 442.432 399.772C442.444 399.656 442.419 399.539 442.36 399.438L441.254 397.525C441.196 397.424 441.108 397.344 441.001 397.296C440.895 397.248 440.777 397.236 440.663 397.259L439.623 397.469C439.491 397.497 439.353 397.475 439.236 397.407C439.119 397.34 439.03 397.232 438.987 397.104L438.65 396.093C438.613 395.983 438.542 395.887 438.448 395.82C438.354 395.752 438.241 395.716 438.125 395.717H435.913C435.792 395.71 435.673 395.744 435.573 395.812C435.473 395.879 435.399 395.978 435.36 396.093L435.05 397.104C435.007 397.232 434.919 397.34 434.802 397.407C434.685 397.475 434.547 397.497 434.415 397.469L433.347 397.259C433.239 397.244 433.129 397.261 433.031 397.308C432.932 397.355 432.85 397.431 432.795 397.525L431.689 399.438C431.629 399.538 431.601 399.654 431.611 399.77C431.621 399.886 431.668 399.996 431.744 400.085L432.446 400.881C432.535 400.982 432.584 401.111 432.584 401.246C432.584 401.38 432.535 401.51 432.446 401.611L431.744 402.407C431.668 402.495 431.621 402.605 431.611 402.721C431.601 402.837 431.629 402.954 431.689 403.054L432.795 404.967C432.853 405.068 432.941 405.148 433.047 405.195C433.154 405.243 433.272 405.256 433.386 405.232L434.426 405.022C434.558 404.995 434.696 405.017 434.813 405.084C434.93 405.151 435.018 405.259 435.061 405.387L435.399 406.399C435.437 406.513 435.512 406.612 435.612 406.68C435.712 406.748 435.831 406.781 435.952 406.775H438.163C438.279 406.775 438.392 406.739 438.487 406.671C438.581 406.604 438.652 406.509 438.689 406.399L439.026 405.387C439.069 405.259 439.158 405.151 439.275 405.084C439.392 405.017 439.529 404.995 439.662 405.022L440.701 405.232C440.815 405.256 440.934 405.243 441.04 405.195C441.146 405.148 441.235 405.068 441.293 404.967L442.399 403.054C442.457 402.953 442.483 402.836 442.471 402.719C442.459 402.603 442.41 402.494 442.332 402.407L441.586 401.611ZM440.762 402.351L441.204 402.849L440.497 404.077L439.844 403.944C439.446 403.862 439.032 403.93 438.68 404.134C438.328 404.338 438.064 404.664 437.937 405.05L437.727 405.669H436.311L436.112 405.039C435.985 404.653 435.72 404.327 435.369 404.123C435.017 403.919 434.603 403.851 434.204 403.933L433.552 404.066L432.833 402.844L433.276 402.346C433.548 402.042 433.698 401.648 433.698 401.24C433.698 400.832 433.548 400.438 433.276 400.134L432.833 399.637L433.541 398.42L434.193 398.553C434.592 398.634 435.006 398.567 435.358 398.363C435.709 398.159 435.974 397.833 436.101 397.447L436.311 396.822H437.727L437.937 397.453C438.064 397.839 438.328 398.165 438.68 398.368C439.032 398.572 439.446 398.64 439.844 398.559L440.497 398.426L441.204 399.653L440.762 400.151C440.493 400.454 440.345 400.846 440.345 401.251C440.345 401.657 440.493 402.048 440.762 402.351ZM437.019 399.034C436.581 399.034 436.154 399.164 435.79 399.407C435.426 399.65 435.143 399.995 434.975 400.399C434.808 400.803 434.764 401.248 434.85 401.677C434.935 402.106 435.146 402.5 435.455 402.81C435.764 403.119 436.158 403.329 436.587 403.415C437.016 403.5 437.461 403.456 437.865 403.289C438.269 403.122 438.615 402.838 438.858 402.474C439.101 402.111 439.23 401.683 439.23 401.246C439.23 400.659 438.997 400.097 438.583 399.682C438.168 399.267 437.605 399.034 437.019 399.034ZM437.019 402.351C436.8 402.351 436.586 402.287 436.404 402.165C436.223 402.044 436.081 401.871 435.997 401.669C435.913 401.467 435.892 401.244 435.934 401.03C435.977 400.815 436.082 400.618 436.237 400.464C436.392 400.309 436.589 400.204 436.803 400.161C437.018 400.118 437.24 400.14 437.442 400.224C437.644 400.308 437.817 400.449 437.938 400.631C438.06 400.813 438.125 401.027 438.125 401.246C438.125 401.539 438.008 401.82 437.801 402.028C437.593 402.235 437.312 402.351 437.019 402.351Z" fill="#98B0FF"/>
<path d="M331.133 417.906C331.044 417.806 330.995 417.676 330.995 417.542C330.995 417.407 331.044 417.278 331.133 417.177L331.841 416.38C331.919 416.293 331.967 416.184 331.979 416.068C331.991 415.952 331.966 415.835 331.907 415.734L330.801 413.82C330.743 413.72 330.654 413.64 330.548 413.592C330.442 413.544 330.323 413.531 330.209 413.555L329.17 413.765C329.038 413.793 328.9 413.77 328.783 413.703C328.666 413.636 328.577 413.528 328.534 413.4L328.197 412.388C328.16 412.279 328.089 412.183 327.995 412.116C327.901 412.048 327.787 412.012 327.672 412.012H325.46C325.339 412.006 325.22 412.04 325.12 412.107C325.02 412.175 324.945 412.274 324.907 412.388L324.597 413.4C324.554 413.528 324.466 413.636 324.349 413.703C324.231 413.77 324.094 413.793 323.961 413.765L322.894 413.555C322.786 413.54 322.676 413.557 322.578 413.604C322.479 413.651 322.397 413.727 322.341 413.82L321.236 415.734C321.175 415.833 321.148 415.95 321.158 416.066C321.168 416.182 321.215 416.292 321.291 416.38L321.993 417.177C322.082 417.278 322.131 417.407 322.131 417.542C322.131 417.676 322.082 417.806 321.993 417.906L321.291 418.703C321.215 418.791 321.168 418.901 321.158 419.017C321.148 419.133 321.175 419.25 321.236 419.35L322.341 421.263C322.4 421.364 322.488 421.444 322.594 421.491C322.7 421.539 322.819 421.552 322.933 421.528L323.973 421.318C324.105 421.291 324.242 421.313 324.36 421.38C324.477 421.447 324.565 421.555 324.608 421.683L324.946 422.695C324.984 422.809 325.059 422.908 325.159 422.976C325.259 423.044 325.378 423.077 325.499 423.071H327.71C327.826 423.071 327.939 423.035 328.033 422.967C328.128 422.9 328.198 422.804 328.236 422.695L328.573 421.683C328.616 421.555 328.704 421.447 328.822 421.38C328.939 421.313 329.076 421.291 329.209 421.318L330.248 421.528C330.362 421.552 330.481 421.539 330.587 421.491C330.693 421.444 330.782 421.364 330.84 421.263L331.946 419.35C332.004 419.249 332.029 419.132 332.018 419.015C332.006 418.899 331.957 418.79 331.879 418.703L331.133 417.906ZM330.309 418.647L330.751 419.145L330.044 420.372L329.391 420.24C328.993 420.158 328.579 420.226 328.227 420.43C327.875 420.634 327.611 420.96 327.484 421.346L327.273 421.965H325.858L325.659 421.335C325.532 420.949 325.267 420.623 324.915 420.419C324.564 420.215 324.15 420.147 323.751 420.229L323.099 420.361L322.38 419.139L322.822 418.642C323.094 418.338 323.245 417.944 323.245 417.536C323.245 417.128 323.094 416.734 322.822 416.43L322.38 415.933L323.088 414.716L323.74 414.849C324.139 414.93 324.553 414.863 324.904 414.659C325.256 414.455 325.521 414.129 325.648 413.743L325.858 413.118H327.273L327.484 413.749C327.611 414.135 327.875 414.46 328.227 414.664C328.579 414.868 328.993 414.936 329.391 414.854L330.044 414.722L330.751 415.949L330.309 416.447C330.04 416.75 329.891 417.142 329.891 417.547C329.891 417.953 330.04 418.344 330.309 418.647ZM326.566 415.33C326.128 415.33 325.701 415.46 325.337 415.703C324.973 415.946 324.69 416.291 324.522 416.695C324.355 417.099 324.311 417.544 324.397 417.973C324.482 418.402 324.692 418.796 325.002 419.105C325.311 419.415 325.705 419.625 326.134 419.711C326.563 419.796 327.008 419.752 327.412 419.585C327.816 419.417 328.162 419.134 328.405 418.77C328.648 418.407 328.777 417.979 328.777 417.542C328.777 416.955 328.544 416.392 328.13 415.978C327.715 415.563 327.152 415.33 326.566 415.33ZM326.566 418.647C326.347 418.647 326.133 418.583 325.951 418.461C325.769 418.34 325.628 418.167 325.544 417.965C325.46 417.763 325.438 417.54 325.481 417.326C325.524 417.111 325.629 416.914 325.784 416.76C325.938 416.605 326.135 416.5 326.35 416.457C326.564 416.414 326.787 416.436 326.989 416.52C327.191 416.604 327.364 416.745 327.485 416.927C327.607 417.109 327.672 417.323 327.672 417.542C327.672 417.835 327.555 418.116 327.348 418.323C327.14 418.531 326.859 418.647 326.566 418.647Z" fill="#04177F"/>
<path d="M430.722 191.57C430.633 191.469 430.584 191.339 430.584 191.205C430.584 191.07 430.633 190.941 430.722 190.84L431.429 190.044C431.507 189.957 431.556 189.847 431.568 189.731C431.58 189.615 431.554 189.498 431.496 189.397L430.39 187.484C430.332 187.383 430.243 187.303 430.137 187.255C430.031 187.207 429.912 187.194 429.798 187.218L428.759 187.428C428.627 187.456 428.489 187.434 428.372 187.366C428.255 187.299 428.166 187.191 428.123 187.063L427.786 186.052C427.749 185.942 427.678 185.846 427.584 185.779C427.489 185.711 427.376 185.675 427.26 185.676H425.049C424.928 185.669 424.809 185.703 424.709 185.77C424.609 185.838 424.534 185.937 424.496 186.052L424.186 187.063C424.143 187.191 424.055 187.299 423.937 187.366C423.82 187.434 423.683 187.456 423.55 187.428L422.483 187.218C422.375 187.203 422.265 187.22 422.167 187.267C422.068 187.314 421.986 187.39 421.93 187.484L420.824 189.397C420.764 189.497 420.737 189.613 420.747 189.729C420.757 189.845 420.803 189.955 420.88 190.044L421.582 190.84C421.671 190.941 421.719 191.07 421.719 191.205C421.719 191.339 421.671 191.469 421.582 191.57L420.88 192.366C420.803 192.454 420.757 192.564 420.747 192.68C420.737 192.796 420.764 192.913 420.824 193.013L421.93 194.926C421.988 195.027 422.077 195.107 422.183 195.154C422.289 195.202 422.408 195.215 422.522 195.191L423.561 194.981C423.694 194.954 423.831 194.976 423.948 195.043C424.066 195.11 424.154 195.218 424.197 195.346L424.535 196.358C424.573 196.472 424.648 196.571 424.748 196.639C424.848 196.707 424.967 196.74 425.087 196.734H427.299C427.415 196.734 427.528 196.698 427.622 196.63C427.717 196.563 427.787 196.468 427.824 196.358L428.162 195.346C428.205 195.218 428.293 195.11 428.41 195.043C428.528 194.976 428.665 194.954 428.798 194.981L429.837 195.191C429.951 195.215 430.07 195.202 430.176 195.154C430.282 195.107 430.37 195.027 430.429 194.926L431.534 193.013C431.593 192.912 431.618 192.795 431.606 192.678C431.595 192.562 431.546 192.453 431.468 192.366L430.722 191.57ZM429.898 192.31L430.34 192.808L429.632 194.036L428.98 193.903C428.582 193.821 428.167 193.889 427.816 194.093C427.464 194.297 427.2 194.623 427.072 195.009L426.862 195.628H425.447L425.248 194.998C425.121 194.612 424.856 194.286 424.504 194.082C424.153 193.878 423.738 193.81 423.34 193.892L422.688 194.024L421.969 192.803L422.411 192.305C422.683 192.001 422.834 191.607 422.834 191.199C422.834 190.791 422.683 190.397 422.411 190.093L421.969 189.596L422.677 188.379L423.329 188.512C423.727 188.593 424.142 188.526 424.493 188.322C424.845 188.118 425.109 187.792 425.237 187.406L425.447 186.781H426.862L427.072 187.412C427.2 187.798 427.464 188.124 427.816 188.327C428.167 188.531 428.582 188.599 428.98 188.518L429.632 188.385L430.34 189.612L429.898 190.11C429.629 190.413 429.48 190.805 429.48 191.21C429.48 191.616 429.629 192.007 429.898 192.31ZM426.155 188.993C425.717 188.993 425.29 189.123 424.926 189.366C424.562 189.609 424.279 189.954 424.111 190.358C423.944 190.762 423.9 191.207 423.985 191.636C424.071 192.065 424.281 192.459 424.591 192.769C424.9 193.078 425.294 193.288 425.723 193.374C426.152 193.459 426.597 193.415 427.001 193.248C427.405 193.081 427.75 192.797 427.993 192.433C428.237 192.07 428.366 191.642 428.366 191.205C428.366 190.618 428.133 190.056 427.718 189.641C427.304 189.226 426.741 188.993 426.155 188.993ZM426.155 192.31C425.936 192.31 425.722 192.246 425.54 192.124C425.358 192.003 425.217 191.83 425.133 191.628C425.049 191.426 425.027 191.203 425.07 190.989C425.113 190.774 425.218 190.577 425.373 190.423C425.527 190.268 425.724 190.163 425.939 190.12C426.153 190.077 426.376 190.099 426.578 190.183C426.78 190.267 426.953 190.408 427.074 190.59C427.196 190.772 427.26 190.986 427.26 191.205C427.26 191.498 427.144 191.779 426.937 191.987C426.729 192.194 426.448 192.31 426.155 192.31Z" fill="#98B0FF"/>
<path d="M250.557 262.187C250.468 262.086 250.419 261.956 250.419 261.822C250.419 261.688 250.468 261.558 250.557 261.457L251.264 260.661C251.342 260.574 251.391 260.464 251.403 260.348C251.415 260.232 251.389 260.115 251.331 260.014L250.225 258.101C250.167 258 250.078 257.92 249.972 257.872C249.866 257.825 249.747 257.812 249.633 257.835L248.594 258.045C248.461 258.073 248.324 258.051 248.207 257.984C248.09 257.916 248.001 257.809 247.958 257.681L247.621 256.669C247.584 256.559 247.513 256.464 247.419 256.396C247.324 256.329 247.211 256.292 247.095 256.293H244.884C244.763 256.286 244.644 256.32 244.544 256.388C244.444 256.456 244.369 256.554 244.331 256.669L244.021 257.681C243.978 257.809 243.89 257.916 243.772 257.984C243.655 258.051 243.518 258.073 243.385 258.045L242.318 257.835C242.21 257.82 242.1 257.837 242.002 257.884C241.903 257.932 241.821 258.007 241.765 258.101L240.659 260.014C240.599 260.114 240.572 260.23 240.582 260.346C240.592 260.462 240.638 260.573 240.715 260.661L241.417 261.457C241.506 261.558 241.554 261.688 241.554 261.822C241.554 261.956 241.506 262.086 241.417 262.187L240.715 262.983C240.638 263.071 240.592 263.181 240.582 263.297C240.572 263.414 240.599 263.53 240.659 263.63L241.765 265.543C241.823 265.644 241.912 265.724 242.018 265.771C242.124 265.819 242.243 265.832 242.357 265.808L243.396 265.598C243.529 265.571 243.666 265.593 243.783 265.66C243.901 265.727 243.989 265.835 244.032 265.963L244.369 266.975C244.408 267.089 244.483 267.188 244.583 267.256C244.682 267.324 244.802 267.357 244.922 267.351H247.134C247.25 267.351 247.363 267.315 247.457 267.248C247.552 267.18 247.622 267.085 247.659 266.975L247.997 265.963C248.04 265.835 248.128 265.727 248.245 265.66C248.362 265.593 248.5 265.571 248.632 265.598L249.672 265.808C249.786 265.832 249.905 265.819 250.011 265.771C250.117 265.724 250.205 265.644 250.264 265.543L251.369 263.63C251.428 263.529 251.453 263.412 251.441 263.296C251.429 263.179 251.381 263.07 251.303 262.983L250.557 262.187ZM249.733 262.928L250.175 263.425L249.467 264.653L248.815 264.52C248.417 264.439 248.002 264.506 247.651 264.71C247.299 264.914 247.035 265.24 246.907 265.626L246.697 266.245H245.282L245.083 265.615C244.955 265.229 244.691 264.903 244.339 264.699C243.988 264.495 243.573 264.428 243.175 264.509L242.523 264.642L241.804 263.42L242.246 262.922C242.518 262.618 242.669 262.224 242.669 261.816C242.669 261.408 242.518 261.015 242.246 260.71L241.804 260.213L242.512 258.996L243.164 259.129C243.562 259.211 243.977 259.143 244.328 258.939C244.68 258.735 244.944 258.409 245.072 258.023L245.282 257.399H246.697L246.907 258.029C247.035 258.415 247.299 258.741 247.651 258.945C248.002 259.148 248.417 259.216 248.815 259.135L249.467 259.002L250.175 260.229L249.733 260.727C249.464 261.03 249.315 261.422 249.315 261.827C249.315 262.233 249.464 262.624 249.733 262.928ZM245.99 259.61C245.552 259.61 245.124 259.74 244.761 259.983C244.397 260.226 244.114 260.571 243.946 260.975C243.779 261.38 243.735 261.824 243.82 262.253C243.906 262.682 244.116 263.076 244.426 263.386C244.735 263.695 245.129 263.906 245.558 263.991C245.987 264.076 246.432 264.033 246.836 263.865C247.24 263.698 247.585 263.414 247.828 263.051C248.071 262.687 248.201 262.259 248.201 261.822C248.201 261.235 247.968 260.673 247.553 260.258C247.139 259.843 246.576 259.61 245.99 259.61ZM245.99 262.928C245.771 262.928 245.557 262.863 245.375 262.741C245.193 262.62 245.052 262.447 244.968 262.245C244.884 262.043 244.862 261.821 244.905 261.606C244.948 261.392 245.053 261.195 245.208 261.04C245.362 260.885 245.559 260.78 245.774 260.737C245.988 260.695 246.211 260.716 246.413 260.8C246.615 260.884 246.787 261.026 246.909 261.207C247.03 261.389 247.095 261.603 247.095 261.822C247.095 262.115 246.979 262.396 246.771 262.604C246.564 262.811 246.283 262.928 245.99 262.928Z" fill="#58FF4A"/>
<g filter="url(#filter0_f_831_27163)">
<ellipse cx="337" cy="295.222" rx="110" ry="122.222" fill="#48C7FF"/>
</g>
<path d="M337.262 357.551C350.03 353.602 360.692 345.804 369.248 334.157C377.804 322.51 382.806 309.51 384.254 295.157H337.262V232.961L289.874 250.731V291.603C289.874 292.524 290.006 293.709 290.269 295.157H337.262V357.551ZM337.262 373.347C336.34 373.347 335.485 373.281 334.695 373.149C333.905 373.017 333.115 372.82 332.325 372.557C314.555 366.633 300.405 355.676 289.874 339.686C279.343 323.695 274.078 306.483 274.078 288.049V250.731C274.078 247.44 275.034 244.479 276.945 241.846C278.856 239.213 281.323 237.305 284.345 236.12L331.733 218.35C333.576 217.691 335.419 217.362 337.262 217.362C339.104 217.362 340.947 217.691 342.79 218.35L390.178 236.12C393.205 237.305 395.675 239.213 397.586 241.846C399.497 244.479 400.45 247.44 400.445 250.731V288.049C400.445 306.477 395.18 323.69 384.649 339.686C374.119 355.681 359.968 366.639 342.198 372.557C341.408 372.82 340.618 373.017 339.828 373.149C339.039 373.281 338.183 373.347 337.262 373.347Z" fill="url(#paint0_linear_831_27163)"/>
<circle cx="436.136" cy="304.276" r="4.52675" fill="#1DFFFF" fill-opacity="0.84"/>
<circle cx="395.395" cy="217.362" r="3.6214" stroke="#1DFFFF" stroke-opacity="0.84" stroke-width="1.8107"/>
<circle cx="263.214" cy="335.962" r="4.52675" fill="#1DFFFF" fill-opacity="0.84"/>
<circle cx="263.214" cy="373.988" r="3.6214" stroke="#1DFFFF" stroke-opacity="0.84" stroke-width="1.8107"/>
<defs>
<filter id="filter0_f_831_27163" x="0.662552" y="-53.3374" width="672.675" height="697.119" filterUnits="userSpaceOnUse" color-interpolation-filters="sRGB">
<feFlood flood-opacity="0" result="BackgroundImageFix"/>
<feBlend mode="normal" in="SourceGraphic" in2="BackgroundImageFix" result="shape"/>
<feGaussianBlur stdDeviation="113.169" result="effect1_foregroundBlur_831_27163"/>
</filter>
<linearGradient id="paint0_linear_831_27163" x1="395.848" y1="242.712" x2="293.543" y2="345.017" gradientUnits="userSpaceOnUse">
<stop stop-color="#416DFF"/>
<stop offset="1" stop-color="#173963"/>
</linearGradient>
</defs>
</svg>
