<svg width="64" height="64" viewBox="0 0 64 64" fill="none" xmlns="http://www.w3.org/2000/svg">
<path d="M48 16C46.3734 16 44.88 15.0666 44.1334 13.6266L42.2134 9.75998C40.9867 7.33331 37.7867 5.33331 35.0667 5.33331H28.96C26.2134 5.33331 23.0134 7.33331 21.7867 9.75998L19.8667 13.6266C19.12 15.0666 17.6267 16 16 16C10.2134 16 5.62671 20.88 6.00004 26.64L7.38671 48.6666C7.70671 54.16 10.6667 58.6666 18.0267 58.6666H45.9734C53.3334 58.6666 56.2667 54.16 56.6134 48.6666L58 26.64C58.3734 20.88 53.7867 16 48 16ZM28 19.3333H36C37.0934 19.3333 38 20.24 38 21.3333C38 22.4266 37.0934 23.3333 36 23.3333H28C26.9067 23.3333 26 22.4266 26 21.3333C26 20.24 26.9067 19.3333 28 19.3333ZM32 48.32C27.04 48.32 22.9867 44.2933 22.9867 39.3066C22.9867 34.32 27.0134 30.2933 32 30.2933C36.9867 30.2933 41.0134 34.32 41.0134 39.3066C41.0134 44.2933 36.96 48.32 32 48.32Z" fill="#92ABFE"/>
</svg>
