<svg width="14" height="14" viewBox="0 0 14 14" fill="none" xmlns="http://www.w3.org/2000/svg">
<path opacity="0.4" d="M6.99935 12.8339C10.221 12.8339 12.8327 10.2222 12.8327 7.00057C12.8327 3.77891 10.221 1.16724 6.99935 1.16724C3.77769 1.16724 1.16602 3.77891 1.16602 7.00057C1.16602 10.2222 3.77769 12.8339 6.99935 12.8339Z" fill="#92ABFE"/>
<path d="M7.61732 7.00033L8.95898 5.65866C9.12815 5.48949 9.12815 5.20949 8.95898 5.04033C8.78982 4.87116 8.50982 4.87116 8.34065 5.04033L6.99898 6.38199L5.65732 5.04033C5.48815 4.87116 5.20815 4.87116 5.03898 5.04033C4.86982 5.20949 4.86982 5.48949 5.03898 5.65866L6.38065 7.00033L5.03898 8.34199C4.86982 8.51116 4.86982 8.79116 5.03898 8.96033C5.12648 9.04783 5.23732 9.08866 5.34815 9.08866C5.45898 9.08866 5.56982 9.04783 5.65732 8.96033L6.99898 7.61866L8.34065 8.96033C8.42815 9.04783 8.53898 9.08866 8.64982 9.08866C8.76065 9.08866 8.87148 9.04783 8.95898 8.96033C9.12815 8.79116 9.12815 8.51116 8.95898 8.34199L7.61732 7.00033Z" fill="#92ABFE"/>
</svg>
