<svg width="12" height="12" viewBox="0 0 12 12" fill="none" xmlns="http://www.w3.org/2000/svg">
<path opacity="0.4" d="M8.095 1H3.905C2.085 1 1 2.085 1 3.905V8.09C1 9.915 2.085 11 3.905 11H8.09C9.91 11 10.995 9.915 10.995 8.095V3.905C11 2.085 9.915 1 8.095 1Z" fill="#92ABFE"/>
<path d="M5.37003 8.13996C5.27503 8.13996 5.18003 8.10496 5.10503 8.02996C4.96003 7.88496 4.96003 7.64496 5.10503 7.49996L6.60503 5.99996L5.10503 4.49996C4.96003 4.35496 4.96003 4.11496 5.10503 3.96996C5.25003 3.82496 5.49003 3.82496 5.63503 3.96996L7.40003 5.73496C7.54503 5.87996 7.54503 6.11996 7.40003 6.26496L5.63503 8.02996C5.56003 8.10496 5.46503 8.13996 5.37003 8.13996Z" fill="#92ABFE"/>
</svg>
