<svg width="64" height="64" viewBox="0 0 64 64" fill="none" xmlns="http://www.w3.org/2000/svg">
<path opacity="0.4" d="M58.6666 20.8266V37.0666L54.3199 33.3333C52.2399 31.5466 48.8799 31.5466 46.7999 33.3333L35.7066 42.8533C33.6266 44.64 30.2666 44.64 28.1866 42.8533L27.2799 42.1066C25.3866 40.4533 22.3733 40.2933 20.2399 41.7333L7.11992 50.5333L6.82659 50.7467C5.83992 48.6133 5.33325 46.08 5.33325 43.1733V20.8266C5.33325 11.12 11.1199 5.33331 20.8266 5.33331H43.1733C52.8799 5.33331 58.6666 11.12 58.6666 20.8266Z" fill="#92ABFE"/>
<path d="M24 27.68C27.5052 27.68 30.3467 24.8385 30.3467 21.3334C30.3467 17.8282 27.5052 14.9867 24 14.9867C20.4948 14.9867 17.6533 17.8282 17.6533 21.3334C17.6533 24.8385 20.4948 27.68 24 27.68Z" fill="#92ABFE"/>
<path d="M58.6667 37.0667V43.1733C58.6667 52.88 52.88 58.6667 43.1733 58.6667H20.8267C14.0267 58.6667 9.11999 55.8134 6.82666 50.7467L7.11999 50.5333L20.24 41.7333C22.3733 40.2933 25.3867 40.4533 27.28 42.1067L28.1867 42.8533C30.2667 44.64 33.6267 44.64 35.7067 42.8533L46.8 33.3333C48.88 31.5467 52.24 31.5467 54.32 33.3333L58.6667 37.0667Z" fill="#92ABFE"/>
</svg>
