<svg width="294" height="232" viewBox="0 0 294 232" fill="none" xmlns="http://www.w3.org/2000/svg">
<path d="M218.496 130.597C248.341 130.597 272.534 106.404 272.534 76.5592C272.534 46.7147 248.341 22.521 218.496 22.521C188.652 22.521 164.458 46.7147 164.458 76.5592C164.458 106.404 188.652 130.597 218.496 130.597Z" fill="#DBE8EC"/>
<path d="M272.812 122.732V114.504C272.812 113.727 272.659 112.958 272.362 112.24C272.064 111.522 271.629 110.87 271.079 110.321C270.53 109.771 269.878 109.336 269.16 109.038C268.442 108.741 267.673 108.588 266.896 108.588H250.538C248.969 108.588 247.464 107.965 246.355 106.855C245.245 105.746 244.622 104.241 244.622 102.672V94.4441C244.622 91.1768 251.794 88.5281 255.061 88.5281H255.72C257.289 88.5281 258.794 87.9049 259.903 86.7954C261.013 85.6859 261.636 84.1812 261.636 82.6122V74.3842C261.636 72.8152 261.013 71.3105 259.903 70.201C258.794 69.0915 257.289 68.4683 255.72 68.4683H55.8422C55.0653 68.4683 54.296 68.6213 53.5783 68.9186C52.8605 69.2159 52.2084 69.6517 51.659 70.201C51.1097 70.7503 50.6739 71.4025 50.3766 72.1203C50.0793 72.838 49.9263 73.6073 49.9263 74.3842V82.6122C49.9263 83.3891 50.0793 84.1584 50.3766 84.8761C50.6739 85.5939 51.1097 86.2461 51.659 86.7954C52.2084 87.3447 52.8605 87.7805 53.5783 88.0778C54.296 88.3751 55.0653 88.5281 55.8422 88.5281C56.6191 88.5281 57.3884 88.6812 58.1061 88.9785C58.8239 89.2758 59.4761 89.7115 60.0254 90.2609C60.5748 90.8102 61.0105 91.4624 61.3078 92.1801C61.6051 92.8979 61.7582 93.6672 61.7582 94.4441V102.672C61.7582 104.241 61.1349 105.746 60.0254 106.855C58.916 107.965 57.4112 108.588 55.8422 108.588H32.9648C31.3958 108.588 29.891 109.211 28.7816 110.321C27.6721 111.43 27.0488 112.935 27.0488 114.504V122.732C27.0488 124.301 27.6721 125.806 28.7816 126.915C29.891 128.025 31.3958 128.648 32.9648 128.648H41.9415C42.7184 128.648 43.4877 128.801 44.2055 129.098C44.9232 129.396 45.5754 129.831 46.1247 130.381C46.6741 130.93 47.1098 131.582 47.4071 132.3C47.7044 133.018 47.8575 133.787 47.8575 134.564V142.792C47.8575 144.361 47.2342 145.866 46.1247 146.975C45.0153 148.085 43.5105 148.708 41.9415 148.708H41.9198C40.3508 148.708 38.8461 149.331 37.7366 150.441C36.6272 151.55 36.0039 153.055 36.0039 154.624V162.852C36.0039 164.421 36.6272 165.925 37.7366 167.035C38.8461 168.144 40.3508 168.768 41.9198 168.768H43.2186C44.7876 168.768 46.2923 169.391 47.4018 170.5C48.5112 171.61 49.1345 173.115 49.1345 174.684V182.912C49.1345 183.689 48.9815 184.458 48.6842 185.176C48.3869 185.893 47.9511 186.545 47.4018 187.095C46.8524 187.644 46.2003 188.08 45.4825 188.377C44.7648 188.675 43.9955 188.828 43.2186 188.828H35.473C33.904 188.828 32.3993 189.451 31.2898 190.56C30.1804 191.67 29.5571 193.174 29.5571 194.743V202.971C29.5571 204.54 30.1804 206.045 31.2898 207.155C32.3993 208.264 33.904 208.887 35.473 208.887H254.373C255.942 208.887 257.447 208.264 258.556 207.155C259.666 206.045 260.289 204.54 260.289 202.971V194.743C260.289 193.174 259.666 191.67 258.556 190.56C257.447 189.451 255.942 188.828 254.373 188.828H249.244C248.467 188.828 247.698 188.675 246.98 188.377C246.262 188.08 245.61 187.644 245.061 187.095C244.511 186.545 244.076 185.893 243.778 185.176C243.481 184.458 243.328 183.688 243.328 182.912V174.684C243.328 173.115 243.951 171.61 245.061 170.5C246.17 169.391 247.675 168.768 249.244 168.768H261.338C262.907 168.768 264.412 168.144 265.522 167.035C266.631 165.925 267.254 164.421 267.254 162.852V154.624C267.254 153.847 267.101 153.078 266.804 152.36C266.507 151.642 266.071 150.99 265.522 150.441C264.972 149.891 264.32 149.455 263.602 149.158C262.885 148.861 262.115 148.708 261.338 148.708H257.67C256.893 148.708 256.123 148.555 255.406 148.257C254.688 147.96 254.036 147.524 253.486 146.975C252.937 146.426 252.501 145.774 252.204 145.056C251.907 144.338 251.754 143.569 251.754 142.792V134.564C251.754 132.995 252.377 131.49 253.486 130.381C254.596 129.271 256.101 128.648 257.67 128.648H266.896C267.673 128.648 268.442 128.495 269.16 128.198C269.878 127.9 270.53 127.464 271.079 126.915C271.629 126.366 272.064 125.714 272.362 124.996C272.659 124.278 272.812 123.509 272.812 122.732Z" fill="#DBE8EC"/>
<path d="M212.829 76.1405C189.781 75.7506 166.805 69.1743 145.963 56.8965C125.14 69.1743 102.164 75.7506 79.1112 76.1405C74.4131 126.292 89.5914 186.639 145.963 209.06C202.354 186.639 217.475 126.292 212.829 76.1405Z" fill="#409CB5"/>
<path d="M197.126 89.4877C179.491 89.1893 161.91 84.1573 145.962 74.7627C130.029 84.1573 112.448 89.1893 94.8089 89.4877C91.2141 127.863 102.828 174.038 145.962 191.194C189.111 174.038 200.681 127.863 197.126 89.4877Z" fill="#DBE8EC"/>
<path d="M219.829 107.847C238.101 107.847 252.914 93.0348 252.914 74.7625C252.914 56.4903 238.101 41.6777 219.829 41.6777C201.557 41.6777 186.744 56.4903 186.744 74.7625C186.744 93.0348 201.557 107.847 219.829 107.847Z" fill="#EE781D"/>
<path d="M220.786 87.7203H203.389C203.053 87.7203 202.723 87.6319 202.432 87.464C202.141 87.2961 201.9 87.0545 201.732 86.7637C201.564 86.4729 201.476 86.1429 201.476 85.8071C201.476 85.4713 201.564 85.1414 201.732 84.8505L210.43 69.7842L219.129 54.7178C219.297 54.427 219.538 54.1855 219.829 54.0175C220.12 53.8496 220.45 53.7612 220.786 53.7612C221.122 53.7612 221.452 53.8496 221.742 54.0175C222.033 54.1855 222.275 54.427 222.443 54.7178L231.141 69.7842L239.84 84.8505C240.008 85.1414 240.096 85.4713 240.096 85.8071C240.096 86.143 240.008 86.4729 239.84 86.7637C239.672 87.0546 239.43 87.2961 239.14 87.464C238.849 87.6319 238.519 87.7203 238.183 87.7203L220.786 87.7203Z" fill="#F9AE2B"/>
<path d="M221.742 62.8062C221.742 62.2776 221.314 61.8491 220.785 61.8491C220.257 61.8491 219.828 62.2776 219.828 62.8062V77.074C219.828 77.6025 220.257 78.031 220.785 78.031C221.314 78.031 221.742 77.6025 221.742 77.074V62.8062Z" fill="#409CB5"/>
<path d="M223.065 82.8308C223.19 81.5724 222.271 80.4512 221.012 80.3266C219.754 80.202 218.632 81.1211 218.508 82.3796C218.383 83.638 219.302 84.7592 220.561 84.8838C221.819 85.0084 222.941 84.0893 223.065 82.8308Z" fill="#409CB5"/>
<path d="M137.425 125.196V113.575C137.425 112.409 137.656 111.255 138.105 110.18C138.553 109.104 139.211 108.128 140.039 107.308C140.867 106.488 141.849 105.84 142.929 105.402C144.008 104.963 145.164 104.743 146.33 104.754H147.299C148.464 104.743 149.62 104.962 150.7 105.401C151.78 105.839 152.763 106.487 153.591 107.307C154.419 108.127 155.076 109.103 155.524 110.179C155.973 111.255 156.203 112.409 156.203 113.575V117.49C156.205 117.752 156.31 118.003 156.495 118.19C156.68 118.376 156.931 118.482 157.193 118.485L161.882 118.507C162.014 118.507 162.144 118.482 162.265 118.432C162.386 118.382 162.497 118.309 162.59 118.216C162.683 118.124 162.756 118.014 162.807 117.893C162.857 117.772 162.883 117.642 162.883 117.511V114.222C162.884 112.205 162.487 110.207 161.714 108.344C160.942 106.48 159.81 104.787 158.383 103.361C156.955 101.935 155.261 100.805 153.396 100.035C151.532 99.2648 149.534 98.8698 147.516 98.8726H146.112C144.095 98.8708 142.098 99.2665 140.234 100.037C138.37 100.808 136.676 101.938 135.25 103.364C133.823 104.789 132.691 106.482 131.919 108.345C131.147 110.208 130.75 112.206 130.75 114.222V125.507L137.425 125.196Z" fill="#EE781D"/>
<path d="M165.102 158.615C166.276 158.612 167.4 158.145 168.23 157.315C169.06 156.485 169.528 155.36 169.531 154.186V128.997C169.528 127.824 169.06 126.699 168.23 125.869C167.4 125.039 166.276 124.571 165.102 124.568H128.531C127.358 124.571 126.233 125.039 125.403 125.869C124.573 126.699 124.105 127.824 124.103 128.997V154.186C124.105 155.36 124.573 156.485 125.403 157.315C126.233 158.145 127.358 158.612 128.531 158.615H165.102Z" fill="#F9AE2B"/>
<path d="M146.817 133.208C145.56 133.213 144.355 133.714 143.466 134.603C142.577 135.493 142.076 136.697 142.072 137.955C142.094 138.669 142.279 139.368 142.614 139.999C142.948 140.63 143.423 141.176 144.001 141.595V147.164C144.001 147.911 144.298 148.627 144.826 149.155C145.354 149.684 146.07 149.98 146.817 149.98C147.564 149.98 148.28 149.684 148.808 149.155C149.336 148.627 149.633 147.911 149.633 147.164V141.595C150.211 141.175 150.685 140.629 151.019 139.998C151.353 139.367 151.539 138.668 151.562 137.955C151.558 136.697 151.057 135.493 150.168 134.603C149.279 133.714 148.075 133.213 146.817 133.208Z" fill="#EE781D"/>
<path d="M56.6504 119.736H70.3646" stroke="#B9D4DB" stroke-width="1.35692" stroke-miterlimit="10"/>
<path d="M56.6504 123.689H70.3646" stroke="#B9D4DB" stroke-width="1.35692" stroke-miterlimit="10"/>
<path d="M56.6504 127.642H70.3646" stroke="#B9D4DB" stroke-width="1.35692" stroke-miterlimit="10"/>
<path d="M248.814 35.1719H262.529" stroke="#B9D4DB" stroke-width="1.35692" stroke-miterlimit="10"/>
<path d="M248.814 39.1245H262.529" stroke="#B9D4DB" stroke-width="1.35692" stroke-miterlimit="10"/>
<path d="M248.814 43.0776H262.529" stroke="#B9D4DB" stroke-width="1.35692" stroke-miterlimit="10"/>
<path d="M223.075 134.725H236.789" stroke="#B9D4DB" stroke-width="1.35692" stroke-miterlimit="10"/>
<path d="M223.075 138.678H236.789" stroke="#B9D4DB" stroke-width="1.35692" stroke-miterlimit="10"/>
<path d="M223.075 142.63H236.789" stroke="#B9D4DB" stroke-width="1.35692" stroke-miterlimit="10"/>
<path d="M103.514 62.1073C107.366 62.1073 110.488 58.9847 110.488 55.1327C110.488 51.2808 107.366 48.1582 103.514 48.1582C99.6617 48.1582 96.5391 51.2808 96.5391 55.1327C96.5391 58.9847 99.6617 62.1073 103.514 62.1073Z" fill="#B9D4DB"/>
<path d="M105.261 44.6501C107.267 44.6501 108.894 43.0236 108.894 41.0172C108.894 39.0108 107.267 37.3843 105.261 37.3843C103.254 37.3843 101.628 39.0108 101.628 41.0172C101.628 43.0236 103.254 44.6501 105.261 44.6501Z" fill="#B9D4DB"/>
<path d="M118.047 43.4992C119.204 43.4992 120.142 42.561 120.142 41.4037C120.142 40.2463 119.204 39.3081 118.047 39.3081C116.889 39.3081 115.951 40.2463 115.951 41.4037C115.951 42.561 116.889 43.4992 118.047 43.4992Z" fill="#B9D4DB"/>
<path d="M119.291 58.0564C122.066 58.0564 124.315 55.8073 124.315 53.0328C124.315 50.2584 122.066 48.0093 119.291 48.0093C116.517 48.0093 114.268 50.2584 114.268 53.0328C114.268 55.8073 116.517 58.0564 119.291 58.0564Z" fill="#B9D4DB"/>
<path d="M203.584 200.807C207.436 200.807 210.558 197.685 210.558 193.833C210.558 189.981 207.436 186.858 203.584 186.858C199.732 186.858 196.609 189.981 196.609 193.833C196.609 197.685 199.732 200.807 203.584 200.807Z" fill="#B9D4DB"/>
<path d="M193.831 187.113C195.838 187.113 197.464 185.487 197.464 183.481C197.464 181.474 195.838 179.848 193.831 179.848C191.825 179.848 190.198 181.474 190.198 183.481C190.198 185.487 191.825 187.113 193.831 187.113Z" fill="#B9D4DB"/>
<path d="M202.288 175.978C203.445 175.978 204.384 175.04 204.384 173.883C204.384 172.725 203.445 171.787 202.288 171.787C201.131 171.787 200.192 172.725 200.192 173.883C200.192 175.04 201.131 175.978 202.288 175.978Z" fill="#B9D4DB"/>
<path d="M212.035 185.369C214.81 185.369 217.059 183.12 217.059 180.346C217.059 177.571 214.81 175.322 212.035 175.322C209.261 175.322 207.012 177.571 207.012 180.346C207.012 183.12 209.261 185.369 212.035 185.369Z" fill="#B9D4DB"/>
<path d="M69.6396 189.83C73.4915 189.83 76.6141 186.708 76.6141 182.856C76.6141 179.004 73.4915 175.881 69.6396 175.881C65.7876 175.881 62.665 179.004 62.665 182.856C62.665 186.708 65.7876 189.83 69.6396 189.83Z" fill="#B9D4DB"/>
<path d="M59.8868 176.136C61.8932 176.136 63.5197 174.51 63.5197 172.504C63.5197 170.497 61.8932 168.871 59.8868 168.871C57.8804 168.871 56.2539 170.497 56.2539 172.504C56.2539 174.51 57.8804 176.136 59.8868 176.136Z" fill="#B9D4DB"/>
<path d="M68.3436 165.001C69.501 165.001 70.4392 164.063 70.4392 162.906C70.4392 161.748 69.501 160.81 68.3436 160.81C67.1863 160.81 66.248 161.748 66.248 162.906C66.248 164.063 67.1863 165.001 68.3436 165.001Z" fill="#B9D4DB"/>
<path d="M78.09 174.392C80.8644 174.392 83.1135 172.143 83.1135 169.368C83.1135 166.594 80.8644 164.345 78.09 164.345C75.3155 164.345 73.0664 166.594 73.0664 169.368C73.0664 172.143 75.3155 174.392 78.09 174.392Z" fill="#B9D4DB"/>
</svg>
