<svg width="62" height="62" viewBox="0 0 62 62" fill="none" xmlns="http://www.w3.org/2000/svg">
<path d="M31 36.1665C18.0575 36.1665 7.5175 44.8465 7.5175 55.5415C7.5175 56.2648 8.08584 56.8332 8.80917 56.8332H53.1908C53.9142 56.8332 54.4825 56.2648 54.4825 55.5415C54.4825 44.8465 43.9425 36.1665 31 36.1665Z" fill="#DE392F"/>
<path d="M43.5292 14.9836C43.2192 13.7177 42.7025 12.4777 41.9792 11.3411C41.4883 10.5144 40.8425 9.68772 40.145 8.96439C37.82 6.63939 34.7975 5.37355 31.6975 5.21855C28.1842 4.98605 24.5933 6.27772 21.8808 8.96439C19.3233 11.4961 18.0317 14.8802 18.0833 18.2902C18.1092 21.5194 19.4008 24.7486 21.855 27.2286C23.56 28.9336 25.6525 30.0702 27.9 30.5869C29.1142 30.8969 30.4058 31.0519 31.6975 30.9486C34.7717 30.8194 37.7683 29.6052 40.1192 27.2286C43.4517 23.8961 44.5883 19.2202 43.5292 14.9836ZM36.1667 23.2502C35.2367 24.1802 33.6867 24.1802 32.7567 23.2502L30.9742 21.4677L29.2692 23.1727C28.3392 24.1027 26.7892 24.1027 25.8592 23.1727C24.9033 22.2169 24.9033 20.6927 25.8333 19.7627L27.5383 18.0577L25.885 16.4561C24.955 15.5002 24.955 13.9761 25.885 12.9944C26.8408 12.0644 28.365 12.0644 29.3467 12.9944L30.9483 14.6477L32.6792 12.9169C33.6092 11.9869 35.1333 11.9869 36.0892 12.9169C37.0192 13.8469 37.0192 15.3969 36.0892 16.3269L34.3842 18.0319L36.1667 19.8402C37.0967 20.7702 37.0967 22.3202 36.1667 23.2502Z" fill="#DE392F"/>
</svg>
