<svg width="87" height="73" viewBox="0 0 87 73" fill="none" xmlns="http://www.w3.org/2000/svg">
<g id="id card-passport-badge">
<path id="Vector" d="M83.8726 17.085H3.10639C1.39078 17.085 0 18.4757 0 20.1914V69.8937C0 71.6093 1.39078 73 3.10639 73H83.8726C85.5882 73 86.979 71.6093 86.979 69.8937V20.1914C86.979 18.4757 85.5882 17.085 83.8726 17.085Z" fill="#57A4FF"/>
<path id="Vector_2" d="M35.7227 0V23.298H51.2546V0H35.7227ZM43.4886 10.8724C42.8743 10.8724 42.2737 10.6902 41.7628 10.3489C41.252 10.0075 40.8538 9.52237 40.6187 8.95475C40.3836 8.38713 40.3221 7.76254 40.4419 7.15996C40.5618 6.55738 40.8577 6.00387 41.2921 5.56943C41.7265 5.13499 42.28 4.83914 42.8826 4.71928C43.4852 4.59942 44.1098 4.66093 44.6774 4.89605C45.245 5.13117 45.7302 5.52932 46.0715 6.04016C46.4129 6.55101 46.595 7.1516 46.595 7.76598C46.5926 8.5891 46.2645 9.37779 45.6825 9.95982C45.1004 10.5419 44.3118 10.8699 43.4886 10.8724Z" fill="#E0E0E2"/>
<path id="Vector_3" d="M46.5966 15.5317H40.3838V18.6381H46.5966V15.5317Z" fill="#2488FF"/>
<path id="Vector_4" d="M82.3186 29.5107H35.7227V32.6171H82.3186V29.5107Z" fill="white"/>
<path id="Vector_5" d="M82.3186 37.2769H35.7227V40.3832H82.3186V37.2769Z" fill="white"/>
<path id="Vector_6" d="M51.2546 45.043H35.7227V48.1494H51.2546V45.043Z" fill="white"/>
<path id="Vector_7" d="M52.8083 23.2983H37.2764V24.8515H52.8083V23.2983Z" fill="#005ECE"/>
<path id="Vector_8" d="M52.8086 17.085H51.2554V24.8509H52.8086V17.085Z" fill="#005ECE"/>
</g>
</svg>
