<svg width="197" height="200" viewBox="0 0 197 200" fill="none" xmlns="http://www.w3.org/2000/svg">
<rect width="197" height="200" fill="#AAAAAA"/>
<g id="DESK - TOP UP - ADD MONEY - FIAT PAGE" clip-path="url(#clip0_0_1)">
<rect width="1440" height="1557" transform="translate(-739 -668)" fill="white"/>
<g id="Frame 758532567">
<g id="Frame 758532564">
<g id="Frame 758532361">
<g id="Frame 758532178">
<rect x="-334.8" y="117.2" width="374.6" height="50.6" fill="white"/>
<rect x="-334.8" y="117.2" width="374.6" height="50.6" stroke="#9C9C9C" stroke-width="0.4"/>
</g>
</g>
<g id="Frame 758532550">
<g id="Frame 758532527">
<g id="Frame 758532194">
<path id="Gender" d="M70.88 94.192C70.624 93.7227 70.272 93.3653 69.824 93.12C69.376 92.8747 68.8533 92.752 68.256 92.752C67.5947 92.752 67.008 92.9013 66.496 93.2C65.984 93.4987 65.584 93.9253 65.296 94.48C65.008 95.0347 64.864 95.6747 64.864 96.4C64.864 97.1467 65.008 97.7973 65.296 98.352C65.5947 98.9067 66.0053 99.3333 66.528 99.632C67.0507 99.9307 67.6587 100.08 68.352 100.08C69.2053 100.08 69.904 99.856 70.448 99.408C70.992 98.9493 71.3493 98.3147 71.52 97.504H67.68V95.792H73.728V97.744C73.5787 98.5227 73.2587 99.2427 72.768 99.904C72.2773 100.565 71.6427 101.099 70.864 101.504C70.096 101.899 69.232 102.096 68.272 102.096C67.1947 102.096 66.2187 101.856 65.344 101.376C64.48 100.885 63.7973 100.208 63.296 99.344C62.8053 98.48 62.56 97.4987 62.56 96.4C62.56 95.3013 62.8053 94.32 63.296 93.456C63.7973 92.5813 64.48 91.904 65.344 91.424C66.2187 90.9333 67.1893 90.688 68.256 90.688C69.5147 90.688 70.608 90.9973 71.536 91.616C72.464 92.224 73.104 93.0827 73.456 94.192H70.88ZM83.6253 97.376C83.6253 97.696 83.6039 97.984 83.5613 98.24H77.0813C77.1346 98.88 77.3586 99.3813 77.7533 99.744C78.1479 100.107 78.6333 100.288 79.2093 100.288C80.0413 100.288 80.6333 99.9307 80.9853 99.216H83.4013C83.1453 100.069 82.6546 100.773 81.9293 101.328C81.2039 101.872 80.3133 102.144 79.2573 102.144C78.4039 102.144 77.6359 101.957 76.9533 101.584C76.2813 101.2 75.7533 100.661 75.3693 99.968C74.9959 99.2747 74.8092 98.4747 74.8092 97.568C74.8092 96.6507 74.9959 95.8453 75.3693 95.152C75.7426 94.4587 76.2653 93.9253 76.9373 93.552C77.6093 93.1787 78.3826 92.992 79.2573 92.992C80.0999 92.992 80.8519 93.1733 81.5133 93.536C82.1853 93.8987 82.7026 94.416 83.0653 95.088C83.4386 95.7493 83.6253 96.512 83.6253 97.376ZM81.3053 96.736C81.2946 96.16 81.0866 95.7013 80.6813 95.36C80.2759 95.008 79.7799 94.832 79.1933 94.832C78.6386 94.832 78.1693 95.0027 77.7853 95.344C77.4119 95.6747 77.1826 96.1387 77.0973 96.736H81.3053ZM90.1723 93.008C91.2283 93.008 92.0816 93.344 92.7323 94.016C93.3829 94.6773 93.7083 95.6053 93.7083 96.8V102H91.4683V97.104C91.4683 96.4 91.2923 95.8613 90.9403 95.488C90.5883 95.104 90.1083 94.912 89.5003 94.912C88.8816 94.912 88.3909 95.104 88.0283 95.488C87.6763 95.8613 87.5003 96.4 87.5003 97.104V102H85.2603V93.136H87.5003V94.24C87.7989 93.856 88.1776 93.5573 88.6363 93.344C89.1056 93.12 89.6176 93.008 90.1723 93.008ZM95.2624 97.536C95.2624 96.64 95.4384 95.8453 95.7904 95.152C96.153 94.4587 96.6437 93.9253 97.2624 93.552C97.881 93.1787 98.569 92.992 99.3264 92.992C99.9024 92.992 100.452 93.12 100.974 93.376C101.497 93.6213 101.913 93.952 102.222 94.368V90.16H104.494V102H102.222V100.688C101.945 101.125 101.556 101.477 101.054 101.744C100.553 102.011 99.9717 102.144 99.3104 102.144C98.5637 102.144 97.881 101.952 97.2624 101.568C96.6437 101.184 96.153 100.645 95.7904 99.952C95.4384 99.248 95.2624 98.4427 95.2624 97.536ZM102.238 97.568C102.238 97.024 102.132 96.56 101.918 96.176C101.705 95.7813 101.417 95.4827 101.054 95.28C100.692 95.0667 100.302 94.96 99.8864 94.96C99.4704 94.96 99.0864 95.0613 98.7344 95.264C98.3824 95.4667 98.0944 95.7653 97.8704 96.16C97.657 96.544 97.5504 97.0027 97.5504 97.536C97.5504 98.0693 97.657 98.5387 97.8704 98.944C98.0944 99.3387 98.3824 99.6427 98.7344 99.856C99.097 100.069 99.481 100.176 99.8864 100.176C100.302 100.176 100.692 100.075 101.054 99.872C101.417 99.6587 101.705 99.36 101.918 98.976C102.132 98.5813 102.238 98.112 102.238 97.568ZM114.922 97.376C114.922 97.696 114.901 97.984 114.858 98.24H108.378C108.431 98.88 108.655 99.3813 109.05 99.744C109.445 100.107 109.93 100.288 110.506 100.288C111.338 100.288 111.93 99.9307 112.282 99.216H114.698C114.442 100.069 113.951 100.773 113.226 101.328C112.501 101.872 111.61 102.144 110.554 102.144C109.701 102.144 108.933 101.957 108.25 101.584C107.578 101.2 107.05 100.661 106.666 99.968C106.293 99.2747 106.106 98.4747 106.106 97.568C106.106 96.6507 106.293 95.8453 106.666 95.152C107.039 94.4587 107.562 93.9253 108.234 93.552C108.906 93.1787 109.679 92.992 110.554 92.992C111.397 92.992 112.149 93.1733 112.81 93.536C113.482 93.8987 113.999 94.416 114.362 95.088C114.735 95.7493 114.922 96.512 114.922 97.376ZM112.602 96.736C112.591 96.16 112.383 95.7013 111.978 95.36C111.573 95.008 111.077 94.832 110.49 94.832C109.935 94.832 109.466 95.0027 109.082 95.344C108.709 95.6747 108.479 96.1387 108.394 96.736H112.602ZM118.797 94.512C119.085 94.0427 119.458 93.6747 119.917 93.408C120.386 93.1413 120.92 93.008 121.517 93.008V95.36H120.925C120.221 95.36 119.688 95.5253 119.325 95.856C118.973 96.1867 118.797 96.7627 118.797 97.584V102H116.557V93.136H118.797V94.512Z" fill="#7E7E7E"/>
</g>
<g id="Frame 758532178_2">
<rect x="62.2" y="117.2" width="374.6" height="50.6" fill="white"/>
<rect x="62.2" y="117.2" width="374.6" height="50.6" stroke="#9C9C9C" stroke-width="0.4"/>
</g>
</g>
</g>
</g>
<g id="Frame 758532565">
<g id="Frame 758532527_2">
</g>
<g id="Frame 758532528">
<g id="Frame 758532194_2">
<path id="State or Province" d="M66.96 209.112C66.1813 209.112 65.4773 208.979 64.848 208.712C64.2293 208.445 63.7387 208.061 63.376 207.56C63.0133 207.059 62.8267 206.467 62.816 205.784H65.216C65.248 206.243 65.408 206.605 65.696 206.872C65.9947 207.139 66.4 207.272 66.912 207.272C67.4347 207.272 67.8453 207.149 68.144 206.904C68.4427 206.648 68.592 206.317 68.592 205.912C68.592 205.581 68.4907 205.309 68.288 205.096C68.0853 204.883 67.8293 204.717 67.52 204.6C67.2213 204.472 66.8053 204.333 66.272 204.184C65.5467 203.971 64.9547 203.763 64.496 203.56C64.048 203.347 63.6587 203.032 63.328 202.616C63.008 202.189 62.848 201.624 62.848 200.92C62.848 200.259 63.0133 199.683 63.344 199.192C63.6747 198.701 64.1387 198.328 64.736 198.072C65.3333 197.805 66.016 197.672 66.784 197.672C67.936 197.672 68.8693 197.955 69.584 198.52C70.3093 199.075 70.7093 199.853 70.784 200.856H68.32C68.2987 200.472 68.1333 200.157 67.824 199.912C67.5253 199.656 67.1253 199.528 66.624 199.528C66.1867 199.528 65.8347 199.64 65.568 199.864C65.312 200.088 65.184 200.413 65.184 200.84C65.184 201.139 65.28 201.389 65.472 201.592C65.6747 201.784 65.92 201.944 66.208 202.072C66.5067 202.189 66.9227 202.328 67.456 202.488C68.1813 202.701 68.7733 202.915 69.232 203.128C69.6907 203.341 70.0853 203.661 70.416 204.088C70.7467 204.515 70.912 205.075 70.912 205.768C70.912 206.365 70.7573 206.92 70.448 207.432C70.1387 207.944 69.6853 208.355 69.088 208.664C68.4907 208.963 67.7813 209.112 66.96 209.112ZM75.462 201.976V206.264C75.462 206.563 75.5313 206.781 75.67 206.92C75.8193 207.048 76.0647 207.112 76.406 207.112H77.446V209H76.038C74.15 209 73.206 208.083 73.206 206.248V201.976H72.15V200.136H73.206V197.944H75.462V200.136H77.446V201.976H75.462ZM78.4811 204.536C78.4811 203.64 78.6571 202.845 79.0091 202.152C79.3718 201.459 79.8571 200.925 80.4651 200.552C81.0838 200.179 81.7718 199.992 82.5291 199.992C83.1905 199.992 83.7665 200.125 84.2571 200.392C84.7585 200.659 85.1585 200.995 85.4571 201.4V200.136H87.7131V209H85.4571V207.704C85.1691 208.12 84.7691 208.467 84.2571 208.744C83.7558 209.011 83.1745 209.144 82.5131 209.144C81.7665 209.144 81.0838 208.952 80.4651 208.568C79.8571 208.184 79.3718 207.645 79.0091 206.952C78.6571 206.248 78.4811 205.443 78.4811 204.536ZM85.4571 204.568C85.4571 204.024 85.3505 203.56 85.1371 203.176C84.9238 202.781 84.6358 202.483 84.2731 202.28C83.9105 202.067 83.5211 201.96 83.1051 201.96C82.6891 201.96 82.3051 202.061 81.9531 202.264C81.6011 202.467 81.3131 202.765 81.0891 203.16C80.8758 203.544 80.7691 204.003 80.7691 204.536C80.7691 205.069 80.8758 205.539 81.0891 205.944C81.3131 206.339 81.6011 206.643 81.9531 206.856C82.3158 207.069 82.6998 207.176 83.1051 207.176C83.5211 207.176 83.9105 207.075 84.2731 206.872C84.6358 206.659 84.9238 206.36 85.1371 205.976C85.3505 205.581 85.4571 205.112 85.4571 204.568ZM92.5089 201.976V206.264C92.5089 206.563 92.5782 206.781 92.7169 206.92C92.8662 207.048 93.1115 207.112 93.4529 207.112H94.4929V209H93.0849C91.1969 209 90.2529 208.083 90.2529 206.248V201.976H89.1969V200.136H90.2529V197.944H92.5089V200.136H94.4929V201.976H92.5089ZM104.344 204.376C104.344 204.696 104.323 204.984 104.28 205.24H97.8C97.8533 205.88 98.0773 206.381 98.472 206.744C98.8667 207.107 99.352 207.288 99.928 207.288C100.76 207.288 101.352 206.931 101.704 206.216H104.12C103.864 207.069 103.373 207.773 102.648 208.328C101.923 208.872 101.032 209.144 99.976 209.144C99.1227 209.144 98.3547 208.957 97.672 208.584C97 208.2 96.472 207.661 96.088 206.968C95.7147 206.275 95.528 205.475 95.528 204.568C95.528 203.651 95.7147 202.845 96.088 202.152C96.4613 201.459 96.984 200.925 97.656 200.552C98.328 200.179 99.1013 199.992 99.976 199.992C100.819 199.992 101.571 200.173 102.232 200.536C102.904 200.899 103.421 201.416 103.784 202.088C104.157 202.749 104.344 203.512 104.344 204.376ZM102.024 203.736C102.013 203.16 101.805 202.701 101.4 202.36C100.995 202.008 100.499 201.832 99.912 201.832C99.3573 201.832 98.888 202.003 98.504 202.344C98.1307 202.675 97.9013 203.139 97.816 203.736H102.024ZM113.728 209.144C112.874 209.144 112.106 208.957 111.424 208.584C110.741 208.2 110.202 207.661 109.808 206.968C109.424 206.275 109.232 205.475 109.232 204.568C109.232 203.661 109.429 202.861 109.824 202.168C110.229 201.475 110.778 200.941 111.472 200.568C112.165 200.184 112.938 199.992 113.792 199.992C114.645 199.992 115.418 200.184 116.112 200.568C116.805 200.941 117.349 201.475 117.744 202.168C118.149 202.861 118.352 203.661 118.352 204.568C118.352 205.475 118.144 206.275 117.727 206.968C117.322 207.661 116.768 208.2 116.064 208.584C115.37 208.957 114.592 209.144 113.728 209.144ZM113.728 207.192C114.133 207.192 114.512 207.096 114.864 206.904C115.226 206.701 115.514 206.403 115.728 206.008C115.941 205.613 116.048 205.133 116.048 204.568C116.048 203.725 115.824 203.08 115.376 202.632C114.938 202.173 114.4 201.944 113.76 201.944C113.12 201.944 112.581 202.173 112.144 202.632C111.717 203.08 111.504 203.725 111.504 204.568C111.504 205.411 111.712 206.061 112.128 206.52C112.554 206.968 113.088 207.192 113.728 207.192ZM122.235 201.512C122.523 201.043 122.896 200.675 123.355 200.408C123.824 200.141 124.357 200.008 124.955 200.008V202.36H124.363C123.659 202.36 123.125 202.525 122.763 202.856C122.411 203.187 122.235 203.763 122.235 204.584V209H119.995V200.136H122.235V201.512ZM138.42 201.288C138.42 201.885 138.276 202.445 137.988 202.968C137.711 203.491 137.268 203.912 136.66 204.232C136.063 204.552 135.305 204.712 134.388 204.712H132.516V209H130.276V197.832H134.388C135.252 197.832 135.988 197.981 136.596 198.28C137.204 198.579 137.657 198.989 137.956 199.512C138.265 200.035 138.42 200.627 138.42 201.288ZM134.292 202.904C134.911 202.904 135.369 202.765 135.668 202.488C135.967 202.2 136.116 201.8 136.116 201.288C136.116 200.2 135.508 199.656 134.292 199.656H132.516V202.904H134.292ZM142.25 201.512C142.538 201.043 142.912 200.675 143.37 200.408C143.84 200.141 144.373 200.008 144.97 200.008V202.36H144.378C143.674 202.36 143.141 202.525 142.778 202.856C142.426 203.187 142.25 203.763 142.25 204.584V209H140.01V200.136H142.25V201.512ZM150.415 209.144C149.562 209.144 148.794 208.957 148.111 208.584C147.428 208.2 146.89 207.661 146.495 206.968C146.111 206.275 145.919 205.475 145.919 204.568C145.919 203.661 146.116 202.861 146.511 202.168C146.916 201.475 147.466 200.941 148.159 200.568C148.852 200.184 149.626 199.992 150.479 199.992C151.332 199.992 152.106 200.184 152.799 200.568C153.492 200.941 154.036 201.475 154.431 202.168C154.836 202.861 155.039 203.661 155.039 204.568C155.039 205.475 154.831 206.275 154.415 206.968C154.01 207.661 153.455 208.2 152.751 208.584C152.058 208.957 151.279 209.144 150.415 209.144ZM150.415 207.192C150.82 207.192 151.199 207.096 151.551 206.904C151.914 206.701 152.202 206.403 152.415 206.008C152.628 205.613 152.735 205.133 152.735 204.568C152.735 203.725 152.511 203.08 152.063 202.632C151.626 202.173 151.087 201.944 150.447 201.944C149.807 201.944 149.268 202.173 148.831 202.632C148.404 203.08 148.191 203.725 148.191 204.568C148.191 205.411 148.399 206.061 148.815 206.52C149.242 206.968 149.775 207.192 150.415 207.192ZM160.378 206.936L162.618 200.136H165.002L161.722 209H159.002L155.738 200.136H158.138L160.378 206.936ZM167.396 199.08C167.002 199.08 166.671 198.957 166.404 198.712C166.148 198.456 166.02 198.141 166.02 197.768C166.02 197.395 166.148 197.085 166.404 196.84C166.671 196.584 167.002 196.456 167.396 196.456C167.791 196.456 168.116 196.584 168.372 196.84C168.639 197.085 168.772 197.395 168.772 197.768C168.772 198.141 168.639 198.456 168.372 198.712C168.116 198.957 167.791 199.08 167.396 199.08ZM168.5 200.136V209H166.26V200.136H168.5ZM175.625 200.008C176.681 200.008 177.535 200.344 178.185 201.016C178.836 201.677 179.161 202.605 179.161 203.8V209H176.921V204.104C176.921 203.4 176.745 202.861 176.393 202.488C176.041 202.104 175.561 201.912 174.953 201.912C174.335 201.912 173.844 202.104 173.481 202.488C173.129 202.861 172.953 203.4 172.953 204.104V209H170.713V200.136H172.953V201.24C173.252 200.856 173.631 200.557 174.089 200.344C174.559 200.12 175.071 200.008 175.625 200.008ZM180.715 204.568C180.715 203.651 180.902 202.851 181.276 202.168C181.649 201.475 182.166 200.941 182.828 200.568C183.489 200.184 184.246 199.992 185.1 199.992C186.198 199.992 187.105 200.269 187.82 200.824C188.545 201.368 189.03 202.136 189.276 203.128H186.86C186.732 202.744 186.513 202.445 186.204 202.232C185.905 202.008 185.532 201.896 185.084 201.896C184.444 201.896 183.937 202.131 183.564 202.6C183.19 203.059 183.004 203.715 183.004 204.568C183.004 205.411 183.19 206.067 183.564 206.536C183.937 206.995 184.444 207.224 185.084 207.224C185.99 207.224 186.582 206.819 186.86 206.008H189.276C189.03 206.968 188.545 207.731 187.82 208.296C187.094 208.861 186.188 209.144 185.1 209.144C184.246 209.144 183.489 208.957 182.828 208.584C182.166 208.2 181.649 207.667 181.276 206.984C180.902 206.291 180.715 205.485 180.715 204.568ZM199.157 204.376C199.157 204.696 199.135 204.984 199.093 205.24H192.613C192.666 205.88 192.89 206.381 193.285 206.744C193.679 207.107 194.165 207.288 194.741 207.288C195.573 207.288 196.165 206.931 196.517 206.216H198.933C198.677 207.069 198.186 207.773 197.461 208.328C196.735 208.872 195.845 209.144 194.789 209.144C193.935 209.144 193.167 208.957 192.485 208.584C191.813 208.2 191.285 207.661 190.901 206.968C190.527 206.275 190.34 205.475 190.34 204.568C190.34 203.651 190.527 202.845 190.901 202.152C191.274 201.459 191.797 200.925 192.469 200.552C193.141 200.179 193.914 199.992 194.789 199.992C195.631 199.992 196.383 200.173 197.045 200.536C197.717 200.899 198.234 201.416 198.597 202.088C198.97 202.749 199.157 203.512 199.157 204.376ZM196.837 203.736C196.826 203.16 196.618 202.701 196.213 202.36C195.807 202.008 195.311 201.832 194.725 201.832C194.17 201.832 193.701 202.003 193.317 202.344C192.943 202.675 192.714 203.139 192.629 203.736H196.837Z" fill="#7E7E7E"/>
</g>
</g>
</g>
</g>
<g id="Frame 758532543">
<g id="Frame 758532179">
<path id="Why Account Verification with my ID Document?" d="M-94.32 0.379999L-97.616 11.5H-99.68L-102.016 3.084L-104.496 11.5L-106.544 11.516L-109.696 0.379999H-107.76L-105.456 9.436L-102.96 0.379999H-100.912L-98.592 9.388L-96.272 0.379999H-94.32ZM-88.2556 2.54C-87.5836 2.54 -86.9863 2.684 -86.4636 2.972C-85.9303 3.26 -85.5143 3.68667 -85.2156 4.252C-84.9063 4.81733 -84.7516 5.5 -84.7516 6.3V11.5H-86.5596V6.572C-86.5596 5.78267 -86.757 5.18 -87.1516 4.764C-87.5463 4.33733 -88.085 4.124 -88.7676 4.124C-89.4503 4.124 -89.9943 4.33733 -90.3996 4.764C-90.7943 5.18 -90.9916 5.78267 -90.9916 6.572V11.5H-92.8156V-0.34H-90.9916V3.708C-90.6823 3.33467 -90.293 3.04667 -89.8236 2.844C-89.3436 2.64133 -88.821 2.54 -88.2556 2.54ZM-74.489 2.684L-79.897 15.644H-81.785L-79.993 11.356L-83.465 2.684H-81.433L-78.953 9.404L-76.377 2.684H-74.489ZM-62.2522 9.228H-66.9082L-67.7082 11.5H-69.6122L-65.6282 0.363999H-63.5162L-59.5322 11.5H-61.4522L-62.2522 9.228ZM-62.7642 7.74L-64.5722 2.572L-66.3962 7.74H-62.7642ZM-58.408 7.084C-58.408 6.17733 -58.2267 5.38267 -57.864 4.7C-57.4907 4.00667 -56.9787 3.47333 -56.328 3.1C-55.6773 2.72667 -54.9307 2.54 -54.088 2.54C-53.0213 2.54 -52.1413 2.796 -51.448 3.308C-50.744 3.80933 -50.2693 4.52933 -50.024 5.468H-51.992C-52.152 5.03067 -52.408 4.68933 -52.76 4.444C-53.112 4.19867 -53.5547 4.076 -54.088 4.076C-54.8347 4.076 -55.432 4.34267 -55.88 4.876C-56.3173 5.39867 -56.536 6.13467 -56.536 7.084C-56.536 8.03333 -56.3173 8.77467 -55.88 9.308C-55.432 9.84133 -54.8347 10.108 -54.088 10.108C-53.032 10.108 -52.3333 9.644 -51.992 8.716H-50.024C-50.28 9.612 -50.76 10.3267 -51.464 10.86C-52.168 11.3827 -53.0427 11.644 -54.088 11.644C-54.9307 11.644 -55.6773 11.4573 -56.328 11.084C-56.9787 10.7 -57.4907 10.1667 -57.864 9.484C-58.2267 8.79067 -58.408 7.99067 -58.408 7.084ZM-48.8142 7.084C-48.8142 6.17733 -48.6329 5.38267 -48.2702 4.7C-47.8969 4.00667 -47.3849 3.47333 -46.7342 3.1C-46.0836 2.72667 -45.3369 2.54 -44.4942 2.54C-43.4276 2.54 -42.5476 2.796 -41.8542 3.308C-41.1502 3.80933 -40.6756 4.52933 -40.4302 5.468H-42.3982C-42.5582 5.03067 -42.8142 4.68933 -43.1662 4.444C-43.5182 4.19867 -43.9609 4.076 -44.4942 4.076C-45.2409 4.076 -45.8382 4.34267 -46.2862 4.876C-46.7236 5.39867 -46.9422 6.13467 -46.9422 7.084C-46.9422 8.03333 -46.7236 8.77467 -46.2862 9.308C-45.8382 9.84133 -45.2409 10.108 -44.4942 10.108C-43.4382 10.108 -42.7396 9.644 -42.3982 8.716H-40.4302C-40.6862 9.612 -41.1662 10.3267 -41.8702 10.86C-42.5742 11.3827 -43.4489 11.644 -44.4942 11.644C-45.3369 11.644 -46.0836 11.4573 -46.7342 11.084C-47.3849 10.7 -47.8969 10.1667 -48.2702 9.484C-48.6329 8.79067 -48.8142 7.99067 -48.8142 7.084ZM-34.7885 11.644C-35.6205 11.644 -36.3725 11.4573 -37.0445 11.084C-37.7165 10.7 -38.2445 10.1667 -38.6285 9.484C-39.0125 8.79067 -39.2045 7.99067 -39.2045 7.084C-39.2045 6.188 -39.0072 5.39333 -38.6125 4.7C-38.2178 4.00667 -37.6792 3.47333 -36.9965 3.1C-36.3138 2.72667 -35.5512 2.54 -34.7085 2.54C-33.8658 2.54 -33.1032 2.72667 -32.4205 3.1C-31.7378 3.47333 -31.1992 4.00667 -30.8045 4.7C-30.4098 5.39333 -30.2125 6.188 -30.2125 7.084C-30.2125 7.98 -30.4152 8.77467 -30.8205 9.468C-31.2258 10.1613 -31.7805 10.7 -32.4845 11.084C-33.1778 11.4573 -33.9458 11.644 -34.7885 11.644ZM-34.7885 10.06C-34.3192 10.06 -33.8818 9.948 -33.4765 9.724C-33.0605 9.5 -32.7245 9.164 -32.4685 8.716C-32.2125 8.268 -32.0845 7.724 -32.0845 7.084C-32.0845 6.444 -32.2072 5.90533 -32.4525 5.468C-32.6978 5.02 -33.0232 4.684 -33.4285 4.46C-33.8338 4.236 -34.2712 4.124 -34.7405 4.124C-35.2098 4.124 -35.6472 4.236 -36.0525 4.46C-36.4472 4.684 -36.7618 5.02 -36.9965 5.468C-37.2312 5.90533 -37.3485 6.444 -37.3485 7.084C-37.3485 8.03333 -37.1085 8.76933 -36.6285 9.292C-36.1378 9.804 -35.5245 10.06 -34.7885 10.06ZM-20.4254 2.684V11.5H-22.2494V10.46C-22.5374 10.8227 -22.916 11.1107 -23.3854 11.324C-23.844 11.5267 -24.3347 11.628 -24.8574 11.628C-25.5507 11.628 -26.1747 11.484 -26.7294 11.196C-27.2734 10.908 -27.7054 10.4813 -28.0254 9.916C-28.3347 9.35067 -28.4894 8.668 -28.4894 7.868V2.684H-26.6814V7.596C-26.6814 8.38533 -26.484 8.99333 -26.0894 9.42C-25.6947 9.836 -25.156 10.044 -24.4734 10.044C-23.7907 10.044 -23.252 9.836 -22.8574 9.42C-22.452 8.99333 -22.2494 8.38533 -22.2494 7.596V2.684H-20.4254ZM-13.5707 2.54C-12.8774 2.54 -12.2587 2.684 -11.7147 2.972C-11.1601 3.26 -10.7281 3.68667 -10.4187 4.252C-10.1094 4.81733 -9.95475 5.5 -9.95475 6.3V11.5H-11.7627V6.572C-11.7627 5.78267 -11.9601 5.18 -12.3547 4.764C-12.7494 4.33733 -13.2881 4.124 -13.9707 4.124C-14.6534 4.124 -15.1974 4.33733 -15.6027 4.764C-15.9974 5.18 -16.1947 5.78267 -16.1947 6.572V11.5H-18.0187V2.684H-16.1947V3.692C-15.8961 3.32933 -15.5174 3.04667 -15.0587 2.844C-14.5894 2.64133 -14.0934 2.54 -13.5707 2.54ZM-5.50012 4.172V9.052C-5.50012 9.38267 -5.42546 9.62267 -5.27612 9.772C-5.11612 9.91067 -4.84946 9.98 -4.47612 9.98H-3.35612V11.5H-4.79612C-5.61746 11.5 -6.24679 11.308 -6.68412 10.924C-7.12146 10.54 -7.34012 9.916 -7.34012 9.052V4.172H-8.38012V2.684H-7.34012V0.492H-5.50012V2.684H-3.35612V4.172H-5.50012ZM12.0653 0.379999L7.88925 11.5H5.77725L1.58525 0.379999H3.53725L6.83325 9.628L10.1453 0.379999H12.0653ZM21.6706 6.876C21.6706 7.20667 21.6493 7.50533 21.6066 7.772H14.8706C14.924 8.476 15.1853 9.04133 15.6546 9.468C16.124 9.89467 16.7 10.108 17.3826 10.108C18.364 10.108 19.0573 9.69733 19.4626 8.876H21.4306C21.164 9.68667 20.6786 10.3533 19.9746 10.876C19.2813 11.388 18.4173 11.644 17.3826 11.644C16.54 11.644 15.7826 11.4573 15.1106 11.084C14.4493 10.7 13.9266 10.1667 13.5426 9.484C13.1693 8.79067 12.9826 7.99067 12.9826 7.084C12.9826 6.17733 13.164 5.38267 13.5266 4.7C13.9 4.00667 14.4173 3.47333 15.0786 3.1C15.7506 2.72667 16.5186 2.54 17.3826 2.54C18.2146 2.54 18.956 2.72133 19.6066 3.084C20.2573 3.44667 20.764 3.95867 21.1266 4.62C21.4893 5.27067 21.6706 6.02267 21.6706 6.876ZM19.7666 6.3C19.756 5.628 19.516 5.08933 19.0466 4.684C18.5773 4.27867 17.996 4.076 17.3026 4.076C16.6733 4.076 16.1346 4.27867 15.6866 4.684C15.2386 5.07867 14.972 5.61733 14.8866 6.3H19.7666ZM25.2896 3.964C25.5563 3.516 25.9083 3.16933 26.3456 2.924C26.7936 2.668 27.3216 2.54 27.9296 2.54V4.428H27.4656C26.751 4.428 26.207 4.60933 25.8336 4.972C25.471 5.33467 25.2896 5.964 25.2896 6.86V11.5H23.4656V2.684H25.2896V3.964ZM30.5343 1.516C30.2036 1.516 29.9263 1.404 29.7023 1.18C29.4783 0.956 29.3663 0.678666 29.3663 0.348C29.3663 0.0173327 29.4783 -0.260001 29.7023 -0.484C29.9263 -0.708001 30.2036 -0.820001 30.5343 -0.820001C30.8543 -0.820001 31.1263 -0.708001 31.3503 -0.484C31.5743 -0.260001 31.6863 0.0173327 31.6863 0.348C31.6863 0.678666 31.5743 0.956 31.3503 1.18C31.1263 1.404 30.8543 1.516 30.5343 1.516ZM31.4303 2.684V11.5H29.6063V2.684H31.4303ZM37.521 4.172H35.889V11.5H34.049V4.172H33.009V2.684H34.049V2.06C34.049 1.04667 34.3157 0.310666 34.849 -0.148001C35.393 -0.617334 36.241 -0.852 37.393 -0.852V0.667999C36.8383 0.667999 36.449 0.774666 36.225 0.988C36.001 1.19067 35.889 1.548 35.889 2.06V2.684H37.521V4.172ZM40.0655 1.516C39.7348 1.516 39.4575 1.404 39.2335 1.18C39.0095 0.956 38.8975 0.678666 38.8975 0.348C38.8975 0.0173327 39.0095 -0.260001 39.2335 -0.484C39.4575 -0.708001 39.7348 -0.820001 40.0655 -0.820001C40.3855 -0.820001 40.6575 -0.708001 40.8815 -0.484C41.1055 -0.260001 41.2175 0.0173327 41.2175 0.348C41.2175 0.678666 41.1055 0.956 40.8815 1.18C40.6575 1.404 40.3855 1.516 40.0655 1.516ZM40.9615 2.684V11.5H39.1375V2.684H40.9615ZM42.7483 7.084C42.7483 6.17733 42.9296 5.38267 43.2923 4.7C43.6656 4.00667 44.1776 3.47333 44.8283 3.1C45.4789 2.72667 46.2256 2.54 47.0683 2.54C48.1349 2.54 49.0149 2.796 49.7083 3.308C50.4123 3.80933 50.8869 4.52933 51.1323 5.468H49.1643C49.0043 5.03067 48.7483 4.68933 48.3963 4.444C48.0443 4.19867 47.6016 4.076 47.0683 4.076C46.3216 4.076 45.7243 4.34267 45.2763 4.876C44.8389 5.39867 44.6203 6.13467 44.6203 7.084C44.6203 8.03333 44.8389 8.77467 45.2763 9.308C45.7243 9.84133 46.3216 10.108 47.0683 10.108C48.1243 10.108 48.8229 9.644 49.1643 8.716H51.1323C50.8763 9.612 50.3963 10.3267 49.6923 10.86C48.9883 11.3827 48.1136 11.644 47.0683 11.644C46.2256 11.644 45.4789 11.4573 44.8283 11.084C44.1776 10.7 43.6656 10.1667 43.2923 9.484C42.9296 8.79067 42.7483 7.99067 42.7483 7.084ZM52.342 7.052C52.342 6.16667 52.5233 5.38267 52.886 4.7C53.2593 4.01733 53.7607 3.48933 54.39 3.116C55.03 2.732 55.734 2.54 56.502 2.54C57.1953 2.54 57.798 2.67867 58.31 2.956C58.8327 3.22267 59.2487 3.55867 59.558 3.964V2.684H61.398V11.5H59.558V10.188C59.2487 10.604 58.8273 10.9507 58.294 11.228C57.7607 11.5053 57.1527 11.644 56.47 11.644C55.7127 11.644 55.0193 11.452 54.39 11.068C53.7607 10.6733 53.2593 10.1293 52.886 9.436C52.5233 8.732 52.342 7.93733 52.342 7.052ZM59.558 7.084C59.558 6.476 59.43 5.948 59.174 5.5C58.9287 5.052 58.6033 4.71067 58.198 4.476C57.7927 4.24133 57.3553 4.124 56.886 4.124C56.4167 4.124 55.9793 4.24133 55.574 4.476C55.1687 4.7 54.838 5.036 54.582 5.484C54.3367 5.92133 54.214 6.444 54.214 7.052C54.214 7.66 54.3367 8.19333 54.582 8.652C54.838 9.11067 55.1687 9.46267 55.574 9.708C55.99 9.94267 56.4273 10.06 56.886 10.06C57.3553 10.06 57.7927 9.94267 58.198 9.708C58.6033 9.47333 58.9287 9.132 59.174 8.684C59.43 8.22533 59.558 7.692 59.558 7.084ZM65.9218 4.172V9.052C65.9218 9.38267 65.9964 9.62267 66.1458 9.772C66.3058 9.91067 66.5724 9.98 66.9458 9.98H68.0658V11.5H66.6258C65.8044 11.5 65.1751 11.308 64.7378 10.924C64.3004 10.54 64.0818 9.916 64.0818 9.052V4.172H63.0418V2.684H64.0818V0.492H65.9218V2.684H68.0658V4.172H65.9218ZM70.6749 1.516C70.3442 1.516 70.0669 1.404 69.8429 1.18C69.6189 0.956 69.5069 0.678666 69.5069 0.348C69.5069 0.0173327 69.6189 -0.260001 69.8429 -0.484C70.0669 -0.708001 70.3442 -0.820001 70.6749 -0.820001C70.9949 -0.820001 71.2669 -0.708001 71.4909 -0.484C71.7149 -0.260001 71.8269 0.0173327 71.8269 0.348C71.8269 0.678666 71.7149 0.956 71.4909 1.18C71.2669 1.404 70.9949 1.516 70.6749 1.516ZM71.5709 2.684V11.5H69.7469V2.684H71.5709ZM77.7896 11.644C76.9576 11.644 76.2056 11.4573 75.5336 11.084C74.8616 10.7 74.3336 10.1667 73.9496 9.484C73.5656 8.79067 73.3736 7.99067 73.3736 7.084C73.3736 6.188 73.571 5.39333 73.9656 4.7C74.3603 4.00667 74.899 3.47333 75.5816 3.1C76.2643 2.72667 77.027 2.54 77.8696 2.54C78.7123 2.54 79.475 2.72667 80.1576 3.1C80.8403 3.47333 81.379 4.00667 81.7736 4.7C82.1683 5.39333 82.3656 6.188 82.3656 7.084C82.3656 7.98 82.163 8.77467 81.7576 9.468C81.3523 10.1613 80.7976 10.7 80.0936 11.084C79.4003 11.4573 78.6323 11.644 77.7896 11.644ZM77.7896 10.06C78.259 10.06 78.6963 9.948 79.1016 9.724C79.5176 9.5 79.8536 9.164 80.1096 8.716C80.3656 8.268 80.4936 7.724 80.4936 7.084C80.4936 6.444 80.371 5.90533 80.1256 5.468C79.8803 5.02 79.555 4.684 79.1496 4.46C78.7443 4.236 78.307 4.124 77.8376 4.124C77.3683 4.124 76.931 4.236 76.5256 4.46C76.131 4.684 75.8163 5.02 75.5816 5.468C75.347 5.90533 75.2296 6.444 75.2296 7.084C75.2296 8.03333 75.4696 8.76933 75.9496 9.292C76.4403 9.804 77.0536 10.06 77.7896 10.06ZM88.6168 2.54C89.3101 2.54 89.9288 2.684 90.4728 2.972C91.0274 3.26 91.4594 3.68667 91.7688 4.252C92.0781 4.81733 92.2328 5.5 92.2328 6.3V11.5H90.4248V6.572C90.4248 5.78267 90.2274 5.18 89.8328 4.764C89.4381 4.33733 88.8994 4.124 88.2168 4.124C87.5341 4.124 86.9901 4.33733 86.5848 4.764C86.1901 5.18 85.9928 5.78267 85.9928 6.572V11.5H84.1688V2.684H85.9928V3.692C86.2914 3.32933 86.6701 3.04667 87.1288 2.844C87.5981 2.64133 88.0941 2.54 88.6168 2.54ZM110.556 2.684L107.82 11.5H105.9L104.124 4.988L102.348 11.5H100.428L97.6756 2.684H99.5316L101.372 9.772L103.244 2.684H105.148L106.94 9.74L108.764 2.684H110.556ZM112.847 1.516C112.516 1.516 112.239 1.404 112.015 1.18C111.791 0.956 111.679 0.678666 111.679 0.348C111.679 0.0173327 111.791 -0.260001 112.015 -0.484C112.239 -0.708001 112.516 -0.820001 112.847 -0.820001C113.167 -0.820001 113.439 -0.708001 113.663 -0.484C113.887 -0.260001 113.999 0.0173327 113.999 0.348C113.999 0.678666 113.887 0.956 113.663 1.18C113.439 1.404 113.167 1.516 112.847 1.516ZM113.743 2.684V11.5H111.919V2.684H113.743ZM118.266 4.172V9.052C118.266 9.38267 118.34 9.62267 118.49 9.772C118.65 9.91067 118.916 9.98 119.29 9.98H120.41V11.5H118.97C118.148 11.5 117.519 11.308 117.082 10.924C116.644 10.54 116.426 9.916 116.426 9.052V4.172H115.386V2.684H116.426V0.492H118.266V2.684H120.41V4.172H118.266ZM126.651 2.54C127.323 2.54 127.92 2.684 128.443 2.972C128.976 3.26 129.392 3.68667 129.691 4.252C130 4.81733 130.155 5.5 130.155 6.3V11.5H128.347V6.572C128.347 5.78267 128.149 5.18 127.755 4.764C127.36 4.33733 126.821 4.124 126.139 4.124C125.456 4.124 124.912 4.33733 124.507 4.764C124.112 5.18 123.915 5.78267 123.915 6.572V11.5H122.091V-0.34H123.915V3.708C124.224 3.33467 124.613 3.04667 125.083 2.844C125.563 2.64133 126.085 2.54 126.651 2.54ZM147.31 2.54C148.003 2.54 148.622 2.684 149.166 2.972C149.72 3.26 150.152 3.68667 150.462 4.252C150.782 4.81733 150.942 5.5 150.942 6.3V11.5H149.134V6.572C149.134 5.78267 148.936 5.18 148.542 4.764C148.147 4.33733 147.608 4.124 146.926 4.124C146.243 4.124 145.699 4.33733 145.294 4.764C144.899 5.18 144.702 5.78267 144.702 6.572V11.5H142.894V6.572C142.894 5.78267 142.696 5.18 142.302 4.764C141.907 4.33733 141.368 4.124 140.686 4.124C140.003 4.124 139.459 4.33733 139.054 4.764C138.659 5.18 138.462 5.78267 138.462 6.572V11.5H136.638V2.684H138.462V3.692C138.76 3.32933 139.139 3.04667 139.598 2.844C140.056 2.64133 140.547 2.54 141.07 2.54C141.774 2.54 142.403 2.68933 142.958 2.988C143.512 3.28667 143.939 3.71867 144.238 4.284C144.504 3.75067 144.92 3.32933 145.486 3.02C146.051 2.7 146.659 2.54 147.31 2.54ZM161.199 2.684L155.791 15.644H153.903L155.695 11.356L152.223 2.684H154.255L156.735 9.404L159.311 2.684H161.199ZM168.555 0.379999V11.5H166.731V0.379999H168.555ZM174.582 0.379999C175.766 0.379999 176.801 0.609333 177.686 1.068C178.582 1.516 179.27 2.16667 179.75 3.02C180.241 3.86267 180.486 4.84933 180.486 5.98C180.486 7.11067 180.241 8.092 179.75 8.924C179.27 9.756 178.582 10.396 177.686 10.844C176.801 11.2813 175.766 11.5 174.582 11.5H170.95V0.379999H174.582ZM174.582 10.012C175.883 10.012 176.881 9.66 177.574 8.956C178.267 8.252 178.614 7.26 178.614 5.98C178.614 4.68933 178.267 3.68133 177.574 2.956C176.881 2.23067 175.883 1.868 174.582 1.868H172.774V10.012H174.582ZM190.082 0.379999C191.266 0.379999 192.301 0.609333 193.186 1.068C194.082 1.516 194.77 2.16667 195.25 3.02C195.741 3.86267 195.986 4.84933 195.986 5.98C195.986 7.11067 195.741 8.092 195.25 8.924C194.77 9.756 194.082 10.396 193.186 10.844C192.301 11.2813 191.266 11.5 190.082 11.5H186.45V0.379999H190.082ZM190.082 10.012C191.383 10.012 192.381 9.66 193.074 8.956C193.767 8.252 194.114 7.26 194.114 5.98C194.114 4.68933 193.767 3.68133 193.074 2.956C192.381 2.23067 191.383 1.868 190.082 1.868H188.274V10.012H190.082ZM201.618 11.644C200.786 11.644 200.034 11.4573 199.362 11.084C198.69 10.7 198.162 10.1667 197.778 9.484C197.394 8.79067 197.202 7.99067 197.202 7.084C197.202 6.188 197.399 5.39333 197.794 4.7C198.188 4.00667 198.727 3.47333 199.41 3.1C200.092 2.72667 200.855 2.54 201.698 2.54C202.54 2.54 203.303 2.72667 203.986 3.1C204.668 3.47333 205.207 4.00667 205.602 4.7C205.996 5.39333 206.194 6.188 206.194 7.084C206.194 7.98 205.991 8.77467 205.586 9.468C205.18 10.1613 204.626 10.7 203.922 11.084C203.228 11.4573 202.46 11.644 201.618 11.644ZM201.618 10.06C202.087 10.06 202.524 9.948 202.93 9.724C203.346 9.5 203.682 9.164 203.938 8.716C204.194 8.268 204.322 7.724 204.322 7.084C204.322 6.444 204.199 5.90533 203.954 5.468C203.708 5.02 203.383 4.684 202.978 4.46C202.572 4.236 202.135 4.124 201.666 4.124C201.196 4.124 200.759 4.236 200.354 4.46C199.959 4.684 199.644 5.02 199.41 5.468C199.175 5.90533 199.058 6.444 199.058 7.084C199.058 8.03333 199.298 8.76933 199.778 9.292C200.268 9.804 200.882 10.06 201.618 10.06ZM207.389 7.084C207.389 6.17733 207.57 5.38267 207.933 4.7C208.306 4.00667 208.818 3.47333 209.469 3.1C210.12 2.72667 210.866 2.54 211.709 2.54C212.776 2.54 213.656 2.796 214.349 3.308C215.053 3.80933 215.528 4.52933 215.773 5.468H213.805C213.645 5.03067 213.389 4.68933 213.037 4.444C212.685 4.19867 212.242 4.076 211.709 4.076C210.962 4.076 210.365 4.34267 209.917 4.876C209.48 5.39867 209.261 6.13467 209.261 7.084C209.261 8.03333 209.48 8.77467 209.917 9.308C210.365 9.84133 210.962 10.108 211.709 10.108C212.765 10.108 213.464 9.644 213.805 8.716H215.773C215.517 9.612 215.037 10.3267 214.333 10.86C213.629 11.3827 212.754 11.644 211.709 11.644C210.866 11.644 210.12 11.4573 209.469 11.084C208.818 10.7 208.306 10.1667 207.933 9.484C207.57 8.79067 207.389 7.99067 207.389 7.084ZM225.575 2.684V11.5H223.751V10.46C223.463 10.8227 223.084 11.1107 222.615 11.324C222.156 11.5267 221.665 11.628 221.143 11.628C220.449 11.628 219.825 11.484 219.271 11.196C218.727 10.908 218.295 10.4813 217.975 9.916C217.665 9.35067 217.511 8.668 217.511 7.868V2.684H219.319V7.596C219.319 8.38533 219.516 8.99333 219.911 9.42C220.305 9.836 220.844 10.044 221.527 10.044C222.209 10.044 222.748 9.836 223.143 9.42C223.548 8.99333 223.751 8.38533 223.751 7.596V2.684H225.575ZM238.653 2.54C239.347 2.54 239.965 2.684 240.509 2.972C241.064 3.26 241.496 3.68667 241.805 4.252C242.125 4.81733 242.285 5.5 242.285 6.3V11.5H240.477V6.572C240.477 5.78267 240.28 5.18 239.885 4.764C239.491 4.33733 238.952 4.124 238.269 4.124C237.587 4.124 237.043 4.33733 236.637 4.764C236.243 5.18 236.045 5.78267 236.045 6.572V11.5H234.237V6.572C234.237 5.78267 234.04 5.18 233.645 4.764C233.251 4.33733 232.712 4.124 232.029 4.124C231.347 4.124 230.803 4.33733 230.397 4.764C230.003 5.18 229.805 5.78267 229.805 6.572V11.5H227.981V2.684H229.805V3.692C230.104 3.32933 230.483 3.04667 230.941 2.844C231.4 2.64133 231.891 2.54 232.413 2.54C233.117 2.54 233.747 2.68933 234.301 2.988C234.856 3.28667 235.283 3.71867 235.581 4.284C235.848 3.75067 236.264 3.32933 236.829 3.02C237.395 2.7 238.003 2.54 238.653 2.54ZM252.686 6.876C252.686 7.20667 252.665 7.50533 252.622 7.772H245.886C245.94 8.476 246.201 9.04133 246.67 9.468C247.14 9.89467 247.716 10.108 248.398 10.108C249.38 10.108 250.073 9.69733 250.478 8.876H252.446C252.18 9.68667 251.694 10.3533 250.99 10.876C250.297 11.388 249.433 11.644 248.398 11.644C247.556 11.644 246.798 11.4573 246.126 11.084C245.465 10.7 244.942 10.1667 244.558 9.484C244.185 8.79067 243.998 7.99067 243.998 7.084C243.998 6.17733 244.18 5.38267 244.542 4.7C244.916 4.00667 245.433 3.47333 246.094 3.1C246.766 2.72667 247.534 2.54 248.398 2.54C249.23 2.54 249.972 2.72133 250.622 3.084C251.273 3.44667 251.78 3.95867 252.142 4.62C252.505 5.27067 252.686 6.02267 252.686 6.876ZM250.782 6.3C250.772 5.628 250.532 5.08933 250.062 4.684C249.593 4.27867 249.012 4.076 248.318 4.076C247.689 4.076 247.15 4.27867 246.702 4.684C246.254 5.07867 245.988 5.61733 245.902 6.3H250.782ZM258.929 2.54C259.623 2.54 260.241 2.684 260.785 2.972C261.34 3.26 261.772 3.68667 262.081 4.252C262.391 4.81733 262.545 5.5 262.545 6.3V11.5H260.737V6.572C260.737 5.78267 260.54 5.18 260.145 4.764C259.751 4.33733 259.212 4.124 258.529 4.124C257.847 4.124 257.303 4.33733 256.897 4.764C256.503 5.18 256.305 5.78267 256.305 6.572V11.5H254.481V2.684H256.305V3.692C256.604 3.32933 256.983 3.04667 257.441 2.844C257.911 2.64133 258.407 2.54 258.929 2.54ZM267 4.172V9.052C267 9.38267 267.075 9.62267 267.224 9.772C267.384 9.91067 267.651 9.98 268.024 9.98H269.144V11.5H267.704C266.883 11.5 266.253 11.308 265.816 10.924C265.379 10.54 265.16 9.916 265.16 9.052V4.172H264.12V2.684H265.16V0.492H267V2.684H269.144V4.172H267ZM273.817 0.219999C274.905 0.219999 275.774 0.518666 276.425 1.116C277.086 1.71333 277.417 2.52933 277.417 3.564C277.417 4.64133 277.076 5.452 276.393 5.996C275.71 6.54 274.804 6.812 273.673 6.812L273.609 8.076H272.025L271.945 5.564H272.473C273.508 5.564 274.297 5.42533 274.841 5.148C275.396 4.87067 275.673 4.34267 275.673 3.564C275.673 2.99867 275.508 2.556 275.177 2.236C274.857 1.916 274.409 1.756 273.833 1.756C273.257 1.756 272.804 1.91067 272.473 2.22C272.142 2.52933 271.977 2.96133 271.977 3.516H270.265C270.265 2.876 270.409 2.30533 270.697 1.804C270.985 1.30267 271.396 0.913333 271.929 0.636C272.473 0.358666 273.102 0.219999 273.817 0.219999ZM272.793 11.612C272.462 11.612 272.185 11.5 271.961 11.276C271.737 11.052 271.625 10.7747 271.625 10.444C271.625 10.1133 271.737 9.836 271.961 9.612C272.185 9.388 272.462 9.276 272.793 9.276C273.113 9.276 273.385 9.388 273.609 9.612C273.833 9.836 273.945 10.1133 273.945 10.444C273.945 10.7747 273.833 11.052 273.609 11.276C273.385 11.5 273.113 11.612 272.793 11.612Z" fill="#7E7E7E"/>
</g>
</g>
<g id="upper frame" opacity="0.15">
<rect width="1440" height="1557" transform="translate(-739 -668)" fill="#454545"/>
</g>
<g id="Frame 758532429" filter="url(#filter0_d_0_1)">
<rect x="-183" y="-102" width="562" height="404" rx="12" fill="white"/>
<g id="id card-passport-badge">
<path id="Vector" d="M186.207 37.9312H6.89655C3.08769 37.9312 0 41.0188 0 44.8277V155.173C0 158.981 3.08769 162.069 6.89655 162.069H186.207C190.016 162.069 193.103 158.981 193.103 155.173V44.8277C193.103 41.0188 190.016 37.9312 186.207 37.9312Z" fill="#57A4FF"/>
<path id="Vector_2" d="M68.9654 65.5171H13.793V120.69H68.9654V65.5171Z" fill="#FF7956"/>
<path id="Vector_3" d="M65.5171 120.69H17.2412C17.2412 114.288 19.7843 108.148 24.311 103.622C28.8378 99.0948 34.9774 96.5518 41.3791 96.5518C47.7809 96.5518 53.9205 99.0948 58.4472 103.622C62.974 108.148 65.5171 114.288 65.5171 120.69Z" fill="#FFEB99"/>
<path id="Vector_4" d="M41.3795 96.552C47.0928 96.552 51.7243 91.9204 51.7243 86.2071C51.7243 80.4938 47.0928 75.8623 41.3795 75.8623C35.6662 75.8623 31.0347 80.4938 31.0347 86.2071C31.0347 91.9204 35.6662 96.552 41.3795 96.552Z" fill="#FFEB99"/>
<path id="Vector_5" d="M79.3105 0V51.7241H113.793V0H79.3105ZM96.5519 24.1379C95.1879 24.1379 93.8545 23.7335 92.7204 22.9757C91.5863 22.2178 90.7023 21.1408 90.1803 19.8806C89.6584 18.6204 89.5218 17.2337 89.7879 15.8959C90.054 14.5581 90.7108 13.3293 91.6753 12.3648C92.6398 11.4003 93.8687 10.7434 95.2065 10.4773C96.5443 10.2112 97.9309 10.3478 99.1911 10.8698C100.451 11.3918 101.528 12.2757 102.286 13.4099C103.044 14.544 103.448 15.8774 103.448 17.2414C103.443 19.0688 102.715 20.8198 101.422 22.1119C100.13 23.4041 98.3793 24.1325 96.5519 24.1379Z" fill="#E0E0E2"/>
<path id="Vector_6" d="M151.724 200C176.482 200 196.552 179.93 196.552 155.172C196.552 130.415 176.482 110.345 151.724 110.345C126.966 110.345 106.896 130.415 106.896 155.172C106.896 179.93 126.966 200 151.724 200Z" fill="#00E7F0"/>
<path id="Vector_7" d="M103.448 34.4829H89.6553V41.3795H103.448V34.4829Z" fill="#2488FF"/>
<path id="Vector_8" d="M141.38 170.986L126.576 156.183L121.7 161.059L138.942 178.3C139.588 178.947 140.465 179.31 141.38 179.31C142.294 179.31 143.171 178.947 143.817 178.3L181.748 140.369L176.873 135.493L141.38 170.986Z" fill="white"/>
<path id="Vector_9" d="M182.759 65.5171H79.3105V72.4136H182.759V65.5171Z" fill="white"/>
<path id="Vector_10" d="M182.759 82.7588H79.3105V89.6553H182.759V82.7588Z" fill="white"/>
<path id="Vector_11" d="M113.793 100H79.3105V106.897H113.793V100Z" fill="white"/>
<path id="Vector_12" d="M117.242 51.7241H82.7588V55.1724H117.242V51.7241Z" fill="#005ECE"/>
<path id="Vector_13" d="M117.241 37.9312H113.793V55.1725H117.241V37.9312Z" fill="#005ECE"/>
</g>
</g>
</g>
<defs>
<filter id="filter0_d_0_1" x="-203" y="-122" width="602" height="444" filterUnits="userSpaceOnUse" color-interpolation-filters="sRGB">
<feFlood flood-opacity="0" result="BackgroundImageFix"/>
<feColorMatrix in="SourceAlpha" type="matrix" values="0 0 0 0 0 0 0 0 0 0 0 0 0 0 0 0 0 0 127 0" result="hardAlpha"/>
<feOffset/>
<feGaussianBlur stdDeviation="10"/>
<feComposite in2="hardAlpha" operator="out"/>
<feColorMatrix type="matrix" values="0 0 0 0 0 0 0 0 0 0 0 0 0 0 0 0 0 0 0.25 0"/>
<feBlend mode="normal" in2="BackgroundImageFix" result="effect1_dropShadow_0_1"/>
<feBlend mode="normal" in="SourceGraphic" in2="effect1_dropShadow_0_1" result="shape"/>
</filter>
<clipPath id="clip0_0_1">
<rect width="1440" height="1557" fill="white" transform="translate(-739 -668)"/>
</clipPath>
</defs>
</svg>
