<svg width="62" height="62" viewBox="0 0 62 62" fill="none" xmlns="http://www.w3.org/2000/svg">
<path d="M31.0001 36.1665C18.0576 36.1665 7.51758 44.8465 7.51758 55.5415C7.51758 56.2648 8.08591 56.8332 8.80924 56.8332H53.1909C53.9142 56.8332 54.4826 56.2648 54.4826 55.5415C54.4826 44.8465 43.9426 36.1665 31.0001 36.1665Z" fill="#2FDE79"/>
<path d="M30.9999 5.1665C27.9516 5.1665 25.1616 6.22567 22.9399 8.00817C19.9691 10.359 18.0833 14.0015 18.0833 18.0832C18.0833 20.5115 18.7549 22.7848 19.9691 24.7223C22.1908 28.4682 26.2724 30.9998 30.9999 30.9998C34.2549 30.9998 37.2258 29.8115 39.4991 27.7707C40.5066 26.9182 41.3849 25.8848 42.0566 24.7223C43.2449 22.7848 43.9166 20.5115 43.9166 18.0832C43.9166 10.9532 38.1299 5.1665 30.9999 5.1665ZM37.6908 16.6882L30.7933 23.0432C30.3283 23.4823 29.7341 23.689 29.1399 23.689C28.5199 23.689 27.8999 23.4565 27.4349 22.9915L24.2574 19.7882C23.3016 18.8323 23.3016 17.3082 24.2574 16.3523C25.2133 15.3965 26.7374 15.3965 27.6933 16.3523L29.2174 17.8765L34.4099 13.0973C35.3916 12.1932 36.9158 12.2448 37.8199 13.2265C38.7241 14.234 38.6724 15.784 37.6908 16.6882Z" fill="#2FDE79"/>
</svg>
