<svg width="13" height="13" viewBox="0 0 13 13" fill="none" xmlns="http://www.w3.org/2000/svg">
<rect x="0.0429688" y="0.171875" width="12" height="12" rx="6" fill="#BAC5F4" fill-opacity="0.75"/>
<path d="M2.49435 6.6055C2.49435 6.7219 2.49195 6.8323 2.49555 6.9427C2.49675 6.9907 2.47995 7.0015 2.43675 6.9991C2.37675 6.9967 2.31675 6.9943 2.25795 6.9991C2.20635 7.0027 2.19195 6.9859 2.19315 6.9343C2.19555 6.5623 2.19435 6.1915 2.19435 5.8195V5.7571C2.19435 5.5939 2.19435 5.5939 2.36115 5.5687C2.47515 5.5519 2.58915 5.5351 2.70315 5.5483C3.00315 5.5843 3.17115 5.7751 3.17595 6.0895C3.17715 6.1495 3.16995 6.2083 3.15795 6.2671C3.09675 6.5851 2.81715 6.7051 2.54595 6.6199C2.53155 6.6151 2.51595 6.6115 2.49435 6.6055ZM2.49315 6.0823C2.49315 6.1627 2.49195 6.2431 2.49315 6.3235C2.49315 6.3415 2.48715 6.3595 2.51835 6.3691C2.73555 6.4399 2.85915 6.3559 2.86635 6.1291V6.0883C2.85915 5.8735 2.74995 5.7799 2.53755 5.8051C2.50275 5.8087 2.49075 5.8207 2.49195 5.8555C2.49555 5.9311 2.49315 6.0067 2.49315 6.0823ZM1.55835 5.2147C1.69275 5.1979 1.81155 5.2315 1.92915 5.2807C1.95555 5.2915 1.97835 5.2951 1.96035 5.3395C1.93875 5.3947 1.91355 5.4487 1.89915 5.5063C1.88955 5.5435 1.85355 5.5327 1.82475 5.5195C1.72155 5.4727 1.61355 5.4667 1.50315 5.4763C1.43715 5.4823 1.37475 5.5027 1.37235 5.5843C1.36995 5.6467 1.39995 5.6947 1.45755 5.7199C1.55835 5.7631 1.66035 5.8039 1.76235 5.8447C1.99995 5.9395 2.05995 6.1075 2.03835 6.2947C2.01435 6.4963 1.87635 6.5983 1.68675 6.6379C1.47915 6.6799 1.27995 6.6571 1.08435 6.5755C1.04235 6.5575 1.02675 6.5371 1.04955 6.4939C1.05435 6.4855 1.05555 6.4771 1.05915 6.4687C1.08195 6.4147 1.08195 6.3307 1.12755 6.3115C1.16595 6.2947 1.23075 6.3451 1.28595 6.3619C1.40115 6.3955 1.51875 6.3991 1.63395 6.3655C1.72875 6.3379 1.75035 6.2191 1.67835 6.1507C1.62435 6.0991 1.55355 6.0787 1.48635 6.0511C1.39395 6.0151 1.29915 5.9851 1.21515 5.9275C1.07475 5.8315 1.03635 5.6935 1.06275 5.5375C1.08675 5.3959 1.17555 5.3011 1.31115 5.2483C1.39395 5.2171 1.47555 5.1991 1.55835 5.2147ZM3.58275 6.1963C3.63075 6.3499 3.74115 6.3943 3.87795 6.3955C3.96315 6.3967 4.04715 6.3859 4.12875 6.3583C4.16475 6.3463 4.17795 6.3559 4.18155 6.3907C4.18395 6.4159 4.18875 6.4411 4.19355 6.4651C4.21755 6.5995 4.21875 6.6007 4.08435 6.6283C3.99435 6.6463 3.90315 6.6583 3.81075 6.6547C3.46875 6.6415 3.26595 6.4183 3.28515 6.0763C3.30075 5.7907 3.45195 5.5987 3.70035 5.5507C3.98955 5.4943 4.22955 5.6647 4.26675 5.9575C4.27395 6.0187 4.26915 6.0811 4.27275 6.1423C4.27635 6.1903 4.25355 6.1975 4.21275 6.1975C4.02915 6.1951 3.84555 6.1963 3.66315 6.1963H3.58275ZM3.58155 5.9911C3.70635 5.9911 3.82515 5.9899 3.94395 5.9911C3.98115 5.9911 3.98475 5.9755 3.97995 5.9443C3.96675 5.8675 3.90795 5.8039 3.83235 5.7907C3.73875 5.7751 3.65835 5.8135 3.62115 5.8939C3.60675 5.9227 3.59715 5.9527 3.58155 5.9911ZM9.67755 6.1963H9.38235C9.34875 6.1963 9.32355 6.1903 9.35115 6.2431C9.40515 6.3499 9.49275 6.3871 9.60075 6.3955C9.69315 6.4015 9.78435 6.3919 9.87195 6.3619C9.91995 6.3451 9.93195 6.3607 9.93555 6.4027C9.93795 6.4279 9.94275 6.4531 9.94755 6.4771C9.96915 6.5971 9.96915 6.5995 9.85275 6.6247C9.70875 6.6559 9.56235 6.6715 9.41715 6.6343C9.22515 6.5851 9.10155 6.4651 9.05595 6.2695C9.02595 6.1387 9.02835 6.0103 9.07275 5.8831C9.17235 5.5987 9.47715 5.4643 9.75435 5.5807C9.91635 5.6491 9.99195 5.7811 10.0184 5.9479C10.0304 6.0271 10.0544 6.1219 10.0124 6.1831C9.98115 6.2275 9.88395 6.1939 9.81555 6.1963C9.76875 6.1975 9.72315 6.1963 9.67755 6.1963ZM9.52995 5.9911C9.58515 5.9911 9.64035 5.9899 9.69435 5.9911C9.72915 5.9923 9.73755 5.9791 9.73155 5.9467C9.71715 5.8579 9.64755 5.7943 9.55755 5.7895C9.45075 5.7847 9.35475 5.8615 9.33555 5.9659C9.33075 5.9899 9.34635 5.9911 9.36435 5.9911H9.52995ZM7.77795 6.2395V6.5491C7.77795 6.5755 7.77915 6.5971 7.74315 6.6031C7.54395 6.6415 7.34355 6.6679 7.14195 6.6295C6.95595 6.5947 6.86595 6.4783 6.86835 6.2911C6.87075 6.1579 6.93675 6.0607 7.06275 6.0115C7.18275 5.9635 7.30995 5.9575 7.43475 5.9779C7.48995 5.9863 7.49355 5.9659 7.48515 5.9251C7.47315 5.8615 7.43715 5.8171 7.37115 5.8027C7.26795 5.7799 7.16475 5.7907 7.06515 5.8183C7.00635 5.8351 6.99195 5.8159 6.99195 5.7643C6.99195 5.7535 6.98955 5.7415 6.98715 5.7307C6.96195 5.5831 6.96075 5.5819 7.10835 5.5591C7.20315 5.5447 7.29915 5.5363 7.39635 5.5447C7.64235 5.5639 7.76595 5.6899 7.77435 5.9371C7.78035 6.0379 7.77675 6.1387 7.77795 6.2395ZM7.48875 6.2983V6.2155C7.48875 6.1951 7.48515 6.1795 7.46115 6.1771C7.39035 6.1711 7.31955 6.1639 7.24995 6.1855C7.19235 6.2035 7.16355 6.2431 7.16715 6.3043C7.17075 6.3643 7.20675 6.3955 7.26195 6.4063C7.29795 6.4135 7.33515 6.4135 7.37115 6.4135C7.48995 6.4135 7.48995 6.4123 7.48875 6.2983ZM7.97475 6.1111C7.97475 5.9599 7.97595 5.8087 7.97475 5.6575C7.97475 5.6239 7.97835 5.6035 8.01795 5.5951C8.18715 5.5591 8.35635 5.5315 8.52915 5.5531C8.74155 5.5795 8.85915 5.6983 8.87835 5.9119C8.89875 6.1363 8.88195 6.3607 8.88675 6.5863C8.88795 6.6223 8.86995 6.6283 8.83995 6.6271C8.77635 6.6259 8.71155 6.6235 8.64795 6.6271C8.60115 6.6295 8.58435 6.6163 8.58555 6.5671C8.58915 6.4135 8.58675 6.2599 8.58675 6.1063C8.58675 6.0811 8.58675 6.0559 8.58555 6.0307C8.57475 5.8339 8.52435 5.7907 8.32875 5.8051C8.28315 5.8087 8.27355 5.8255 8.27355 5.8675C8.27595 6.0991 8.27355 6.3307 8.27595 6.5623C8.27595 6.6115 8.26755 6.6331 8.21235 6.6283C8.15115 6.6235 8.08875 6.6247 8.02635 6.6283C7.98315 6.6307 7.97235 6.6151 7.97235 6.5731C7.97595 6.4183 7.97475 6.2647 7.97475 6.1111Z" fill="#193B7E"/>
<path d="M8.60469 4.61007C8.74629 4.54407 8.89869 4.52607 9.05109 4.51407C9.08709 4.51167 9.10389 4.50927 9.08949 4.46247C9.07749 4.42287 9.06909 4.37727 9.07989 4.33407C9.11589 4.33047 9.13269 4.30287 9.15309 4.27767C9.22269 4.19007 9.27789 4.09287 9.35829 4.01367C9.39069 4.13487 9.45189 4.24887 9.45669 4.37607C9.46509 4.63047 9.35949 4.83687 9.18069 5.00967V4.96407C9.22029 4.87047 9.21069 4.77807 9.16749 4.68927C9.16629 4.67487 9.16869 4.65807 9.15429 4.64727C9.15309 4.62447 9.14829 4.60407 9.12789 4.59087C9.12549 4.56927 9.12789 4.54527 9.09789 4.52847C9.10389 4.55727 9.10869 4.57767 9.12549 4.59327C9.12669 4.61607 9.12909 4.63767 9.15309 4.64847C9.15309 4.66407 9.14949 4.68087 9.16749 4.68927C9.18309 4.78047 9.18429 4.87287 9.18189 4.96527C9.16149 4.98207 9.15669 5.00607 9.15309 5.03127C9.00309 5.16087 8.82789 5.22327 8.63109 5.22687C8.51229 5.22927 8.39229 5.22807 8.27469 5.25207C8.26869 5.22207 8.28549 5.19927 8.29869 5.17647C8.33949 5.10807 8.38029 5.04087 8.42229 4.97367C8.49429 4.85847 8.56029 4.73967 8.60469 4.61007Z" fill="#F05968"/>
<path d="M10.2643 7.00901C10.4503 7.00901 10.6351 7.01021 10.8211 7.00781C10.8631 7.00781 10.8763 7.01381 10.8679 7.06181C10.8343 7.24181 10.8055 7.42301 10.7779 7.60421C10.7719 7.64741 10.7539 7.65941 10.7107 7.65821C10.3375 7.65701 9.96313 7.65581 9.58993 7.65821C9.53953 7.65821 9.52873 7.64621 9.53833 7.59701C9.57073 7.41941 9.59953 7.24061 9.62713 7.06181C9.63433 7.01861 9.65233 7.00781 9.69433 7.00781C9.88393 7.01021 10.0747 7.00901 10.2643 7.00901ZM10.4935 7.56821H10.6171C10.6495 7.56941 10.6519 7.54661 10.6555 7.52261C10.6615 7.48781 10.6351 7.49381 10.6159 7.49261C10.5859 7.49141 10.5559 7.49261 10.5259 7.49261C10.4347 7.49261 10.4335 7.48781 10.4587 7.40021C10.4731 7.34861 10.5091 7.37381 10.5367 7.37021C10.5751 7.36541 10.6291 7.38461 10.6243 7.31861C10.6195 7.26101 10.5691 7.30541 10.5427 7.29221C10.5235 7.28261 10.4791 7.31381 10.4875 7.26101C10.4935 7.22741 10.4803 7.17701 10.5451 7.18061C10.5883 7.18421 10.6327 7.18061 10.6759 7.18181C10.7095 7.18301 10.7095 7.15901 10.7131 7.13621C10.7191 7.10021 10.6927 7.10741 10.6735 7.10741C10.6111 7.10621 10.5499 7.10981 10.4875 7.10621C10.4443 7.10381 10.4263 7.11821 10.4203 7.16141C10.4071 7.24781 10.3891 7.33301 10.3711 7.41821C10.3423 7.56941 10.3411 7.56941 10.4935 7.56821ZM10.1803 7.10741C10.1251 7.10741 10.0699 7.10861 10.0147 7.10741C9.97633 7.10621 9.97873 7.13621 9.97633 7.15901C9.97273 7.19141 9.99913 7.17941 10.0147 7.18061C10.0351 7.18301 10.0567 7.18301 10.0759 7.18061C10.1179 7.17581 10.1203 7.19381 10.1119 7.22861C10.0915 7.32221 10.0735 7.41701 10.0567 7.51181C10.0531 7.52981 10.0303 7.55861 10.0687 7.56581C10.0999 7.57181 10.1311 7.57541 10.1371 7.52621C10.1479 7.44941 10.1659 7.37381 10.1815 7.29701C10.2031 7.18661 10.2031 7.18661 10.3111 7.18061C10.3207 7.18061 10.3303 7.18181 10.3387 7.17941C10.3627 7.17101 10.3615 7.14701 10.3627 7.12781C10.3651 7.10261 10.3435 7.10741 10.3291 7.10741H10.1803ZM9.79153 7.56821C9.83833 7.56821 9.87793 7.56581 9.91633 7.56941C9.95713 7.57301 9.96073 7.54541 9.96313 7.51781C9.96673 7.48181 9.93553 7.49501 9.91873 7.49381C9.87793 7.49141 9.83593 7.49141 9.79513 7.49381C9.75913 7.49501 9.74593 7.48901 9.75553 7.44701C9.77713 7.35341 9.79513 7.25861 9.81073 7.16381C9.81433 7.14461 9.83713 7.11101 9.79033 7.10741C9.75673 7.10381 9.73513 7.10861 9.72913 7.15061C9.71593 7.24061 9.69433 7.33061 9.67753 7.42061C9.66913 7.46741 9.64033 7.52981 9.66073 7.55741C9.68473 7.58981 9.75193 7.56341 9.79153 7.56821Z" fill="#23478B"/>
<path d="M10.1711 5.83641C10.1711 5.65881 10.1723 5.51121 10.1699 5.36481C10.1687 5.32281 10.1807 5.30241 10.2239 5.29761C10.2899 5.29041 10.3559 5.28081 10.4207 5.26641C10.4663 5.25681 10.4747 5.27241 10.4735 5.31441C10.4699 5.38521 10.4735 5.45721 10.4723 5.52801C10.4711 5.56041 10.4819 5.57241 10.5155 5.57121C10.6007 5.56881 10.6859 5.57241 10.7699 5.57001C10.8155 5.56761 10.8383 5.57841 10.8323 5.62881C10.8263 5.69001 10.8575 5.76921 10.8203 5.80761C10.7831 5.84721 10.7027 5.81601 10.6427 5.82081C10.5887 5.82441 10.5179 5.79681 10.4843 5.83161C10.4507 5.86641 10.4759 5.93601 10.4747 5.99121C10.4735 6.06681 10.4723 6.14241 10.4747 6.21801C10.4795 6.35481 10.5335 6.40401 10.6703 6.39561C10.7027 6.39321 10.7363 6.39321 10.7651 6.38121C10.8311 6.35241 10.8419 6.38961 10.8467 6.44001C10.8479 6.44961 10.8491 6.45801 10.8503 6.46761C10.8767 6.61161 10.8767 6.61281 10.7315 6.63921C10.6451 6.65481 10.5575 6.65601 10.4711 6.64041C10.3079 6.61281 10.2095 6.50961 10.1855 6.34041C10.1579 6.16401 10.1783 5.98401 10.1711 5.83641ZM5.35188 5.84121C5.35188 5.65881 5.35308 5.50761 5.35068 5.35641C5.35068 5.32521 5.35548 5.30481 5.39148 5.30001C5.46468 5.29041 5.53668 5.27961 5.60868 5.26641C5.64348 5.26041 5.65308 5.27241 5.65188 5.30601C5.65068 5.37681 5.65428 5.44881 5.65068 5.51961C5.64828 5.56281 5.66388 5.57361 5.70588 5.57241C5.79108 5.56881 5.87508 5.57361 5.96028 5.57121C5.99868 5.57001 6.01428 5.57961 6.01188 5.62041C6.00828 5.68401 6.03228 5.76561 5.99988 5.80641C5.96628 5.85081 5.87988 5.81961 5.81748 5.82081C5.65188 5.82321 5.65188 5.82201 5.65188 5.98881C5.65188 6.07161 5.64948 6.15441 5.65428 6.23601C5.66148 6.35601 5.71308 6.40041 5.83068 6.39561C5.87628 6.39321 5.92188 6.38721 5.96628 6.37401C6.00468 6.36321 6.01548 6.37401 6.01788 6.41001C6.02028 6.43761 6.02748 6.46401 6.03228 6.49161C6.05388 6.60441 6.05388 6.60441 5.93868 6.63321C5.84148 6.65721 5.74308 6.65841 5.64468 6.64161C5.48628 6.61401 5.39028 6.51561 5.36388 6.35361C5.33508 6.17241 5.35908 5.99121 5.35188 5.84121ZM4.94268 5.54241C5.01228 5.54121 5.09268 5.55681 5.17188 5.58321C5.20308 5.59401 5.21748 5.60481 5.20428 5.64201C5.18748 5.69121 5.17428 5.74281 5.16468 5.79441C5.15748 5.83041 5.14428 5.84001 5.10948 5.82681C5.05308 5.80521 4.99428 5.80041 4.93428 5.80161C4.77348 5.80401 4.69788 5.92041 4.68108 6.05001C4.67148 6.11721 4.67748 6.18561 4.70748 6.25281C4.75668 6.35961 4.84188 6.39681 4.95108 6.39801C5.02068 6.39921 5.08908 6.39081 5.15388 6.36921C5.18388 6.35961 5.19588 6.36441 5.19948 6.39441C5.20428 6.43281 5.21148 6.47121 5.21748 6.50961C5.23428 6.60921 5.23428 6.60921 5.13348 6.63321C5.01588 6.66081 4.89708 6.66561 4.77828 6.64281C4.54068 6.59601 4.40868 6.43161 4.38228 6.15681C4.34748 5.80761 4.58508 5.54121 4.94268 5.54241ZM6.17988 6.12201V5.67561C6.17988 5.64561 6.18348 5.62521 6.21828 5.61441C6.41148 5.55441 6.60708 5.52801 6.80748 5.57121C6.85668 5.58201 6.87228 5.59881 6.85668 5.64921C6.83988 5.70561 6.84948 5.78121 6.81468 5.81961C6.77868 5.85921 6.71028 5.81001 6.65388 5.80641C6.48588 5.79801 6.48108 5.80161 6.48108 5.96361C6.48108 6.16521 6.47988 6.36681 6.48228 6.56841C6.48348 6.61761 6.46788 6.63201 6.42108 6.62961C6.36348 6.62601 6.30588 6.62601 6.24948 6.62961C6.19788 6.63321 6.17748 6.62121 6.17988 6.56361C6.18348 6.41481 6.17988 6.26841 6.17988 6.12201Z" fill="#193B7E"/>
<path d="M9.19936 7.66228C9.00856 7.66348 8.88736 7.52308 8.91376 7.33468C8.94496 7.10788 9.12736 6.96388 9.33616 7.00228C9.37336 7.00948 9.40696 7.02268 9.43696 7.04428C9.53176 7.11268 9.52816 7.15228 9.42616 7.20148C9.40216 7.21348 9.38896 7.21228 9.36736 7.19308C9.29536 7.12708 9.19336 7.13788 9.13216 7.21348C9.06496 7.29508 9.06496 7.43428 9.13096 7.48588C9.17176 7.51828 9.26296 7.52188 9.30736 7.49548C9.33376 7.47988 9.33856 7.45588 9.33496 7.43068C9.33136 7.40308 9.30616 7.41748 9.29056 7.41388C9.27256 7.40908 9.23296 7.42708 9.24256 7.38868C9.25096 7.35388 9.23056 7.29988 9.28936 7.28788H9.29656C9.51616 7.26388 9.51616 7.26388 9.47536 7.47388C9.44656 7.60828 9.37096 7.66108 9.19936 7.66228Z" fill="#F26F2A"/>
<path d="M8.60744 4.60938C8.56424 4.73897 8.49824 4.85658 8.42624 4.97178C8.38424 5.03898 8.34224 5.10618 8.30264 5.17457C8.28944 5.19737 8.27264 5.22138 8.27864 5.25018C8.15024 5.28978 8.02904 5.33898 7.94264 5.45418C7.91984 5.20218 8.21624 4.75457 8.60744 4.60938Z" fill="#F8B39A"/>
<path d="M8.49897 7.54043C8.48697 7.54043 8.47617 7.54163 8.46417 7.54043C8.43537 7.53803 8.38857 7.55363 8.38017 7.53203C8.36817 7.49843 8.37777 7.45163 8.40177 7.42163C8.49777 7.30283 8.59617 7.18403 8.69817 7.07003C8.74017 7.02323 8.80137 7.05083 8.85417 7.05323C8.87457 7.05443 8.86497 7.07963 8.86137 7.09403C8.83977 7.18043 8.83857 7.27043 8.80257 7.35323C8.79417 7.37243 8.79297 7.40483 8.81697 7.41203C8.84337 7.42043 8.86137 7.42883 8.84697 7.45643C8.83257 7.48523 8.85897 7.53683 8.79897 7.54043C8.75577 7.54283 8.77257 7.58123 8.76297 7.60283C8.75457 7.61963 8.76057 7.64723 8.73057 7.64603C8.69457 7.64483 8.65737 7.65443 8.62257 7.64003C8.61897 7.63883 8.61657 7.62683 8.61777 7.62203C8.65377 7.51043 8.57097 7.54403 8.51817 7.54043H8.49897ZM8.54217 7.40843C8.66817 7.42763 8.67297 7.42163 8.68257 7.25243C8.63577 7.30403 8.59257 7.35203 8.54217 7.40843Z" fill="#F26F2A"/>
<path d="M9.35841 4.0141C9.27921 4.0933 9.22281 4.1905 9.15321 4.2781C9.13281 4.3033 9.11721 4.33089 9.08001 4.33449C9.06681 4.30329 9.07761 4.27929 9.09801 4.25529C9.17841 4.16409 9.25401 4.0681 9.31041 3.9601C9.31761 3.9445 9.33561 3.92889 9.34641 3.93849C9.37041 3.95769 9.35961 3.9877 9.35841 4.0141Z" fill="#F8B39A"/>
<path d="M9.31396 3.96094C9.25636 4.06894 9.18196 4.16494 9.10156 4.25614C9.11956 4.12054 9.19156 4.02214 9.31396 3.96094Z" fill="#F05968"/>
<path d="M9.17994 4.96484V5.01044C9.17514 5.02244 9.16554 5.02964 9.15234 5.03084C9.15594 5.00684 9.16074 4.98284 9.17994 4.96484Z" fill="#F8B39A"/>
<path d="M2.49346 6.08288C2.49346 6.00728 2.49466 5.93168 2.49226 5.85608C2.49106 5.82008 2.50426 5.80928 2.53786 5.80568C2.75026 5.78048 2.85946 5.87288 2.86666 6.08888V6.12968C2.85946 6.35648 2.73586 6.44168 2.51866 6.36968C2.48746 6.36008 2.49346 6.34208 2.49346 6.32408V6.08288ZM3.58186 5.99168C3.59746 5.95328 3.60706 5.92328 3.62146 5.89568C3.65986 5.81528 3.74026 5.77688 3.83266 5.79248C3.90706 5.80568 3.96706 5.86808 3.98026 5.94608C3.98506 5.97728 3.98146 5.99288 3.94426 5.99288C3.82546 5.99048 3.70666 5.99168 3.58186 5.99168ZM9.53026 5.99168H9.36586C9.34906 5.99168 9.33346 5.99048 9.33706 5.96648C9.35626 5.86208 9.45226 5.78528 9.55906 5.79008C9.64786 5.79368 9.71746 5.85848 9.73306 5.94728C9.73906 5.98088 9.73066 5.99288 9.69586 5.99168C9.63946 5.99048 9.58426 5.99168 9.53026 5.99168ZM7.48906 6.29888C7.48906 6.41288 7.48906 6.41408 7.37146 6.41408C7.33546 6.41408 7.29826 6.41288 7.26226 6.40688C7.20826 6.39608 7.17106 6.36608 7.16746 6.30488C7.16386 6.24368 7.19146 6.20408 7.25026 6.18608C7.31986 6.16448 7.39066 6.17168 7.46146 6.17768C7.48546 6.18008 7.49026 6.19568 7.48906 6.21608V6.29888Z" fill="#CBD4F7"/>
<path d="M9.18556 4.9661C9.18916 4.8737 9.18676 4.7813 9.17116 4.6901C9.21556 4.7801 9.22516 4.8713 9.18556 4.9661ZM9.12916 4.5941C9.11116 4.5785 9.10636 4.5581 9.10156 4.5293C9.13276 4.5473 9.12916 4.5701 9.13156 4.5917L9.12916 4.5941ZM9.13156 4.5929C9.15196 4.6061 9.15676 4.6265 9.15796 4.6493L9.15676 4.6505C9.13276 4.6397 9.13036 4.6181 9.12916 4.5953C9.12916 4.5941 9.13156 4.5929 9.13156 4.5929Z" fill="#F8B39A"/>
<path d="M9.15346 4.64844C9.16786 4.65924 9.16546 4.67484 9.16666 4.69044C9.14866 4.68204 9.15226 4.66524 9.15346 4.64844Z" fill="#F8B39A"/>
<path d="M10.4956 7.56967C10.3444 7.56967 10.3444 7.56967 10.3744 7.41967C10.3912 7.33447 10.4104 7.24927 10.4236 7.16287C10.4296 7.11967 10.4488 7.10527 10.4908 7.10767C10.552 7.11127 10.6144 7.10767 10.6768 7.10887C10.696 7.10887 10.7224 7.10167 10.7164 7.13767C10.7128 7.16047 10.7128 7.18447 10.6792 7.18327C10.636 7.18207 10.5916 7.18567 10.5484 7.18207C10.4836 7.17727 10.4968 7.22887 10.4908 7.26247C10.4824 7.31527 10.5268 7.28407 10.546 7.29367C10.5724 7.30687 10.6228 7.26247 10.6276 7.32007C10.6324 7.38607 10.5784 7.36687 10.54 7.37167C10.5136 7.37527 10.4764 7.34887 10.462 7.40167C10.438 7.48927 10.4392 7.49407 10.5292 7.49407H10.6192C10.6384 7.49407 10.6636 7.48807 10.6588 7.52407C10.6552 7.54687 10.6528 7.57087 10.6204 7.56967H10.4956ZM10.1824 7.10887H10.3336C10.348 7.10887 10.3696 7.10407 10.3672 7.12927C10.366 7.14847 10.3672 7.17247 10.3432 7.18087C10.3348 7.18327 10.3252 7.18207 10.3156 7.18207C10.2076 7.18807 10.2076 7.18807 10.186 7.29847C10.1704 7.37527 10.1524 7.45087 10.1416 7.52767C10.1344 7.57687 10.1032 7.57327 10.0732 7.56727C10.0348 7.56007 10.0576 7.53127 10.0612 7.51327C10.078 7.41847 10.096 7.32367 10.1164 7.23007C10.1236 7.19527 10.1212 7.17727 10.0804 7.18207C10.06 7.18447 10.0396 7.18447 10.0192 7.18207C10.0036 7.18087 9.9772 7.19167 9.9808 7.16047C9.9832 7.13767 9.9808 7.10767 10.0192 7.10887C10.072 7.11007 10.1272 7.10887 10.1824 7.10887Z" fill="#FEFEFE"/>
</svg>
