<svg width="18" height="17" viewBox="0 0 18 17" fill="none" xmlns="http://www.w3.org/2000/svg">
<g clip-path="url(#clip0_10579_209358)">
<rect width="16.7694" height="16.7694" transform="translate(0.929688 0.0644531)" fill="white"/>
<path d="M9.31438 16.8338C13.9451 16.8338 17.6991 13.0799 17.6991 8.44915C17.6991 3.81841 13.9451 0.0644531 9.31438 0.0644531C4.68364 0.0644531 0.929688 3.81841 0.929688 8.44915C0.929688 13.0799 4.68364 16.8338 9.31438 16.8338Z" fill="#0052B4"/>
<path d="M9.31401 3.3457L9.5855 4.18119H10.4639L9.75322 4.69754L10.0247 5.53303L9.31401 5.01665L8.60328 5.53303L8.87476 4.69754L8.16406 4.18119H9.04252L9.31401 3.3457Z" fill="#FFDA44"/>
<path d="M5.70667 4.83951L6.48946 5.23831L7.11061 4.61719L6.97315 5.48481L7.75591 5.88364L6.88825 6.02107L6.75082 6.88875L6.35199 6.10599L5.48438 6.24346L6.10553 5.6223L5.70667 4.83951Z" fill="#FFDA44"/>
<path d="M4.21094 8.44878L5.04643 8.17729V7.29883L5.56274 8.00956L6.39826 7.73807L5.88185 8.44878L6.39826 9.15948L5.56274 8.88802L5.04643 9.59872V8.72026L4.21094 8.44878Z" fill="#FFDA44"/>
<path d="M5.70667 12.059L6.1055 11.2762L5.48438 10.655L6.35203 10.7925L6.75079 10.0098L6.88825 10.8774L7.75587 11.0148L6.97321 11.4137L7.11061 12.2813L6.48946 11.6601L5.70667 12.059Z" fill="#FFDA44"/>
<path d="M9.31401 13.5544L9.04249 12.719H8.16406L8.8748 12.2026L8.60328 11.3672L9.31401 11.8835L10.0247 11.3672L9.75322 12.2026L10.4639 12.719H9.58546L9.31401 13.5544Z" fill="#FFDA44"/>
<path d="M12.9242 12.059L12.1414 11.6602L11.5202 12.2813L11.6577 11.4136L10.875 11.0148L11.7426 10.8774L11.88 10.0098L12.2788 10.7925L13.1465 10.655L12.5253 11.2762L12.9242 12.059Z" fill="#FFDA44"/>
<path d="M14.4177 8.44878L13.5822 8.72026V9.59872L13.0659 8.88799L12.2305 9.15948L12.7468 8.44878L12.2305 7.73807L13.0659 8.00956L13.5822 7.29883V8.17732L14.4177 8.44878Z" fill="#FFDA44"/>
<path d="M12.9242 4.83948L12.5253 5.62227L13.1465 6.24343L12.2788 6.10593L11.88 6.88869L11.7426 6.02103L10.875 5.88357L11.6577 5.48477L11.5202 4.61719L12.1414 5.23831L12.9242 4.83948Z" fill="#FFDA44"/>
</g>
<defs>
<clipPath id="clip0_10579_209358">
<rect width="16.7694" height="16.7694" fill="white" transform="translate(0.929688 0.0644531)"/>
</clipPath>
</defs>
</svg>
