<svg width="18" height="18" viewBox="0 0 18 18" fill="none" xmlns="http://www.w3.org/2000/svg">
<g clip-path="url(#clip0_10579_209362)">
<rect width="16.7694" height="16.7694" transform="translate(0.929688 0.271484)" fill="white"/>
<path d="M17.1776 11.5717C17.5146 10.6634 17.6991 9.68089 17.6991 8.65527C17.6991 7.62965 17.5146 6.64724 17.1776 5.73887L9.31438 5.00977L1.45121 5.73887C1.11418 6.64724 0.929688 7.62965 0.929688 8.65527C0.929688 9.68089 1.11418 10.6634 1.45121 11.5717L9.31438 12.3008L17.1776 11.5717Z" fill="#F0F0F0"/>
<path d="M9.31242 17.0406C12.9175 17.0406 15.9909 14.7652 17.1756 11.5723H1.44922C2.63395 14.7652 5.70727 17.0406 9.31242 17.0406Z" fill="#D80027"/>
<path d="M9.31242 0.271484C5.70727 0.271484 2.63395 2.54688 1.44922 5.73978H17.1756C15.9909 2.54688 12.9175 0.271484 9.31242 0.271484Z" fill="#D80027"/>
</g>
<defs>
<clipPath id="clip0_10579_209362">
<rect width="16.7694" height="16.7694" fill="white" transform="translate(0.929688 0.271484)"/>
</clipPath>
</defs>
</svg>
