<svg width="13" height="13" viewBox="0 0 13 13" fill="none" xmlns="http://www.w3.org/2000/svg">
<path d="M5.91797 11.4609C3.09297 11.4609 0.792969 9.16094 0.792969 6.33594C0.792969 3.51094 3.09297 1.21094 5.91797 1.21094C8.74297 1.21094 11.043 3.51094 11.043 6.33594C11.043 9.16094 8.74297 11.4609 5.91797 11.4609ZM5.91797 1.96094C3.50297 1.96094 1.54297 3.92594 1.54297 6.33594C1.54297 8.74594 3.50297 10.7109 5.91797 10.7109C8.33297 10.7109 10.293 8.74594 10.293 6.33594C10.293 3.92594 8.33297 1.96094 5.91797 1.96094Z" fill="#7C7C7C"/>
<path d="M11.1667 11.9607C11.0717 11.9607 10.9767 11.9257 10.9017 11.8507L9.90172 10.8507C9.75672 10.7057 9.75672 10.4657 9.90172 10.3207C10.0467 10.1757 10.2867 10.1757 10.4317 10.3207L11.4317 11.3207C11.5767 11.4657 11.5767 11.7057 11.4317 11.8507C11.3567 11.9257 11.2617 11.9607 11.1667 11.9607Z" fill="#7C7C7C"/>
</svg>
