<svg width="13" height="13" viewBox="0 0 13 13" fill="none" xmlns="http://www.w3.org/2000/svg">
<path d="M8.41922 1.29883H4.22922C2.40922 1.29883 1.32422 2.38383 1.32422 4.20383V8.38883C1.32422 10.2138 2.40922 11.2988 4.22922 11.2988H8.41422C10.2342 11.2988 11.3192 10.2138 11.3192 8.39383V4.20383C11.3242 2.38383 10.2392 1.29883 8.41922 1.29883ZM6.32422 9.42383C5.42922 9.42383 4.72922 8.97883 4.25422 8.53883V8.89383C4.25422 9.09883 4.08422 9.26883 3.87922 9.26883C3.67422 9.26883 3.50422 9.09883 3.50422 8.89383V7.51883C3.50422 7.31383 3.67422 7.14383 3.87922 7.14383H5.11922C5.32422 7.14383 5.49422 7.31383 5.49422 7.51883C5.49422 7.72383 5.32422 7.89383 5.11922 7.89383H4.66922C5.03922 8.26383 5.61422 8.67383 6.32422 8.67383C7.63422 8.67383 8.69922 7.60883 8.69922 6.29883C8.69922 6.09383 8.86922 5.92383 9.07422 5.92383C9.27922 5.92383 9.44922 6.09383 9.44922 6.29883C9.44922 8.02383 8.04922 9.42383 6.32422 9.42383ZM9.44922 5.06883C9.44922 5.08383 9.44922 5.09883 9.44922 5.10883C9.44422 5.16383 9.42922 5.21383 9.40422 5.25883C9.37922 5.30383 9.34422 5.34383 9.29922 5.37883C9.26422 5.40383 9.22422 5.42383 9.17922 5.43883C9.14422 5.44883 9.10922 5.45383 9.07422 5.45383H7.85922C7.65422 5.45383 7.48422 5.28383 7.48422 5.07883C7.48422 4.87383 7.65422 4.70383 7.85922 4.70383H8.27422C7.87422 4.33383 7.22922 3.92383 6.33422 3.92383C5.02422 3.92383 3.95922 4.98883 3.95922 6.29883C3.95922 6.50383 3.78922 6.67383 3.58422 6.67383C3.37922 6.67383 3.19922 6.50383 3.19922 6.29883C3.19922 4.57383 4.59922 3.17383 6.32422 3.17383C7.39922 3.17383 8.18922 3.63883 8.69922 4.08383V3.70383C8.69922 3.49883 8.86922 3.32883 9.07422 3.32883C9.27922 3.32883 9.44922 3.49883 9.44922 3.70383V5.06883Z" fill="#92ABFE"/>
</svg>
