<svg width="12" height="13" viewBox="0 0 12 13" fill="none" xmlns="http://www.w3.org/2000/svg">
<path d="M2.08734 8.83434L2.08737 8.83425C1.70683 8.6897 1.4107 8.44822 1.21469 8.10386C1.02214 7.76557 0.938149 7.34928 0.938149 6.86996V4.29495C0.938149 3.63718 1.09719 3.09188 1.47533 2.71374C1.85347 2.33561 2.39877 2.17657 3.05655 2.17657H7.45155C7.99949 2.17657 8.46811 2.28568 8.8294 2.54187C9.19695 2.80251 9.4176 3.18979 9.51412 3.67167C9.51417 3.67191 9.51422 3.67216 9.51427 3.67241L9.22656 3.72995C9.26156 3.89995 9.27655 4.08495 9.27655 4.29495V6.86996C9.27655 8.09996 8.68155 8.69495 7.45155 8.69495H3.05655C2.85155 8.69495 2.66656 8.67495 2.47656 8.63495L2.08734 8.83434ZM2.08734 8.83434L2.09463 8.8369C2.20587 8.87583 2.31513 8.90506 2.42204 8.9233L2.08734 8.83434ZM2.39158 9.07885L2.37815 9.0758L2.3645 9.07402C2.28079 9.0631 2.16444 9.03137 2.03062 8.98061L2.02981 8.98031C1.73543 8.86964 1.42527 8.68241 1.18775 8.36254C0.951772 8.04473 0.769965 7.5725 0.769965 6.85995V4.28494C0.769965 3.52308 0.987967 2.96223 1.3584 2.59179C1.72884 2.22136 2.2897 2.00336 3.05156 2.00336H7.44656C8.091 2.00336 8.59226 2.1573 8.95435 2.42567C9.3132 2.69164 9.56113 3.08885 9.66885 3.62749L9.66911 3.62874C9.70928 3.82517 9.72816 4.03985 9.72816 4.28494V6.85995C9.72816 7.62767 9.51093 8.1895 9.14145 8.5595C8.77203 8.92945 8.21155 9.14654 7.44656 9.14654H3.05156C2.80973 9.14654 2.58691 9.12325 2.39158 9.07885Z" fill="white" stroke="#92ABFE" stroke-width="0.586806"/>
<path d="M3.52781 10.4814L3.52781 10.4814L9.22249 3.72524L9.51019 3.6677C9.51016 3.66756 9.51014 3.66743 9.51011 3.66729C9.50522 3.6422 9.51176 3.61397 9.53299 3.58979C9.55535 3.56899 9.57659 3.56636 9.59402 3.57054L9.59398 3.57071L9.6038 3.57271C10.1429 3.68278 10.5407 3.93206 10.8069 4.29074C11.0754 4.65245 11.2291 5.15129 11.2291 5.79024V8.36526C11.2291 9.13024 11.012 9.69082 10.6425 10.0603C10.2731 10.4297 9.71248 10.6468 8.94749 10.6468H4.55249C4.1539 10.6468 3.81127 10.5904 3.52781 10.4814ZM2.96249 9.14683H2.46552L2.70559 9.58197C2.90083 9.93583 3.19715 10.187 3.59084 10.3305C3.87208 10.4357 4.19842 10.4836 4.55748 10.4836H8.95248C9.61026 10.4836 10.1556 10.3246 10.5337 9.94647C10.9118 9.56833 11.0709 9.02303 11.0709 8.36526V5.79024C11.0709 4.94012 10.8025 4.28819 10.1678 3.94257L9.73408 3.70639V4.20025V4.20042V4.2006V4.20077V4.20095V4.20113V4.2013V4.20148V4.20165V4.20183V4.20201V4.20218V4.20236V4.20253V4.20271V4.20288V4.20306V4.20324V4.20341V4.20359V4.20376V4.20394V4.20411V4.20429V4.20447V4.20464V4.20482V4.20499V4.20517V4.20535V4.20552V4.2057V4.20587V4.20605V4.20622V4.2064V4.20658V4.20675V4.20693V4.2071V4.20728V4.20745V4.20763V4.20781V4.20798V4.20816V4.20833V4.20851V4.20869V4.20886V4.20904V4.20921V4.20939V4.20956V4.20974V4.20992V4.21009V4.21027V4.21044V4.21062V4.21079V4.21097V4.21115V4.21132V4.2115V4.21167V4.21185V4.21202V4.2122V4.21238V4.21255V4.21273V4.2129V4.21308V4.21326V4.21343V4.21361V4.21378V4.21396V4.21413V4.21431V4.21449V4.21466V4.21484V4.21501V4.21519V4.21536V4.21554V4.21572V4.21589V4.21607V4.21624V4.21642V4.21659V4.21677V4.21695V4.21712V4.2173V4.21747V4.21765V4.21783V4.218V4.21818V4.21835V4.21853V4.2187V4.21888V4.21906V4.21923V4.21941V4.21958V4.21976V4.21993V4.22011V4.22029V4.22046V4.22064V4.22081V4.22099V4.22117V4.22134V4.22152V4.22169V4.22187V4.22204V4.22222V4.2224V4.22257V4.22275V4.22292V4.2231V4.22327V4.22345V4.22363V4.2238V4.22398V4.22415V4.22433V4.2245V4.22468V4.22486V4.22503V4.22521V4.22538V4.22556V4.22574V4.22591V4.22609V4.22626V4.22644V4.22661V4.22679V4.22697V4.22714V4.22732V4.22749V4.22767V4.22784V4.22802V4.2282V4.22837V4.22855V4.22872V4.2289V4.22907V4.22925V4.22943V4.2296V4.22978V4.22995V4.23013V4.23031V4.23048V4.23066V4.23083V4.23101V4.23118V4.23136V4.23154V4.23171V4.23189V4.23206V4.23224V4.23241V4.23259V4.23277V4.23294V4.23312V4.23329V4.23347V4.23364V4.23382V4.234V4.23417V4.23435V4.23452V4.2347V4.23488V4.23505V4.23523V4.2354V4.23558V4.23575V4.23593V4.23611V4.23628V4.23646V4.23663V4.23681V4.23698V4.23716V4.23734V4.23751V4.23769V4.23786V4.23804V4.23821V4.23839V4.23857V4.23874V4.23892V4.23909V4.23927V4.23945V4.23962V4.2398V4.23997V4.24015V4.24032V4.2405V4.24068V4.24085V4.24103V4.2412V4.24138V4.24155V4.24173V4.24191V4.24208V4.24226V4.24243V4.24261V4.24279V4.24296V4.24314V4.24331V4.24349V4.24366V4.24384V4.24402V4.24419V4.24437V4.24454V4.24472V4.24489V4.24507V4.24525V4.24542V4.2456V4.24577V4.24595V4.24612V4.2463V4.24648V4.24665V4.24683V4.247V4.24718V4.24736V4.24753V4.24771V4.24788V4.24806V4.24823V4.24841V4.24859V4.24876V4.24894V4.24911V4.24929V4.24946V4.24964V4.24982V4.24999V4.25017V4.25034V4.25052V4.25069V4.25087V4.25105V4.25122V4.2514V4.25157V4.25175V4.25193V4.2521V4.25228V4.25245V4.25263V4.2528V4.25298V4.25316V4.25333V4.25351V4.25368V4.25386V4.25403V4.25421V4.25439V4.25456V4.25474V4.25491V4.25509V4.25526V4.25544V4.25562V4.25579V4.25597V4.25614V4.25632V4.2565V4.25667V4.25685V4.25702V4.2572V4.25737V4.25755V4.25773V4.2579V4.25808V4.25825V4.25843V4.2586V4.25878V4.25896V4.25913V4.25931V4.25948V4.25966V4.25983V4.26001V4.26019V4.26036V4.26054V4.26071V4.26089V4.26107V4.26124V4.26142V4.26159V4.26177V4.26194V4.26212V4.2623V4.26247V4.26265V4.26282V4.263V4.26317V4.26335V4.26353V4.2637V4.26388V4.26405V4.26423V4.2644V4.26458V4.26476V4.26493V4.26511V4.26528V4.26546V4.26564V4.26581V4.26599V4.26616V4.26634V4.26651V4.26669V4.26687V4.26704V4.26722V4.26739V4.26757V4.26774V4.26792V4.2681V4.26827V4.26845V4.26862V4.2688V4.26897V4.26915V4.26933V4.2695V4.26968V4.26985V4.27003V4.27021V4.27038V4.27056V4.27073V4.27091V4.27108V4.27126V4.27144V4.27161V4.27179V4.27196V4.27214V4.27231V4.27249V4.27267V4.27284V4.27302V4.27319V4.27337V4.27355V4.27372V4.2739V4.27407V4.27425V4.27442V4.2746V4.27478V4.27495V4.27513V4.2753V4.27548V4.27565V4.27583V4.27601V4.27618V4.27636V4.27653V4.27671V4.27688V4.27706V4.27724V4.27741V4.27759V4.27776V4.27794V4.27812V4.27829V4.27847V4.27864V4.27882V4.27899V4.27917V4.27935V4.27952V4.2797V4.27987V4.28005V4.28022V4.2804V4.28058V4.28075V4.28093V4.2811V4.28128V4.28145V4.28163V4.28181V4.28198V4.28216V4.28233V4.28251V4.28269V4.28286V4.28304V4.28321V4.28339V4.28356V4.28374V4.28392V4.28409V4.28427V4.28444V4.28462V4.28479V4.28497V4.28515V4.28532V4.2855V4.28567V4.28585V4.28603V4.2862V4.28638V4.28655V4.28673V4.2869V4.28708V4.28726V4.28743V4.28761V4.28778V4.28796V4.28813V4.28831V4.28849V4.28866V4.28884V4.28901V4.28919V4.28936V4.28954V4.28972V4.28989V4.29007V4.29024V6.86526C9.73408 7.62712 9.51607 8.18797 9.14564 8.5584C8.7752 8.92884 8.21434 9.14683 7.45248 9.14683H3.05748H3.05727H3.05707H3.05686H3.05666H3.05645H3.05625H3.05604H3.05584H3.05564H3.05543H3.05523H3.05502H3.05482H3.05462H3.05441H3.05421H3.05401H3.0538H3.0536H3.0534H3.05319H3.05299H3.05279H3.05259H3.05238H3.05218H3.05198H3.05178H3.05158H3.05137H3.05117H3.05097H3.05077H3.05057H3.05037H3.05017H3.04997H3.04976H3.04956H3.04936H3.04916H3.04896H3.04876H3.04856H3.04836H3.04816H3.04796H3.04776H3.04756H3.04736H3.04716H3.04696H3.04676H3.04656H3.04636H3.04617H3.04597H3.04577H3.04557H3.04537H3.04517H3.04497H3.04478H3.04458H3.04438H3.04418H3.04398H3.04378H3.04359H3.04339H3.04319H3.04299H3.0428H3.0426H3.0424H3.04221H3.04201H3.04181H3.04162H3.04142H3.04122H3.04103H3.04083H3.04063H3.04044H3.04024H3.04004H3.03985H3.03965H3.03946H3.03926H3.03907H3.03887H3.03868H3.03848H3.03828H3.03809H3.03789H3.0377H3.03751H3.03731H3.03712H3.03692H3.03673H3.03653H3.03634H3.03614H3.03595H3.03576H3.03556H3.03537H3.03517H3.03498H3.03479H3.03459H3.0344H3.03421H3.03401H3.03382H3.03363H3.03344H3.03324H3.03305H3.03286H3.03267H3.03247H3.03228H3.03209H3.0319H3.0317H3.03151H3.03132H3.03113H3.03094H3.03074H3.03055H3.03036H3.03017H3.02998H3.02979H3.0296H3.02941H3.02921H3.02902H3.02883H3.02864H3.02845H3.02826H3.02807H3.02788H3.02769H3.0275H3.02731H3.02712H3.02693H3.02674H3.02655H3.02636H3.02617H3.02598H3.02579H3.0256H3.02541H3.02522H3.02503H3.02484H3.02465H3.02447H3.02428H3.02409H3.0239H3.02371H3.02352H3.02333H3.02314H3.02296H3.02277H3.02258H3.02239H3.0222H3.02202H3.02183H3.02164H3.02145H3.02126H3.02108H3.02089H3.0207H3.02051H3.02033H3.02014H3.01995H3.01976H3.01958H3.01939H3.0192H3.01902H3.01883H3.01864H3.01846H3.01827H3.01808H3.0179H3.01771H3.01752H3.01734H3.01715H3.01697H3.01678H3.01659H3.01641H3.01622H3.01604H3.01585H3.01566H3.01548H3.01529H3.01511H3.01492H3.01474H3.01455H3.01437H3.01418H3.014H3.01381H3.01363H3.01344H3.01326H3.01307H3.01289H3.0127H3.01252H3.01233H3.01215H3.01197H3.01178H3.0116H3.01141H3.01123H3.01104H3.01086H3.01068H3.01049H3.01031H3.01013H3.00994H3.00976H3.00957H3.00939H3.00921H3.00902H3.00884H3.00866H3.00847H3.00829H3.00811H3.00793H3.00774H3.00756H3.00738H3.00719H3.00701H3.00683H3.00665H3.00646H3.00628H3.0061H3.00592H3.00573H3.00555H3.00537H3.00519H3.005H3.00482H3.00464H3.00446H3.00428H3.00409H3.00391H3.00373H3.00355H3.00337H3.00319H3.003H3.00282H3.00264H3.00246H3.00228H3.0021H3.00192H3.00173H3.00155H3.00137H3.00119H3.00101H3.00083H3.00065H3.00047H3.00029H3.00011H2.99993H2.99974H2.99956H2.99938H2.9992H2.99902H2.99884H2.99866H2.99848H2.9983H2.99812H2.99794H2.99776H2.99758H2.9974H2.99722H2.99704H2.99686H2.99668H2.9965H2.99632H2.99614H2.99596H2.99578H2.9956H2.99542H2.99524H2.99506H2.99488H2.9947H2.99452H2.99434H2.99417H2.99399H2.99381H2.99363H2.99345H2.99327H2.99309H2.99291H2.99273H2.99255H2.99237H2.99219H2.99202H2.99184H2.99166H2.99148H2.9913H2.99112H2.99094H2.99076H2.99059H2.99041H2.99023H2.99005H2.98987H2.98969H2.98952H2.98934H2.98916H2.98898H2.9888H2.98862H2.98845H2.98827H2.98809H2.98791H2.98773H2.98756H2.98738H2.9872H2.98702H2.98684H2.98667H2.98649H2.98631H2.98613H2.98595H2.98578H2.9856H2.98542H2.98524H2.98507H2.98489H2.98471H2.98453H2.98436H2.98418H2.984H2.98382H2.98365H2.98347H2.98329H2.98311H2.98294H2.98276H2.98258H2.98241H2.98223H2.98205H2.98187H2.9817H2.98152H2.98134H2.98117H2.98099H2.98081H2.98064H2.98046H2.98028H2.9801H2.97993H2.97975H2.97957H2.9794H2.97922H2.97904H2.97887H2.97869H2.97851H2.97834H2.97816H2.97798H2.97781H2.97763H2.97745H2.97728H2.9771H2.97692H2.97675H2.97657H2.97639H2.97622H2.97604H2.97587H2.97569H2.97551H2.97534H2.97516H2.97498H2.97481H2.97463H2.97445H2.97428H2.9741H2.97393H2.97375H2.97357H2.9734H2.97322H2.97304H2.97287H2.97269H2.97252H2.97234H2.97216H2.97199H2.97181H2.97164H2.97146H2.97128H2.97111H2.97093H2.97076H2.97058H2.9704H2.97023H2.97005H2.96988H2.9697H2.96952H2.96935H2.96917H2.969H2.96882H2.96864H2.96847H2.96829H2.96812H2.96794H2.96776H2.96759H2.96741H2.96724H2.96706H2.96689H2.96671H2.96653H2.96636H2.96618H2.96601H2.96583H2.96565H2.96548H2.9653H2.96513H2.96495H2.96478H2.9646H2.96442H2.96425H2.96407H2.9639H2.96372H2.96355H2.96337H2.96319H2.96302H2.96284H2.96267H2.96249Z" fill="white" stroke="#92ABFE" stroke-width="0.586806"/>
<path d="M5.24969 7.27478C4.31469 7.27478 3.55469 6.51477 3.55469 5.57977C3.55469 4.64477 4.31469 3.88477 5.24969 3.88477C6.18469 3.88477 6.9447 4.64477 6.9447 5.57977C6.9447 6.51477 6.18469 7.27478 5.24969 7.27478ZM5.24969 4.63477C4.72969 4.63477 4.30469 5.05977 4.30469 5.57977C4.30469 6.09977 4.72969 6.52478 5.24969 6.52478C5.76969 6.52478 6.1947 6.09977 6.1947 5.57977C6.1947 5.05977 5.76969 4.63477 5.24969 4.63477Z" fill="#92ABFE"/>
<path d="M2.39062 7.0545C2.18563 7.0545 2.01562 6.8845 2.01562 6.6795V4.47949C2.01562 4.27449 2.18563 4.10449 2.39062 4.10449C2.59562 4.10449 2.76562 4.27449 2.76562 4.47949V6.6795C2.76562 6.8845 2.60062 7.0545 2.39062 7.0545Z" fill="#92ABFE"/>
<path d="M8.10547 7.0545C7.90047 7.0545 7.73047 6.8845 7.73047 6.6795V4.47949C7.73047 4.27449 7.90047 4.10449 8.10547 4.10449C8.31047 4.10449 8.48047 4.27449 8.48047 4.47949V6.6795C8.48047 6.8845 8.31547 7.0545 8.10547 7.0545Z" fill="#92ABFE"/>
</svg>
