<svg width="14" height="14" viewBox="0 0 14 14" fill="none" xmlns="http://www.w3.org/2000/svg">
<path opacity="0.4" d="M7.0013 12.8337C10.223 12.8337 12.8346 10.222 12.8346 7.00033C12.8346 3.77866 10.223 1.16699 7.0013 1.16699C3.77964 1.16699 1.16797 3.77866 1.16797 7.00033C1.16797 10.222 3.77964 12.8337 7.0013 12.8337Z" fill="#92ABFE"/>
<path d="M7.61927 6.99996L8.96094 5.65829C9.1301 5.48913 9.1301 5.20913 8.96094 5.03996C8.79177 4.87079 8.51177 4.87079 8.3426 5.03996L7.00094 6.38163L5.65927 5.03996C5.4901 4.87079 5.2101 4.87079 5.04094 5.03996C4.87177 5.20913 4.87177 5.48913 5.04094 5.65829L6.3826 6.99996L5.04094 8.34163C4.87177 8.51079 4.87177 8.79079 5.04094 8.95996C5.12844 9.04746 5.23927 9.08829 5.3501 9.08829C5.46094 9.08829 5.57177 9.04746 5.65927 8.95996L7.00094 7.61829L8.3426 8.95996C8.4301 9.04746 8.54094 9.08829 8.65177 9.08829C8.7626 9.08829 8.87344 9.04746 8.96094 8.95996C9.1301 8.79079 9.1301 8.51079 8.96094 8.34163L7.61927 6.99996Z" fill="#92ABFE"/>
</svg>
