<svg width="13" height="12" viewBox="0 0 13 12" fill="none" xmlns="http://www.w3.org/2000/svg">
<path d="M0.0429688 6C0.0429688 9.31371 2.72926 12 6.04297 12C9.35668 12 12.043 9.31371 12.043 6C12.043 2.68629 9.35668 0 6.04297 0C2.72926 0 0.0429688 2.68629 0.0429688 6Z" fill="#FFCB05"/>
<path d="M11.6857 6.04129C11.6857 7.32226 9.16761 8.36059 6.06192 8.36059C2.95556 8.36059 0.4375 7.32226 0.4375 6.04129C0.4375 4.76033 2.95556 3.72266 6.06192 3.72266C9.16761 3.72266 11.6857 4.76033 11.6857 6.04129Z" fill="#00678F"/>
<path d="M2.46094 7.18649L3.04259 4.86719H3.97191V6.21795L4.58281 4.86719H5.54204L4.96105 7.18649H4.35015L4.69847 5.68948L3.97191 7.18649H3.47866V5.68948L3.09976 7.18649H2.46094Z" fill="white"/>
<path d="M5.73047 7.21564L5.81755 6.89258H6.48629L6.39854 7.21564H5.73047Z" fill="#ED1D24"/>
<path d="M7.22656 7.18649L7.80755 4.86719H8.47629L8.76744 6.10096L9.08652 4.86719H9.69676L9.11577 7.18649H8.47629L8.15654 5.92413L7.8368 7.18649H7.22656Z" fill="white"/>
<path d="M5.73152 4.86719L5.58594 5.45482H6.19684L5.86779 6.72914H6.53586L6.86557 5.45482H7.47581L7.62073 4.86719H5.73152Z" fill="#FFCB05"/>
</svg>
