<svg width="15" height="15" viewBox="0 0 15 15" fill="none" xmlns="http://www.w3.org/2000/svg">
<g clip-path="url(#clip0_10480_210486)">
<path d="M7.53385 14.7415C11.4229 14.7415 14.5755 11.5889 14.5755 7.69987C14.5755 3.81086 11.4229 0.658203 7.53385 0.658203C3.64485 0.658203 0.492188 3.81086 0.492188 7.69987C0.492188 11.5889 3.64485 14.7415 7.53385 14.7415Z" fill="#F0F0F0"/>
<path d="M0.492188 7.70033C0.492188 10.728 2.40312 13.3091 5.08459 14.304V1.09668C2.40312 2.09159 0.492188 4.67269 0.492188 7.70033Z" fill="#6DA544"/>
<path d="M14.5768 7.70033C14.5768 4.67269 12.6658 2.09159 9.98438 1.09668V14.3041C12.6658 13.3091 14.5768 10.728 14.5768 7.70033Z" fill="#6DA544"/>
</g>
<defs>
<clipPath id="clip0_10480_210486">
<rect width="14.0833" height="14.0833" fill="white" transform="translate(0.492188 0.658203)"/>
</clipPath>
</defs>
</svg>
