<svg width="15" height="15" viewBox="0 0 15 15" fill="none" xmlns="http://www.w3.org/2000/svg">
<path d="M1.65554 2.81436L1.65555 2.81436L1.65616 2.81281C1.78022 2.49748 1.97772 2.20448 2.25929 1.93884L2.25934 1.93889L2.26378 1.93452C2.59505 1.60843 2.93498 1.46723 3.27851 1.46723C3.40173 1.46723 3.52228 1.49377 3.62686 1.54396L3.62684 1.54399L3.63087 1.54585C3.73985 1.59615 3.83238 1.6691 3.90575 1.77507L3.90573 1.77508L3.90769 1.77784L5.26907 3.69669L5.26907 3.6967L5.27026 3.69836C5.36526 3.83029 5.42913 3.94513 5.47153 4.04877L5.4715 4.04879L5.47341 4.05326C5.51479 4.1498 5.53184 4.23334 5.53184 4.29563C5.53184 4.37741 5.50842 4.46601 5.45139 4.55971L5.45126 4.55963L5.44659 4.56789C5.38669 4.67387 5.29348 4.79389 5.16594 4.92143L5.1659 4.92139L5.16196 4.92548L4.71768 5.38731C4.59517 5.51101 4.54014 5.66317 4.54014 5.8272C4.54014 5.90194 4.54995 5.96711 4.5665 6.03332L4.57056 6.04953L4.57642 6.06518C4.58677 6.09278 4.59715 6.11727 4.60451 6.13463C4.60524 6.13635 4.60594 6.13799 4.6066 6.13956C4.615 6.15941 4.618 6.16709 4.61974 6.17231L4.62801 6.19709L4.64051 6.22002C4.76 6.43908 4.95645 6.70888 5.21984 7.02016L5.21983 7.02017L5.22196 7.02263C5.48901 7.33122 5.77487 7.64691 6.08525 7.96327L6.08524 7.96328L6.08722 7.96525C6.1191 7.99713 6.15208 8.02854 6.18209 8.05712L6.1833 8.05827C6.21458 8.08807 6.24276 8.11492 6.26913 8.1413L6.26911 8.14131L6.27177 8.14391C6.39076 8.25992 6.3928 8.44769 6.275 8.56549L5.18941 9.65108C5.07679 9.7637 4.89628 9.76803 4.77381 9.65382C4.74019 9.62029 4.70697 9.58858 4.67632 9.55932L4.67524 9.55829C4.64281 9.52733 4.61316 9.49901 4.58387 9.46974C3.98986 8.86993 3.45412 8.24193 2.97635 7.58579C2.50607 6.9319 2.13075 6.28251 1.85916 5.6435C1.59536 5.00321 1.46528 4.40219 1.46528 3.83793C1.46528 3.47367 1.52949 3.12949 1.65554 2.81436Z" fill="#58DA8F" stroke="#58DA8F" stroke-width="0.586806"/>
<path d="M12.4825 11.2651L12.4824 11.265L12.4796 11.271C12.3915 11.4576 12.2781 11.6326 12.1285 11.7978C11.8775 12.0744 11.6081 12.271 11.3104 12.3997H11.3085L11.2553 12.4213C10.9443 12.5478 10.6063 12.6168 10.2392 12.6168C9.68709 12.6168 9.08663 12.4869 8.44126 12.2119C7.78932 11.9342 7.13409 11.5586 6.48152 11.0837C6.34148 10.9795 6.20443 10.8776 6.07137 10.7741L7.58411 9.26136C7.67847 9.32412 7.76745 9.37733 7.84976 9.42045L7.86303 9.4274L7.87694 9.43296C7.88383 9.43572 7.89351 9.44003 7.91207 9.44854C7.91354 9.44921 7.91506 9.44991 7.91663 9.45063C7.93268 9.45799 7.95354 9.46756 7.97595 9.47717L7.97583 9.47745L7.98851 9.48221C8.07833 9.51589 8.16269 9.52436 8.23823 9.52436C8.41956 9.52436 8.56907 9.45553 8.68552 9.33944L9.13088 8.89993L9.13088 8.89994L9.13226 8.89857C9.2671 8.76373 9.38401 8.67426 9.48301 8.62261L9.49158 8.61814L9.49985 8.61311C9.5946 8.55544 9.67739 8.53266 9.76392 8.53266C9.83241 8.53266 9.9121 8.54673 10.0108 8.5871L10.1219 8.31554L10.0108 8.5871C10.1146 8.62958 10.2305 8.69391 10.3652 8.78538L12.3051 10.1626L12.3051 10.1626L12.308 10.1646C12.421 10.2429 12.4874 10.3245 12.5273 10.4128C12.5739 10.5308 12.5982 10.6389 12.5982 10.7567C12.5982 10.8858 12.5752 11.0219 12.528 11.1547C12.5101 11.2023 12.4977 11.2345 12.4825 11.2651Z" fill="#58DA8F" stroke="#58DA8F" stroke-width="0.586806"/>
</svg>
