<svg width="12" height="13" viewBox="0 0 12 13" fill="none" xmlns="http://www.w3.org/2000/svg">
<path d="M5.9248 5.92603L5.94622 5.92679L5.96337 5.92336C5.96436 5.92327 5.96587 5.92316 5.96798 5.92304C5.97473 5.92266 5.98428 5.9224 5.99625 5.9224C6.0202 5.9224 6.04925 5.92346 6.07717 5.92561L6.08841 5.92647L6.09967 5.92595C7.17823 5.87643 8.02429 4.99033 8.02978 3.90354V3.90262C8.02978 2.78626 7.11761 1.87409 6.00125 1.87409C4.88489 1.87409 3.97272 2.78626 3.97272 3.90262C3.97272 5.00156 4.8311 5.88756 5.9248 5.92603ZM6.08125 6.30909H6.08116H6.08107H6.08099H6.0809H6.08081H6.08072H6.08064H6.08055H6.08046H6.08038H6.08029H6.0802H6.08012H6.08003H6.07994H6.07986H6.07977H6.07969H6.0796H6.07951H6.07943H6.07934H6.07926H6.07917H6.07909H6.079H6.07892H6.07883H6.07875H6.07866H6.07858H6.07849H6.07841H6.07832H6.07824H6.07816H6.07807H6.07799H6.0779H6.07782H6.07774H6.07765H6.07757H6.07749H6.0774H6.07732H6.07724H6.07715H6.07707H6.07699H6.07691H6.07682H6.07674H6.07666H6.07658H6.07649H6.07641H6.07633H6.07625H6.07617H6.07608H6.076H6.07592H6.07584H6.07576H6.07568H6.0756H6.07551H6.07543H6.07535H6.07527H6.07519H6.07511H6.07503H6.07495H6.07487H6.07479H6.07471H6.07463H6.07455H6.07447H6.07439H6.07431H6.07423H6.07415H6.07407H6.07399H6.07391H6.07383H6.07375H6.07367H6.07359H6.07351H6.07343H6.07335H6.07327H6.07319H6.07312H6.07304H6.07296H6.07288H6.0728H6.07272H6.07264H6.07257H6.07249H6.07241H6.07233H6.07225H6.07218H6.0721H6.07202H6.07194H6.07186H6.07179H6.07171H6.07163H6.07155H6.07148H6.0714H6.07132H6.07124H6.07117H6.07109H6.07101H6.07094H6.07086H6.07078H6.0707H6.07063H6.07055H6.07047H6.0704H6.07032H6.07024H6.07017H6.07009H6.07001H6.06994H6.06986H6.06979H6.06971H6.06963H6.06956H6.06948H6.06941H6.06933H6.06925H6.06918H6.0691H6.06903H6.06895H6.06888H6.0688H6.06872H6.06865H6.06857H6.0685H6.06842H6.06835H6.06827H6.0682H6.06812H6.06805H6.06797H6.0679H6.06782H6.06775H6.06767H6.0676H6.06752H6.06745H6.06737H6.0673H6.06722H6.06715H6.06707H6.067H6.06692H6.06685H6.06677H6.0667H6.06663H6.06655H6.06648H6.0664H6.06633H6.06625H6.06618H6.06611H6.06603H6.06596H6.06588H6.06581H6.06573H6.06566H6.06559H6.06551H6.06544H6.06536H6.06529H6.06522H6.06514H6.06507H6.065H6.06492H6.06485H6.06477H6.0647H6.06463H6.06455H6.06448H6.06441H6.06433H6.06426H6.06418H6.06411H6.06404H6.06396H6.06389H6.06382H6.06374H6.06367H6.0636H6.06352H6.06345H6.06338H6.0633H6.06323H6.06316H6.06308H6.06301H6.06294H6.06286H6.06279H6.06272H6.06264H6.06257H6.0625H6.06242H6.06235H6.06228H6.0622H6.06213H6.06206H6.06198H6.06191H6.06184H6.06176H6.06169H6.06162H6.06154H6.06147H6.0614H6.06132H6.06125H6.06118H6.0611H6.06103H6.06096H6.06088H6.06081H6.06074H6.06066H6.06059H6.06052H6.06044H6.06037H6.0603H6.06022H6.06015H6.06008H6.06H6.05993H6.05986H6.05978H6.05971H6.05964H6.05956H6.05949H6.05942H6.05934H6.05927H6.0592H6.05912H6.05905H6.05898H6.0589H6.05883H6.05876H6.05868H6.05861H6.05854H6.05846H6.05839H6.05832H6.05824H6.05817H6.05809H6.05802H6.05795H6.05787H6.0578H6.05773H6.05765H6.05758H6.0575H6.05743H6.05736H6.05728H6.05721H6.05714H6.05706H6.05699H6.05691H6.05684H6.05677H6.05669H6.05662H6.05654H6.05647H6.05639H6.05632H6.05625H6.05617H6.0561H6.05602H6.05595H6.0559C6.01819 6.30396 5.97796 6.30436 5.94167 6.30866C4.59728 6.25922 3.58978 5.20243 3.58978 3.90262C3.58978 2.57398 4.67261 1.49115 6.00125 1.49115C7.32976 1.49115 8.41251 2.57377 8.41272 3.90224C8.40793 5.20849 7.38687 6.26583 6.09324 6.30909H6.09323H6.0932H6.09317H6.09314H6.09312H6.09309H6.09306H6.09303H6.093H6.09297H6.09294H6.09291H6.09288H6.09285H6.09282H6.09279H6.09276H6.09273H6.0927H6.09268H6.09265H6.09262H6.09259H6.09256H6.09253H6.0925H6.09247H6.09244H6.09241H6.09238H6.09235H6.09232H6.09229H6.09227H6.09224H6.09221H6.09218H6.09215H6.09212H6.09209H6.09206H6.09203H6.092H6.09197H6.09194H6.09191H6.09188H6.09186H6.09183H6.0918H6.09177H6.09174H6.09171H6.09168H6.09165H6.09162H6.09159H6.09156H6.09153H6.0915H6.09147H6.09145H6.09142H6.09139H6.09136H6.09133H6.0913H6.09127H6.09124H6.09121H6.09118H6.09115H6.09112H6.09109H6.09106H6.09103H6.09101H6.09098H6.09095H6.09092H6.09089H6.09086H6.09083H6.0908H6.09077H6.09074H6.09071H6.09068H6.09065H6.09062H6.0906H6.09057H6.09054H6.09051H6.09048H6.09045H6.09042H6.09039H6.09036H6.09033H6.0903H6.09027H6.09024H6.09021H6.09019H6.09016H6.09013H6.0901H6.09007H6.09004H6.09001H6.08998H6.08995H6.08992H6.08989H6.08986H6.08983H6.0898H6.08978H6.08975H6.08972H6.08969H6.08966H6.08963H6.0896H6.08957H6.08954H6.08951H6.08948H6.08945H6.08942H6.08939H6.08937H6.08934H6.08931H6.08928H6.08925H6.08922H6.08919H6.08916H6.08913H6.0891H6.08907H6.08904H6.08901H6.08898H6.08895H6.08893H6.0889H6.08887H6.08884H6.08881H6.08878H6.08875H6.08872H6.08869H6.08866H6.08863H6.0886H6.08857H6.08854H6.08852H6.08849H6.08846H6.08843H6.0884H6.08837H6.08834H6.08831H6.08828H6.08825H6.08822H6.08819H6.08816H6.08813H6.08811H6.08808H6.08805H6.08802H6.08799H6.08796H6.08793H6.0879H6.08787H6.08784H6.08781H6.08778H6.08775H6.08772H6.0877H6.08767H6.08764H6.08761H6.08758H6.08755H6.08752H6.08749H6.08746H6.08743H6.0874H6.08737H6.08734H6.08731H6.08729H6.08726H6.08723H6.0872H6.08717H6.08714H6.08711H6.08708H6.08705H6.08702H6.08699H6.08696H6.08693H6.0869H6.08687H6.08685H6.08682H6.08679H6.08676H6.08673H6.0867H6.08667H6.08664H6.08661H6.08658H6.08655H6.08652H6.08649H6.08646H6.08644H6.08641H6.08638H6.08635H6.08632H6.08629H6.08626H6.08623H6.0862H6.08617H6.08614H6.08611H6.08608H6.08605H6.08603H6.086H6.08597H6.08594H6.08591H6.08588H6.08585H6.08582H6.08579H6.08576H6.08573H6.0857H6.08567H6.08564H6.08562H6.08559H6.08556H6.08553H6.0855H6.08547H6.08544H6.08541H6.08538H6.08535H6.08532H6.08529H6.08526H6.08523H6.08521H6.08518H6.08515H6.08512H6.08509H6.08506H6.08503H6.085H6.08497H6.08494H6.08491H6.08488H6.08485H6.08482H6.08479H6.08477H6.08474H6.08471H6.08468H6.08465H6.08462H6.08459H6.08456H6.08453H6.0845H6.08447H6.08444H6.08441H6.08438H6.08436H6.08433H6.0843H6.08427H6.08424H6.08421H6.08418H6.08415H6.08412H6.08409H6.08406H6.08403H6.084H6.08397H6.08395H6.08392H6.08389H6.08386H6.08383H6.0838H6.08377H6.08374H6.08371H6.08368H6.08365H6.08362H6.08359H6.08356H6.08354H6.08351H6.08348H6.08345H6.08342H6.08339H6.08336H6.08333H6.0833H6.08327H6.08324H6.08321H6.08318H6.08315H6.08312H6.0831H6.08307H6.08304H6.08301H6.08298H6.08295H6.08292H6.08289H6.08286H6.08283H6.0828H6.08277H6.08274H6.08271H6.08269H6.08266H6.08263H6.0826H6.08257H6.08254H6.08251H6.08248H6.08245H6.08242H6.08239H6.08236H6.08233H6.0823H6.08228H6.08225H6.08222H6.08219H6.08216H6.08213H6.0821H6.08207H6.08204H6.08201H6.08198H6.08195H6.08192H6.08189H6.08187H6.08184H6.08181H6.08178H6.08175H6.08172H6.08169H6.08166H6.08163H6.0816H6.08157H6.08154H6.08151H6.08148H6.08145H6.08143H6.0814H6.08137H6.08134H6.08131H6.08128H6.08125Z" fill="white" stroke="#92ABFE" stroke-width="0.367059"/>
<path d="M6.08578 11.9576C5.10578 11.9576 4.12078 11.7076 3.37578 11.2076C2.68078 10.7476 2.30078 10.1176 2.30078 9.43262C2.30078 8.74762 2.68078 8.11262 3.37578 7.64762C4.87578 6.65262 7.30578 6.65262 8.79578 7.64762C9.48578 8.10762 9.87078 8.73762 9.87078 9.42262C9.87078 10.1076 9.49078 10.7426 8.79578 11.2076C8.04578 11.7076 7.06578 11.9576 6.08578 11.9576ZM3.79078 8.27762C3.31078 8.59762 3.05078 9.00762 3.05078 9.43762C3.05078 9.86262 3.31578 10.2726 3.79078 10.5876C5.03578 11.4226 7.13578 11.4226 8.38078 10.5876C8.86078 10.2676 9.12078 9.85762 9.12078 9.42762C9.12078 9.00262 8.85578 8.59262 8.38078 8.27762C7.13578 7.44762 5.03578 7.44762 3.79078 8.27762Z" fill="#92ABFE"/>
</svg>
