<svg width="20" height="20" viewBox="0 0 20 20" fill="none" xmlns="http://www.w3.org/2000/svg">
<path d="M10.0286 1.69287C8.40365 1.69287 6.88698 2.15954 5.61198 2.95954L11.3286 8.68454L11.337 6.4012C11.337 6.05954 11.6203 5.7762 11.962 5.7762C12.312 5.7762 12.587 6.05954 12.587 6.4012L12.5786 10.1929C12.5786 10.4512 12.4203 10.6762 12.187 10.7679C12.112 10.8012 12.0286 10.8179 11.9536 10.8179C11.787 10.8179 11.6286 10.7512 11.512 10.6345L4.68698 3.8012C4.65365 3.76787 4.62865 3.73454 4.60365 3.7012C2.82031 5.23454 1.69531 7.5012 1.69531 10.0262C1.69531 14.6262 5.42865 18.3595 10.0286 18.3595C11.6536 18.3595 13.1703 17.8929 14.4453 17.0929L8.72865 11.3679L8.72031 13.6512C8.72031 13.9929 8.43698 14.2762 8.09531 14.2762C7.74531 14.2762 7.47031 13.9929 7.47031 13.6512L7.47865 9.85954C7.47865 9.6012 7.63698 9.3762 7.87031 9.28454C8.09531 9.18454 8.37031 9.23454 8.54531 9.41787L15.3703 16.2512C15.4036 16.2845 15.4286 16.3179 15.4536 16.3512C17.237 14.8179 18.362 12.5512 18.362 10.0262C18.362 5.4262 14.6286 1.69287 10.0286 1.69287Z" fill="#92ABFE"/>
</svg>
