<svg width="12" height="13" viewBox="0 0 12 13" fill="none" xmlns="http://www.w3.org/2000/svg">
<path opacity="0.4" fill-rule="evenodd" clip-rule="evenodd" d="M11.5 8.27686C11.7071 8.27686 11.875 8.44475 11.875 8.65186C11.875 10.794 10.1421 12.5269 8 12.5269C7.8649 12.5269 7.74024 12.4542 7.67368 12.3366C7.60711 12.2191 7.60893 12.0748 7.67844 11.9589L8.20344 11.0839C8.31 10.9063 8.54034 10.8487 8.71794 10.9553C8.89553 11.0619 8.95311 11.2922 8.84656 11.4698L8.7109 11.6959C10.0955 11.3747 11.125 10.1351 11.125 8.65186C11.125 8.44475 11.2929 8.27686 11.5 8.27686Z" fill="#292D32"/>
<path opacity="0.4" fill-rule="evenodd" clip-rule="evenodd" d="M3.2891 1.60782C1.90455 1.92904 0.875 3.16857 0.875 4.65186C0.875 4.85896 0.707107 5.02686 0.5 5.02686C0.292893 5.02686 0.125 4.85896 0.125 4.65186C0.125 2.50975 1.85789 0.776855 4 0.776855C4.1351 0.776855 4.25976 0.849528 4.32632 0.967093C4.39289 1.08466 4.39107 1.22894 4.32156 1.34479L3.79656 2.21979C3.69 2.39738 3.45966 2.45497 3.28206 2.34842C3.10447 2.24186 3.04689 2.01151 3.15344 1.83392L3.2891 1.60782Z" fill="#292D32"/>
<path opacity="0.4" d="M7.25724 8.33209C7.25724 9.94504 5.95186 11.2504 4.33891 11.2504L4.56629 5.42327C4.56676 5.4233 4.56722 5.42334 4.56768 5.42337C5.99792 5.53262 7.14076 6.67403 7.25225 8.10363C7.25238 8.14049 7.25356 8.17697 7.25468 8.21168L7.25483 8.21621C7.25608 8.2551 7.25724 8.29262 7.25724 8.33209Z" fill="#92ABFE" stroke="#92ABFE" stroke-width="0.333333"/>
<path d="M10.7481 5.00198C10.7481 6.70698 9.36813 8.08701 7.66313 8.08701H7.41813C7.30313 6.57201 6.09312 5.36198 4.57812 5.24698V5.00198C4.57812 3.29698 5.95813 1.91699 7.66313 1.91699C9.36813 1.91699 10.7481 3.29698 10.7481 5.00198Z" fill="#92ABFE"/>
<path d="M5.55859 8.17221C5.61859 8.04721 5.65359 7.91221 5.65359 7.76721C5.65359 7.26721 5.21359 6.82721 4.71359 6.82721H4.58359V6.63721C4.58359 6.43221 4.41359 6.26221 4.20859 6.26221C4.00359 6.26221 3.83359 6.43221 3.83359 6.63721V6.82721H3.30859C3.10359 6.82721 2.93359 6.99721 2.93359 7.20221V8.32721V9.45221C2.93359 9.65721 3.10359 9.82721 3.30859 9.82721H3.83359V10.0172C3.83359 10.2222 4.00359 10.3922 4.20859 10.3922C4.41359 10.3922 4.58359 10.2222 4.58359 10.0172V9.82721H4.9136C5.4736 9.82721 5.93359 9.40721 5.93359 8.88721C5.93359 8.60221 5.78359 8.34221 5.55859 8.17221ZM3.68359 7.57721H4.71359C4.81859 7.57721 4.90359 7.69221 4.90359 7.76721C4.90359 7.87221 4.81859 7.95721 4.71359 7.95721H3.68359V7.57721ZM4.9136 9.08221H3.67859V8.70721H4.70859H4.90859C5.06859 8.70721 5.17859 8.80722 5.17859 8.89722C5.17859 8.98722 5.0736 9.08221 4.9136 9.08221Z" fill="#92ABFE"/>
</svg>
