<svg width="8" height="8" viewBox="0 0 8 8" fill="none" xmlns="http://www.w3.org/2000/svg">
<path d="M2.93525 1.10596C2.17807 1.10596 1.5625 1.72153 1.5625 2.47871C1.5625 3.22144 2.14339 3.82256 2.90057 3.84857C2.92369 3.84568 2.94681 3.84568 2.96415 3.84857C2.96993 3.84857 2.97282 3.84857 2.9786 3.84857C2.98149 3.84857 2.98149 3.84857 2.98438 3.84857C3.72422 3.82256 4.30511 3.22144 4.308 2.47871C4.308 1.72153 3.69243 1.10596 2.93525 1.10596Z" fill="#92ABFE"/>
<path d="M4.40502 4.61702C3.59871 4.07948 2.28376 4.07948 1.47167 4.61702C1.10464 4.86267 0.902344 5.19502 0.902344 5.55049C0.902344 5.90596 1.10464 6.23542 1.46878 6.47818C1.87338 6.74984 2.40514 6.88567 2.9369 6.88567C3.46866 6.88567 4.00042 6.74984 4.40502 6.47818C4.76916 6.23253 4.97146 5.90307 4.97146 5.54471C4.96857 5.18924 4.76916 4.85978 4.40502 4.61702Z" fill="#92ABFE"/>
<path d="M6.11338 2.64912C6.15962 3.20978 5.7608 3.70108 5.20881 3.76755C5.20592 3.76755 5.20592 3.76755 5.20303 3.76755H5.19436C5.17702 3.76755 5.15968 3.76754 5.14523 3.77333C4.8649 3.78778 4.60769 3.69819 4.41406 3.53346C4.71173 3.26758 4.88224 2.86876 4.84756 2.43526C4.82733 2.20117 4.74641 1.98731 4.62503 1.80524C4.73485 1.75033 4.86201 1.71565 4.99206 1.70409C5.5585 1.65496 6.06425 2.0769 6.11338 2.64912Z" fill="#92ABFE"/>
<path d="M6.69091 5.32226C6.66779 5.60259 6.48861 5.84535 6.18805 6.01008C5.89905 6.16903 5.53491 6.24417 5.17366 6.2355C5.38174 6.04765 5.50312 5.81356 5.52624 5.56502C5.55514 5.20666 5.38463 4.86275 5.04361 4.5882C4.84998 4.43503 4.62456 4.31365 4.37891 4.22406C5.0176 4.0391 5.82102 4.16337 6.31521 4.56219C6.58109 4.77605 6.71692 5.04482 6.69091 5.32226Z" fill="#292D32"/>
</svg>
