<svg width="20" height="20" viewBox="0 0 20 20" fill="none" xmlns="http://www.w3.org/2000/svg">
<path d="M2.39672 13.625L2.39673 13.625L2.39759 13.6243C2.88865 13.2329 3.50491 13 4.16927 13C5.7348 13 7.0026 14.2678 7.0026 15.8333C7.0026 16.3646 6.85393 16.8655 6.59368 17.2876L6.59356 17.2875L6.58738 17.2981C6.44104 17.5489 6.25326 17.7711 6.03964 17.9502L6.03295 17.9558L6.02646 17.9617C5.53393 18.405 4.88606 18.6667 4.16927 18.6667C3.13535 18.6667 2.2372 18.1151 1.749 17.2944L1.74905 17.2944L1.74486 17.2876C1.48462 16.8655 1.33594 16.3646 1.33594 15.8333C1.33594 14.9397 1.74661 14.1409 2.39672 13.625ZM6.23377 15.8421L6.23544 15.8405C6.68423 15.4217 6.71775 14.7055 6.29313 14.2505C5.87458 13.8021 5.15908 13.7682 4.70404 14.1919L3.72445 15.0981L3.66451 15.0381L3.66449 15.0381C3.22756 14.6012 2.51098 14.6012 2.07405 15.0381C1.63712 15.475 1.63712 16.1916 2.07405 16.6286L2.89905 17.4536C3.12279 17.6773 3.41053 17.7833 3.69426 17.7833C3.9659 17.7833 4.24677 17.6803 4.459 17.4835C4.45917 17.4834 4.45933 17.4832 4.4595 17.483L6.23377 15.8421L6.23377 15.8421Z" fill="#92ABFE" stroke="#92ABFE"/>
<path opacity="0.4" d="M16.2359 10.7918H17.9193V9.59184C17.9193 7.86684 16.5109 6.4585 14.7859 6.4585H5.21927C3.49427 6.4585 2.08594 7.86684 2.08594 9.59184V13.2335C2.66094 12.7752 3.38594 12.5002 4.16927 12.5002C6.01094 12.5002 7.5026 13.9918 7.5026 15.8335C7.5026 16.4585 7.3276 17.0502 7.01927 17.5502C6.84427 17.8502 6.61927 18.1168 6.36094 18.3335H14.7859C16.5109 18.3335 17.9193 16.9252 17.9193 15.2002V14.2085H16.3359C15.4359 14.2085 14.6109 13.5502 14.5359 12.6502C14.4859 12.1252 14.6859 11.6335 15.0359 11.2918C15.3443 10.9752 15.7693 10.7918 16.2359 10.7918Z" fill="#92ABFE"/>
<path d="M12.3776 3.29153V6.45818H5.21927C3.49427 6.45818 2.08594 7.86652 2.08594 9.59152V6.5332C2.08594 5.54154 2.69427 4.65817 3.61927 4.30817L10.2359 1.80817C11.2693 1.42483 12.3776 2.18319 12.3776 3.29153Z" fill="#92ABFE"/>
<path d="M18.7977 11.6415V13.3582C18.7977 13.8165 18.431 14.1915 17.9644 14.2082H16.331C15.431 14.2082 14.606 13.5498 14.531 12.6498C14.481 12.1248 14.681 11.6332 15.031 11.2915C15.3394 10.9748 15.7644 10.7915 16.231 10.7915H17.9644C18.431 10.8082 18.7977 11.1831 18.7977 11.6415Z" fill="#92ABFE"/>
<path d="M11.6693 10.625H5.83594C5.49427 10.625 5.21094 10.3417 5.21094 10C5.21094 9.65833 5.49427 9.375 5.83594 9.375H11.6693C12.0109 9.375 12.2943 9.65833 12.2943 10C12.2943 10.3417 12.0109 10.625 11.6693 10.625Z" fill="#92ABFE"/>
</svg>
