<svg width="12" height="12" viewBox="0 0 12 12" fill="none" xmlns="http://www.w3.org/2000/svg">
<path d="M3.64872 9.40685L3.64817 9.40736L2.58341 10.3921C2.58337 10.3922 2.58333 10.3922 2.58328 10.3922L2.58317 10.3923L2.47 10.27C2.4 10.335 2.305 10.37 2.215 10.37C2.12 10.37 2.025 10.335 1.95 10.26L1.455 9.76501C1.31 9.62001 1.31 9.37999 1.455 9.23499C1.6 9.08999 1.84 9.08999 1.985 9.23499L3.64872 9.40685ZM3.64872 9.40685C3.86499 9.205 3.8806 8.8596 3.67684 8.64129C3.4751 8.42513 3.12992 8.40938 2.91157 8.61287C2.91147 8.61296 2.91138 8.61305 2.91128 8.61314L2.2295 9.2438L3.64872 9.40685ZM1.3536 8.07056L1.35389 8.07033C1.6709 7.81764 2.06966 7.66667 2.5 7.66667C3.51295 7.66667 4.33333 8.48705 4.33333 9.5C4.33333 9.84375 4.23711 10.1685 4.06814 10.4425L4.06809 10.4425L4.06604 10.446C3.97059 10.6096 3.848 10.7548 3.7079 10.8723L3.70783 10.8722L3.70351 10.8761C3.38378 11.1639 2.96338 11.3333 2.5 11.3333C1.83092 11.3333 1.24931 10.9762 0.933242 10.4448L0.933261 10.4448L0.931863 10.4425C0.762893 10.1685 0.666667 9.84375 0.666667 9.5C0.666667 8.92212 0.932445 8.40474 1.3536 8.07056Z" fill="#92ABFE" stroke="#92ABFE" stroke-width="0.333333"/>
<path opacity="0.4" d="M9.74 6.47501H10.75V5.755C10.75 4.72 9.905 3.875 8.87 3.875H3.13C2.095 3.875 1.25 4.72 1.25 5.755V7.94C1.595 7.665 2.03 7.5 2.5 7.5C3.605 7.5 4.5 8.395 4.5 9.5C4.5 9.875 4.395 10.23 4.21 10.53C4.105 10.71 3.97 10.87 3.815 11H8.87C9.905 11 10.75 10.155 10.75 9.12V8.52499H9.8C9.26 8.52499 8.765 8.13 8.72 7.59C8.69 7.275 8.81 6.97999 9.02 6.77499C9.205 6.58499 9.46 6.47501 9.74 6.47501Z" fill="#92ABFE"/>
<path d="M7.425 1.97482V3.87481H3.13C2.095 3.87481 1.25 4.71982 1.25 5.75482V3.91982C1.25 3.32482 1.615 2.7948 2.17 2.5848L6.14 1.0848C6.76 0.854803 7.425 1.30982 7.425 1.97482Z" fill="#92ABFE"/>
<path d="M11.2794 6.98508V8.01511C11.2794 8.29011 11.0594 8.51509 10.7794 8.52509H9.79941C9.25941 8.52509 8.76441 8.13009 8.71941 7.59009C8.68941 7.27509 8.8094 6.98009 9.0194 6.77509C9.2044 6.58509 9.4594 6.4751 9.7394 6.4751H10.7794C11.0594 6.4851 11.2794 6.71008 11.2794 6.98508Z" fill="#92ABFE"/>
<path d="M7 6.375H3.5C3.295 6.375 3.125 6.205 3.125 6C3.125 5.795 3.295 5.625 3.5 5.625H7C7.205 5.625 7.375 5.795 7.375 6C7.375 6.205 7.205 6.375 7 6.375Z" fill="#92ABFE"/>
</svg>

