<svg width="8" height="8" viewBox="0 0 8 8" fill="none" xmlns="http://www.w3.org/2000/svg">
<path opacity="0.4" d="M5.66381 4.71523L5.37481 4.23549C5.31412 4.12856 5.25921 3.92626 5.25921 3.80777V3.0766C5.25921 2.13446 4.49336 1.36572 3.54833 1.36572C2.6033 1.36572 1.83745 2.13446 1.83745 3.0766V3.80777C1.83745 3.92626 1.78254 4.12856 1.72185 4.2326L1.42996 4.71523C1.31436 4.90886 1.28835 5.12272 1.3606 5.31924C1.42996 5.51287 1.59469 5.66315 1.80855 5.7354C2.36921 5.92614 2.95877 6.01862 3.54833 6.01862C4.13789 6.01862 4.72745 5.92614 5.28811 5.73829C5.49041 5.67182 5.64647 5.51865 5.72161 5.31924C5.79675 5.11983 5.77652 4.90019 5.66381 4.71523Z" fill="#92ABFE"/>
<path d="M4.1923 1.48744C3.99289 1.40941 3.77614 1.36606 3.54783 1.36606C3.32241 1.36606 3.10566 1.40652 2.90625 1.48744C3.03052 1.25335 3.27617 1.10596 3.54783 1.10596C3.82238 1.10596 4.06514 1.25335 4.1923 1.48744Z" fill="#92ABFE"/>
<path d="M4.35941 6.31051C4.23803 6.64575 3.91724 6.88562 3.54154 6.88562C3.31323 6.88562 3.08781 6.79314 2.92886 6.62841C2.83638 6.54171 2.76702 6.42611 2.72656 6.30762C2.76413 6.3134 2.8017 6.31629 2.84216 6.32207C2.90863 6.33074 2.97799 6.33941 3.04735 6.34519C3.21208 6.35964 3.3797 6.36831 3.54732 6.36831C3.71205 6.36831 3.87678 6.35964 4.03862 6.34519C4.09931 6.33941 4.16 6.33652 4.2178 6.32785C4.26404 6.32207 4.31028 6.31629 4.35941 6.31051Z" fill="#92ABFE"/>
</svg>
