<svg width="21" height="21" viewBox="0 0 21 21" fill="none" xmlns="http://www.w3.org/2000/svg">
<path d="M14.1472 1.74805H6.82364C3.64253 1.74805 1.74609 3.64448 1.74609 6.82559V14.1404C1.74609 17.3302 3.64253 19.2267 6.82364 19.2267H14.1384C17.3196 19.2267 19.216 17.3302 19.216 14.1491V6.82559C19.2247 3.64448 17.3283 1.74805 14.1472 1.74805ZM14.8551 15.0755H6.11575C5.75744 15.0755 5.4603 14.7784 5.4603 14.4201C5.4603 14.0617 5.75744 13.7646 6.11575 13.7646H14.8551C15.2134 13.7646 15.5105 14.0617 15.5105 14.4201C15.5105 14.7784 15.2134 15.0755 14.8551 15.0755ZM14.8551 11.1428H6.11575C5.75744 11.1428 5.4603 10.8457 5.4603 10.4874C5.4603 10.1291 5.75744 9.83191 6.11575 9.83191H14.8551C15.2134 9.83191 15.5105 10.1291 15.5105 10.4874C15.5105 10.8457 15.2134 11.1428 14.8551 11.1428ZM14.8551 7.21012H6.11575C5.75744 7.21012 5.4603 6.91298 5.4603 6.55467C5.4603 6.19636 5.75744 5.89922 6.11575 5.89922H14.8551C15.2134 5.89922 15.5105 6.19636 15.5105 6.55467C15.5105 6.91298 15.2134 7.21012 14.8551 7.21012Z" fill="#04177F"/>
</svg>
