<svg width="12" height="13" viewBox="0 0 12 13" fill="none" xmlns="http://www.w3.org/2000/svg">
<path d="M6 9.33385C7.3385 9.33385 8.52728 8.72883 9.08333 7.7574V8.34219C9.08333 9.78898 7.72564 11.0005 6 11.0005C4.27436 11.0005 2.91667 9.78898 2.91667 8.34219V7.7574C3.47272 8.72883 4.6615 9.33385 6 9.33385Z" fill="#92ABFE" stroke="#92ABFE" stroke-width="0.333333"/>
<path opacity="0.4" d="M9.25 3.99219V6.49219C9.25 8.05219 7.795 9.16719 6 9.16719C4.205 9.16719 2.75 8.05219 2.75 6.49219V3.99219C2.75 4.44719 2.875 4.86719 3.095 5.22719C3.63 6.10719 4.73 6.66719 6 6.66719C7.27 6.66719 8.37 6.10719 8.905 5.22719C9.125 4.86719 9.25 4.44719 9.25 3.99219Z" fill="#92ABFE"/>
<path d="M9.25 3.99199C9.25 4.44699 9.125 4.86699 8.905 5.22699C8.37 6.10699 7.27 6.66699 6 6.66699C4.73 6.66699 3.63 6.10699 3.095 5.22699C2.875 4.86699 2.75 4.44699 2.75 3.99199C2.75 2.43199 4.205 1.16699 6 1.16699C6.9 1.16699 7.71 1.48199 8.3 1.99199C8.885 2.50699 9.25 3.21199 9.25 3.99199Z" fill="#92ABFE"/>
</svg>
