<svg width="20" height="20" viewBox="0 0 20 20" fill="none" xmlns="http://www.w3.org/2000/svg">
<path d="M10.0026 15.4998C12.002 15.4998 13.839 14.7052 14.9193 13.3693V13.6248C14.9193 15.8852 12.7862 17.8332 10.0026 17.8332C7.21902 17.8332 5.08594 15.8852 5.08594 13.6248V13.3693C6.16619 14.7052 8.00316 15.4998 10.0026 15.4998Z" fill="#92ABFE" stroke="#92ABFE"/>
<path opacity="0.4" d="M15.4193 6.375V10.5417C15.4193 13.1417 12.9943 15 10.0026 15C7.01094 15 4.58594 13.1417 4.58594 10.5417V6.375C4.58594 7.13333 4.79427 7.83333 5.16094 8.43333C6.05261 9.9 7.88594 10.8333 10.0026 10.8333C12.1193 10.8333 13.9526 9.9 14.8443 8.43333C15.2109 7.83333 15.4193 7.13333 15.4193 6.375Z" fill="#92ABFE"/>
<path d="M15.4193 6.37484C15.4193 7.13317 15.2109 7.83317 14.8443 8.43317C13.9526 9.89984 12.1193 10.8332 10.0026 10.8332C7.88594 10.8332 6.05261 9.89984 5.16094 8.43317C4.79427 7.83317 4.58594 7.13317 4.58594 6.37484C4.58594 3.77484 7.01094 1.6665 10.0026 1.6665C11.5026 1.6665 12.8526 2.1915 13.8359 3.0415C14.8109 3.89984 15.4193 5.07484 15.4193 6.37484Z" fill="#92ABFE"/>
</svg>
