<svg width="12" height="12" viewBox="0 0 12 12" fill="none" xmlns="http://www.w3.org/2000/svg">
<g clip-path="url(#clip0_10335_196687)">
<path d="M6.2733 11.257C9.2396 11.257 11.6443 8.85239 11.6443 5.88609C11.6443 2.9198 9.2396 0.515137 6.2733 0.515137C3.307 0.515137 0.902344 2.9198 0.902344 5.88609C0.902344 8.85239 3.307 11.257 6.2733 11.257Z" fill="#F0F0F0"/>
<path d="M6.04297 5.88648H11.6474C11.6474 5.40171 11.5828 4.93208 11.4624 4.48535H6.04297V5.88648Z" fill="#D80027"/>
<path d="M6.04297 3.08423H10.8591C10.5303 2.54772 10.11 2.07351 9.61982 1.68311H6.04297V3.08423Z" fill="#D80027"/>
<path d="M6.27693 11.2574C7.54097 11.2574 8.7028 10.8205 9.62027 10.0898H2.93359C3.85106 10.8205 5.01289 11.2574 6.27693 11.2574Z" fill="#D80027"/>
<path d="M1.69313 8.68872H10.8584C11.1224 8.25802 11.3271 7.78722 11.4617 7.2876H1.08984C1.22447 7.78722 1.42918 8.25802 1.69313 8.68872Z" fill="#D80027"/>
<path d="M3.39027 1.35389H3.87972L3.42445 1.68464L3.59835 2.21983L3.1431 1.88907L2.68785 2.21983L2.83807 1.75749C2.43722 2.09139 2.08588 2.48259 1.79636 2.91847H1.95318L1.66338 3.12901C1.61823 3.20433 1.57493 3.28084 1.53343 3.35849L1.67182 3.78441L1.41363 3.59683C1.34945 3.7328 1.29075 3.87184 1.23799 4.01377L1.39045 4.48306H1.95318L1.49791 4.81381L1.67182 5.349L1.21657 5.01824L0.943864 5.21638C0.916568 5.43579 0.902344 5.65928 0.902344 5.88609H6.2733C6.2733 2.91981 6.2733 2.57011 6.2733 0.515137C5.21228 0.515137 4.22321 0.822918 3.39027 1.35389ZM3.59835 5.349L3.1431 5.01824L2.68785 5.349L2.86176 4.81381L2.40648 4.48306H2.96922L3.1431 3.94787L3.31699 4.48306H3.87972L3.42445 4.81381L3.59835 5.349ZM3.42445 3.24923L3.59835 3.78441L3.1431 3.45366L2.68785 3.78441L2.86176 3.24923L2.40648 2.91847H2.96922L3.1431 2.38329L3.31699 2.91847H3.87972L3.42445 3.24923ZM5.52489 5.349L5.06964 5.01824L4.61439 5.349L4.78829 4.81381L4.33302 4.48306H4.89575L5.06964 3.94787L5.24352 4.48306H5.80626L5.35099 4.81381L5.52489 5.349ZM5.35099 3.24923L5.52489 3.78441L5.06964 3.45366L4.61439 3.78441L4.78829 3.24923L4.33302 2.91847H4.89575L5.06964 2.38329L5.24352 2.91847H5.80626L5.35099 3.24923ZM5.35099 1.68464L5.52489 2.21983L5.06964 1.88907L4.61439 2.21983L4.78829 1.68464L4.33302 1.35389H4.89575L5.06964 0.818701L5.24352 1.35389H5.80626L5.35099 1.68464Z" fill="#0052B4"/>
</g>
<defs>
<clipPath id="clip0_10335_196687">
<rect width="10.7419" height="10.7419" fill="white" transform="translate(0.902344 0.515137)"/>
</clipPath>
</defs>
</svg>

