<svg width="20" height="10" viewBox="0 0 20 10" fill="none" xmlns="http://www.w3.org/2000/svg">
<g filter="url(#filter0_d_10322_202373)">
<rect x="1.34375" y="1.52783" width="16.762" height="6.936" rx="2.312" fill="white" shape-rendering="crispEdges"/>
<path d="M6.19951 2.10596H5.44811C4.52331 2.10596 3.94531 2.68396 3.94531 3.60876V4.77921H5.75156C5.87005 4.77921 5.96831 4.87747 5.96831 4.99596C5.96831 5.11445 5.87005 5.21271 5.75156 5.21271H3.94531V6.38316C3.94531 7.30796 4.52331 7.88596 5.44811 7.88596H6.19662C7.12142 7.88596 7.69942 7.30796 7.69942 6.38316V3.60876C7.70231 2.68396 7.12431 2.10596 6.19951 2.10596Z" fill="#F95252"/>
<path d="M2.66099 4.77895L3.25922 4.18072C3.30257 4.13737 3.3228 4.08246 3.3228 4.02755C3.3228 3.97264 3.30257 3.91484 3.25922 3.87438C3.17541 3.79057 3.03669 3.79057 2.95288 3.87438L1.98473 4.84253C1.90092 4.92634 1.90092 5.06506 1.98473 5.14887L2.95288 6.11702C3.03669 6.20083 3.17541 6.20083 3.25922 6.11702C3.34303 6.03321 3.34303 5.89449 3.25922 5.81068L2.66099 5.21245H3.94415V4.77895H2.66099Z" fill="#F95252"/>
<path d="M14.6377 6.38312C14.4354 6.38312 14.2331 6.30509 14.08 6.15192L12.1957 4.26763C12.1119 4.18382 12.1119 4.04511 12.1957 3.9613C12.2795 3.87748 12.4182 3.87748 12.502 3.9613L14.3863 5.84558C14.525 5.9843 14.7504 5.9843 14.8892 5.84558L16.7734 3.9613C16.8572 3.87748 16.996 3.87748 17.0798 3.9613C17.1636 4.04511 17.1636 4.18382 17.0798 4.26763L15.1955 6.15192C15.0423 6.30509 14.84 6.38312 14.6377 6.38312Z" fill="#92ABFE"/>
</g>
<defs>
<filter id="filter0_d_10322_202373" x="0.18775" y="0.371832" width="19.0737" height="9.24804" filterUnits="userSpaceOnUse" color-interpolation-filters="sRGB">
<feFlood flood-opacity="0" result="BackgroundImageFix"/>
<feColorMatrix in="SourceAlpha" type="matrix" values="0 0 0 0 0 0 0 0 0 0 0 0 0 0 0 0 0 0 127 0" result="hardAlpha"/>
<feOffset/>
<feGaussianBlur stdDeviation="0.578"/>
<feComposite in2="hardAlpha" operator="out"/>
<feColorMatrix type="matrix" values="0 0 0 0 0 0 0 0 0 0 0 0 0 0 0 0 0 0 0.25 0"/>
<feBlend mode="normal" in2="BackgroundImageFix" result="effect1_dropShadow_10322_202373"/>
<feBlend mode="normal" in="SourceGraphic" in2="effect1_dropShadow_10322_202373" result="shape"/>
</filter>
</defs>
</svg>
