<svg width="6" height="8" viewBox="0 0 6 8" fill="none" xmlns="http://www.w3.org/2000/svg">
<path d="M2.02014 0.185547H1.68017C0.660278 0.185547 0.320312 0.794085 0.320312 1.54541V1.88537V6.64489C0.320312 6.92706 0.63988 7.08684 0.864257 6.91686L1.4456 6.4817C1.58158 6.37971 1.77196 6.39331 1.89435 6.5157L2.45869 7.08344C2.59128 7.21603 2.80886 7.21603 2.94144 7.08344L3.51259 6.5123C3.63157 6.39331 3.82195 6.37971 3.95454 6.4817L4.53588 6.91686C4.76026 7.08344 5.07983 6.92366 5.07983 6.64489V0.865477C5.07983 0.491516 5.3858 0.185547 5.75976 0.185547H2.02014ZM3.63497 3.16024H2.95504V3.84017C2.95504 3.97956 2.83946 4.09515 2.70007 4.09515C2.56068 4.09515 2.4451 3.97956 2.4451 3.84017V3.16024H1.76516C1.62578 3.16024 1.51019 3.04465 1.51019 2.90527C1.51019 2.76588 1.62578 2.6503 1.76516 2.6503H2.4451V1.97036C2.4451 1.83098 2.56068 1.71539 2.70007 1.71539C2.83946 1.71539 2.95504 1.83098 2.95504 1.97036V2.6503H3.63497C3.77436 2.6503 3.88995 2.76588 3.88995 2.90527C3.88995 3.04465 3.77436 3.16024 3.63497 3.16024Z" fill="white"/>
</svg>
