<svg width="12" height="13" viewBox="0 0 12 13" fill="none" xmlns="http://www.w3.org/2000/svg">
<path d="M7.26656 2.06813L6.26656 1.06813C6.26156 1.06313 6.25656 1.06313 6.25656 1.05813C6.22656 1.02813 6.18656 1.00312 6.14656 0.983125C6.14156 0.983125 6.14156 0.983125 6.13656 0.978125C6.09656 0.963125 6.05656 0.958125 6.01656 0.953125C6.00156 0.953125 5.99156 0.953125 5.97656 0.953125C5.94656 0.953125 5.91656 0.963125 5.88656 0.973125C5.87156 0.978125 5.86156 0.983125 5.85156 0.988125C5.81156 1.00812 5.77156 1.02813 5.74156 1.06313L4.74156 2.06313C4.59656 2.20812 4.59656 2.44813 4.74156 2.59312C4.88656 2.73812 5.12656 2.73812 5.27156 2.59312L5.63156 2.23312V4.83313C5.63156 5.03813 5.80156 5.20813 6.00656 5.20813C6.21156 5.20813 6.37656 5.03813 6.37656 4.83313V2.23812L6.73656 2.59813C6.81156 2.67313 6.90656 2.70812 7.00156 2.70812C7.09656 2.70812 7.19156 2.67313 7.26656 2.59813C7.41156 2.45313 7.41156 2.21312 7.26656 2.06813Z" fill="#92ABFE"/>
<path opacity="0.4" d="M10.8283 6.24255V6.24301V8.42801C10.8283 9.30486 10.5676 9.9847 10.1071 10.4452C9.64669 10.9056 8.96686 11.1663 8.09 11.1663H3.905C3.02815 11.1663 2.34836 10.9056 1.88792 10.4446C1.42746 9.98357 1.16667 9.30248 1.16667 8.42301V6.23801C1.16667 5.36115 1.42739 4.68132 1.88785 4.22086C2.34831 3.7604 3.02815 3.49967 3.905 3.49967H8.095C8.97188 3.49967 9.6516 3.76041 10.1114 4.22134C10.5711 4.68225 10.8307 5.36318 10.8283 6.24255Z" fill="#92ABFE" stroke="#92ABFE" stroke-width="0.333333"/>
<path d="M10.65 6.44824H8.91C8.42 6.44824 7.985 6.71824 7.765 7.15824L7.345 7.98824C7.245 8.18824 7.045 8.31324 6.825 8.31324H5.185C5.03 8.31324 4.81 8.27824 4.665 7.98824L4.245 7.16324C4.025 6.72824 3.585 6.45324 3.1 6.45324H1.35C1.155 6.45324 1 6.60824 1 6.80324V8.43324C1 10.2482 2.09 11.3332 3.91 11.3332H8.1C9.815 11.3332 10.87 10.3932 11 8.72324V6.79824C11 6.60824 10.845 6.44824 10.65 6.44824Z" fill="#92ABFE"/>
</svg>
