<svg width="12" height="13" viewBox="0 0 12 13" fill="none" xmlns="http://www.w3.org/2000/svg">
<path opacity="0.4" d="M8.0939 11.3332H3.90891C3.03205 11.3332 2.35221 11.0725 1.89176 10.612C1.4313 10.1516 1.17057 9.47173 1.17057 8.59488V4.40988C1.17057 3.53303 1.4313 2.85319 1.89176 2.39273C2.35221 1.93228 3.03205 1.67155 3.90891 1.67155H8.0939C8.97076 1.67155 9.65059 1.93228 10.1111 2.39273C10.5715 2.85319 10.8322 3.53303 10.8322 4.40988V8.59488C10.8322 9.47173 10.5715 10.1516 10.1111 10.612C9.65059 11.0725 8.97076 11.3332 8.0939 11.3332Z" fill="#92ABFE" stroke="#92ABFE" stroke-width="0.333333"/>
<path d="M8.20499 5.41476C7.89999 6.28476 7.08 6.86977 6.16 6.86977C6.155 6.86977 6.15499 6.86977 6.14999 6.86977L5.12 6.86478C5.12 6.86478 5.11999 6.86478 5.11499 6.86478C4.73499 6.86478 4.40499 7.11977 4.30499 7.48477C4.74999 7.62477 5.07501 8.03977 5.07501 8.52977C5.07501 9.13477 4.58001 9.62978 3.97501 9.62978C3.37001 9.62978 2.875 9.13477 2.875 8.52977C2.875 8.08477 3.14499 7.69977 3.52499 7.52977V5.35977C3.14499 5.20977 2.875 4.83977 2.875 4.40977C2.875 3.84477 3.33499 3.38477 3.89999 3.38477C4.46499 3.38477 4.92499 3.84477 4.92499 4.40977C4.92499 4.84477 4.65499 5.20977 4.27499 5.35977V6.36977C4.51999 6.21477 4.80999 6.12477 5.11499 6.12477H5.12L6.14999 6.12978C6.73999 6.14978 7.26501 5.76977 7.47501 5.21977C7.23001 5.02977 7.07001 4.73977 7.07001 4.40977C7.07001 3.84477 7.53 3.38477 8.095 3.38477C8.66 3.38477 9.12 3.84477 9.12 4.40977C9.125 4.92977 8.71999 5.35976 8.20499 5.41476Z" fill="#92ABFE"/>
</svg>
