<svg width="12" height="13" viewBox="0 0 12 13" fill="none" xmlns="http://www.w3.org/2000/svg">
<path opacity="0.4" d="M8.095 1.33301H3.91C2.085 1.33301 1 2.41801 1 4.23801V8.42301C1 10.243 2.085 11.328 3.905 11.328H8.09C9.91 11.328 10.995 10.243 10.995 8.42301V4.23801C11 2.41801 9.915 1.33301 8.095 1.33301Z" fill="#92ABFE"/>
<path d="M5.09297 3.38379C4.88797 3.38379 4.71797 3.55379 4.71797 3.75879V8.00879L3.83797 7.12879C3.69297 6.98379 3.45297 6.98379 3.30797 7.12879C3.16297 7.27379 3.16297 7.51379 3.30797 7.65879L4.82797 9.17879C4.86297 9.21379 4.90297 9.23879 4.94797 9.25879C4.99297 9.27879 5.04297 9.28879 5.09297 9.28879C5.14297 9.28879 5.18797 9.27879 5.23797 9.25879C5.32797 9.21879 5.40297 9.14879 5.44297 9.05379C5.46297 9.00879 5.47297 8.95879 5.47297 8.90879V3.75879C5.46797 3.54879 5.30297 3.38379 5.09297 3.38379Z" fill="#92ABFE"/>
<path d="M8.69906 5.01379L7.17906 3.49379C7.14406 3.45879 7.10406 3.43379 7.05906 3.41379C6.96906 3.37379 6.86406 3.37379 6.77406 3.41379C6.68406 3.45379 6.60906 3.52379 6.56906 3.61879C6.54906 3.66379 6.53906 3.71379 6.53906 3.76379V8.91879C6.53906 9.12379 6.70906 9.29379 6.91406 9.29379C7.11906 9.29379 7.28906 9.12379 7.28906 8.91879V4.66879L8.16906 5.54879C8.24406 5.62379 8.33906 5.65879 8.43406 5.65879C8.52906 5.65879 8.62406 5.62379 8.69906 5.54879C8.84406 5.39379 8.84406 5.15879 8.69906 5.01379Z" fill="#92ABFE"/>
</svg>
