<svg width="12" height="12" viewBox="0 0 12 12" fill="none" xmlns="http://www.w3.org/2000/svg">
<path opacity="0.4" d="M8.095 1H3.905C2.085 1 1 2.085 1 3.905V8.09C1 9.915 2.085 11 3.905 11H8.09C9.91 11 10.995 9.915 10.995 8.095V3.905C11 2.085 9.915 1 8.095 1Z" fill="#92ABFE"/>
<path d="M5.36984 8.14008C5.27484 8.14008 5.17984 8.10508 5.10484 8.03008C4.95984 7.88508 4.95984 7.64508 5.10484 7.50008L6.60484 6.00008L5.10484 4.50008C4.95984 4.35508 4.95984 4.11508 5.10484 3.97008C5.24984 3.82508 5.48984 3.82508 5.63484 3.97008L7.39984 5.73508C7.54484 5.88008 7.54484 6.12008 7.39984 6.26508L5.63484 8.03008C5.55984 8.10508 5.46484 8.14008 5.36984 8.14008Z" fill="#92ABFE"/>
</svg>
