<svg width="25" height="25" viewBox="0 0 25 25" fill="none" xmlns="http://www.w3.org/2000/svg">
<g clip-path="url(#clip0_483_31642)">
<rect width="24.1967" height="24.1967" transform="translate(0.266602 0.28125)" fill="white"/>
<path d="M23.7108 16.5874C24.1971 15.2768 24.4633 13.8591 24.4633 12.3793C24.4633 10.8994 24.1971 9.48186 23.7108 8.17118L12.365 7.11914L1.01911 8.17118C0.532813 9.48186 0.266602 10.8994 0.266602 12.3793C0.266602 13.8591 0.532813 15.2768 1.01911 16.5874L12.365 17.6394L23.7108 16.5874Z" fill="#F0F0F0"/>
<path d="M12.3649 24.4781C17.5667 24.4781 22.0014 21.195 23.7107 16.5879H1.01904C2.7285 21.195 7.16302 24.4781 12.3649 24.4781Z" fill="#D80027"/>
<path d="M12.3649 0.28125C7.16302 0.28125 2.7285 3.56444 1.01904 8.1715H23.7108C22.0014 3.56444 17.5667 0.28125 12.3649 0.28125Z" fill="#D80027"/>
</g>
<defs>
<clipPath id="clip0_483_31642">
<rect width="24.1967" height="24.1967" fill="white" transform="translate(0.266602 0.28125)"/>
</clipPath>
</defs>
</svg>
