<svg width="25" height="25" viewBox="0 0 25 25" fill="none" xmlns="http://www.w3.org/2000/svg">
<g clip-path="url(#clip0_483_31626)">
<rect width="24.1967" height="24.1967" transform="translate(0.266602 0.785156)" fill="white"/>
<path d="M12.365 24.9819C19.0467 24.9819 24.4633 19.5652 24.4633 12.8835C24.4633 6.20177 19.0467 0.785156 12.365 0.785156C5.68322 0.785156 0.266602 6.20177 0.266602 12.8835C0.266602 19.5652 5.68322 24.9819 12.365 24.9819Z" fill="#F0F0F0"/>
<path d="M0.266602 12.8829C0.266602 18.0848 3.54979 22.5193 8.15685 24.2288V1.53711C3.54979 3.24647 0.266602 7.68109 0.266602 12.8829Z" fill="#6DA544"/>
<path d="M24.4632 12.8829C24.4632 7.68109 21.1801 3.24647 16.573 1.53711V24.2288C21.1801 22.5193 24.4632 18.0848 24.4632 12.8829Z" fill="#6DA544"/>
</g>
<defs>
<clipPath id="clip0_483_31626">
<rect width="24.1967" height="24.1967" fill="white" transform="translate(0.266602 0.785156)"/>
</clipPath>
</defs>
</svg>
