<svg width="134" height="50" viewBox="0 0 134 50" fill="none" xmlns="http://www.w3.org/2000/svg">
<g opacity="0.5">
<path d="M0.671875 28.748L2.8941 26.773C5.11632 24.7855 9.56077 20.8355 14.0052 18.9605C18.4497 17.0855 22.8941 17.2855 27.3385 16.998C31.783 16.7105 36.2274 15.9105 40.6719 14.898C45.1163 13.873 49.5608 12.623 54.0052 16.123C58.4497 19.623 62.8941 27.873 67.3385 30.9105C71.783 33.9605 76.2274 31.7855 80.6719 29.998C85.1163 28.2105 89.5608 26.7855 94.0052 28.223C98.4497 29.6605 102.894 33.9605 107.339 30.5605C111.783 27.1605 116.227 16.0855 120.672 9.87304C125.116 3.66055 129.561 2.33555 131.783 1.66055L134.005 0.998047V49.748H131.783C129.561 49.748 125.116 49.748 120.672 49.748C116.227 49.748 111.783 49.748 107.339 49.748C102.894 49.748 98.4497 49.748 94.0052 49.748C89.5608 49.748 85.1163 49.748 80.6719 49.748C76.2274 49.748 71.783 49.748 67.3385 49.748C62.8941 49.748 58.4497 49.748 54.0052 49.748C49.5608 49.748 45.1163 49.748 40.6719 49.748C36.2274 49.748 31.783 49.748 27.3385 49.748C22.8941 49.748 18.4497 49.748 14.0052 49.748C9.56077 49.748 5.11632 49.748 2.8941 49.748H0.671875V28.748Z" fill="#FFDA44" fill-opacity="0.5"/>
<path d="M0.671875 33.623L2.8941 31.398C5.11632 29.1605 9.56077 24.7105 14.0052 20.348C18.4497 15.998 22.8941 11.748 27.3385 11.4605C31.783 11.1605 36.2274 14.8355 40.6719 18.973C45.1163 23.123 49.5608 27.748 54.0052 30.3355C58.4497 32.9105 62.8941 33.4605 67.3385 34.523C71.783 35.5855 76.2274 37.1605 80.6719 37.8105C85.1163 38.4605 89.5608 38.1605 94.0052 35.2105C98.4497 32.248 102.894 26.623 107.339 21.848C111.783 17.0855 116.227 13.1605 120.672 14.023C125.116 14.873 129.561 20.498 131.783 23.3105L134.005 26.123V49.748H131.783C129.561 49.748 125.116 49.748 120.672 49.748C116.227 49.748 111.783 49.748 107.339 49.748C102.894 49.748 98.4497 49.748 94.0052 49.748C89.5608 49.748 85.1163 49.748 80.6719 49.748C76.2274 49.748 71.783 49.748 67.3385 49.748C62.8941 49.748 58.4497 49.748 54.0052 49.748C49.5608 49.748 45.1163 49.748 40.6719 49.748C36.2274 49.748 31.783 49.748 27.3385 49.748C22.8941 49.748 18.4497 49.748 14.0052 49.748C9.56077 49.748 5.11632 49.748 2.8941 49.748H0.671875V33.623Z" fill="#38D892" fill-opacity="0.5"/>
</g>
</svg>
