<svg width="134" height="49" viewBox="0 0 134 49" fill="none" xmlns="http://www.w3.org/2000/svg">
<g opacity="0.5">
<path d="M0.671875 27.9639L2.8941 25.9889C5.11632 24.0014 9.56077 20.0514 14.0052 18.1764C18.4497 16.3014 22.8941 16.5014 27.3385 16.2139C31.783 15.9264 36.2274 15.1264 40.6719 14.1139C45.1163 13.0889 49.5608 11.8389 54.0052 15.3389C58.4497 18.8389 62.8941 27.0889 67.3385 30.1264C71.783 33.1764 76.2274 31.0014 80.6719 29.2139C85.1163 27.4264 89.5608 26.0014 94.0052 27.4389C98.4497 28.8764 102.894 33.1764 107.339 29.7764C111.783 26.3764 116.227 15.3014 120.672 9.08887C125.116 2.87637 129.561 1.55137 131.783 0.876367L134.005 0.213867V48.9639H131.783C129.561 48.9639 125.116 48.9639 120.672 48.9639C116.227 48.9639 111.783 48.9639 107.339 48.9639C102.894 48.9639 98.4497 48.9639 94.0052 48.9639C89.5608 48.9639 85.1163 48.9639 80.6719 48.9639C76.2274 48.9639 71.783 48.9639 67.3385 48.9639C62.8941 48.9639 58.4497 48.9639 54.0052 48.9639C49.5608 48.9639 45.1163 48.9639 40.6719 48.9639C36.2274 48.9639 31.783 48.9639 27.3385 48.9639C22.8941 48.9639 18.4497 48.9639 14.0052 48.9639C9.56077 48.9639 5.11632 48.9639 2.8941 48.9639H0.671875V27.9639Z" fill="#FCB1B1"/>
<path d="M0.671875 32.8389L2.8941 30.6139C5.11632 28.3764 9.56077 23.9263 14.0052 19.5638C18.4497 15.2139 22.8941 10.9639 27.3385 10.6764C31.783 10.3764 36.2274 14.0514 40.6719 18.1888C45.1163 22.3388 49.5608 26.9639 54.0052 29.5514C58.4497 32.1264 62.8941 32.6764 67.3385 33.7389C71.783 34.8014 76.2274 36.3763 80.6719 37.0264C85.1163 37.6763 89.5608 37.3764 94.0052 34.4264C98.4497 31.4639 102.894 25.8388 107.339 21.0638C111.783 16.3014 116.227 12.3764 120.672 13.2389C125.116 14.0889 129.561 19.7139 131.783 22.5264L134.005 25.3389V48.9638H131.783C129.561 48.9638 125.116 48.9638 120.672 48.9638C116.227 48.9638 111.783 48.9638 107.339 48.9638C102.894 48.9638 98.4497 48.9638 94.0052 48.9638C89.5608 48.9638 85.1163 48.9638 80.6719 48.9638C76.2274 48.9638 71.783 48.9638 67.3385 48.9638C62.8941 48.9638 58.4497 48.9638 54.0052 48.9638C49.5608 48.9638 45.1163 48.9638 40.6719 48.9638C36.2274 48.9638 31.783 48.9638 27.3385 48.9638C22.8941 48.9638 18.4497 48.9638 14.0052 48.9638C9.56077 48.9638 5.11632 48.9638 2.8941 48.9638H0.671875V32.8389Z" fill="#F95252" fill-opacity="0.4"/>
</g>
</svg>
