<svg width="13" height="13" viewBox="0 0 13 13" fill="none" xmlns="http://www.w3.org/2000/svg">
<path d="M11.4488 6.67285C11.4488 7.13213 11.0765 7.50445 10.6172 7.50445C10.1579 7.50445 9.78559 7.13213 9.78559 6.67285C9.78559 6.21357 10.1579 5.84125 10.6172 5.84125C11.0765 5.84125 11.4488 6.21357 11.4488 6.67285Z" fill="white" stroke="white" stroke-width="0.586806"/>
<path d="M10.6172 3.79785C11.2385 3.79785 11.7422 3.29417 11.7422 2.67285C11.7422 2.05153 11.2385 1.54785 10.6172 1.54785C9.99587 1.54785 9.49219 2.05153 9.49219 2.67285C9.49219 3.29417 9.99587 3.79785 10.6172 3.79785Z" fill="white"/>
<path d="M10.6172 11.7979C11.2385 11.7979 11.7422 11.2942 11.7422 10.6729C11.7422 10.0515 11.2385 9.54785 10.6172 9.54785C9.99587 9.54785 9.49219 10.0515 9.49219 10.6729C9.49219 11.2942 9.99587 11.7979 10.6172 11.7979Z" fill="white"/>
<path d="M2.61719 7.79785C3.23851 7.79785 3.74219 7.29417 3.74219 6.67285C3.74219 6.05153 3.23851 5.54785 2.61719 5.54785C1.99587 5.54785 1.49219 6.05153 1.49219 6.67285C1.49219 7.29417 1.99587 7.79785 2.61719 7.79785Z" fill="white"/>
<path opacity="0.4" d="M10.1172 7.04785C10.3222 7.04785 10.4922 6.87785 10.4922 6.67285C10.4922 6.46785 10.3222 6.29785 10.1172 6.29785H6.49219V4.17285C6.49219 3.38285 6.82719 3.04785 7.61719 3.04785H10.1172C10.3222 3.04785 10.4922 2.87785 10.4922 2.67285C10.4922 2.46785 10.3222 2.29785 10.1172 2.29785H7.61719C6.40719 2.29785 5.74219 2.96285 5.74219 4.17285V6.29785H3.11719C2.91219 6.29785 2.74219 6.46785 2.74219 6.67285C2.74219 6.87785 2.91219 7.04785 3.11719 7.04785H5.74219V9.17285C5.74219 10.3829 6.40719 11.0479 7.61719 11.0479H10.1172C10.3222 11.0479 10.4922 10.8779 10.4922 10.6729C10.4922 10.4679 10.3222 10.2979 10.1172 10.2979H7.61719C6.82719 10.2979 6.49219 9.96285 6.49219 9.17285V7.04785H10.1172Z" fill="white"/>
</svg>
