<svg width="134" height="49" viewBox="0 0 134 49" fill="none" xmlns="http://www.w3.org/2000/svg">
<g opacity="0.5">
<path d="M0 27.9639L2.22222 25.9889C4.44445 24.0014 8.88889 20.0514 13.3333 18.1764C17.7778 16.3014 22.2222 16.5014 26.6667 16.2139C31.1111 15.9264 35.5556 15.1264 40 14.1139C44.4445 13.0889 48.8889 11.8389 53.3333 15.3389C57.7778 18.8389 62.2222 27.0889 66.6667 30.1264C71.1111 33.1764 75.5556 31.0014 80 29.2139C84.4445 27.4264 88.8889 26.0014 93.3333 27.4389C97.7778 28.8764 102.222 33.1764 106.667 29.7764C111.111 26.3764 115.556 15.3014 120 9.08887C124.444 2.87637 128.889 1.55137 131.111 0.876367L133.333 0.213867V48.9639H131.111C128.889 48.9639 124.444 48.9639 120 48.9639C115.556 48.9639 111.111 48.9639 106.667 48.9639C102.222 48.9639 97.7778 48.9639 93.3333 48.9639C88.8889 48.9639 84.4445 48.9639 80 48.9639C75.5556 48.9639 71.1111 48.9639 66.6667 48.9639C62.2222 48.9639 57.7778 48.9639 53.3333 48.9639C48.8889 48.9639 44.4445 48.9639 40 48.9639C35.5556 48.9639 31.1111 48.9639 26.6667 48.9639C22.2222 48.9639 17.7778 48.9639 13.3333 48.9639C8.88889 48.9639 4.44445 48.9639 2.22222 48.9639H0V27.9639Z" fill="#FFCB89" fill-opacity="0.5"/>
<path d="M0 32.8379L2.22222 30.6129C4.44445 28.3754 8.88889 23.9254 13.3333 19.5629C17.7778 15.2129 22.2222 10.9629 26.6667 10.6754C31.1111 10.3754 35.5556 14.0504 40 18.1879C44.4445 22.3379 48.8889 26.9629 53.3333 29.5504C57.7778 32.1254 62.2222 32.6754 66.6667 33.7379C71.1111 34.8004 75.5556 36.3754 80 37.0254C84.4445 37.6754 88.8889 37.3754 93.3333 34.4254C97.7778 31.4629 102.222 25.8379 106.667 21.0629C111.111 16.3004 115.556 12.3754 120 13.2379C124.444 14.0879 128.889 19.7129 131.111 22.5254L133.333 25.3379V48.9629H131.111C128.889 48.9629 124.444 48.9629 120 48.9629C115.556 48.9629 111.111 48.9629 106.667 48.9629C102.222 48.9629 97.7778 48.9629 93.3333 48.9629C88.8889 48.9629 84.4445 48.9629 80 48.9629C75.5556 48.9629 71.1111 48.9629 66.6667 48.9629C62.2222 48.9629 57.7778 48.9629 53.3333 48.9629C48.8889 48.9629 44.4445 48.9629 40 48.9629C35.5556 48.9629 31.1111 48.9629 26.6667 48.9629C22.2222 48.9629 17.7778 48.9629 13.3333 48.9629C8.88889 48.9629 4.44445 48.9629 2.22222 48.9629H0V32.8379Z" fill="#F0D35E" fill-opacity="0.5"/>
</g>
</svg>
