<svg width="10" height="10" viewBox="0 0 10 10" fill="none" xmlns="http://www.w3.org/2000/svg">
<path opacity="0.4" d="M6.83817 8.83636H3.9017C3.39282 8.83636 2.98301 8.66753 2.70089 8.38541C2.41876 8.10328 2.24994 7.69347 2.24994 7.18459V3.514C2.24994 3.00512 2.41876 2.59532 2.70089 2.31319C2.98301 2.03107 3.39282 1.86224 3.9017 1.86224H6.83817C7.34705 1.86224 7.75686 2.03107 8.03898 2.31319C8.32111 2.59532 8.48994 3.00512 8.48994 3.514V7.18459C8.48994 7.69347 8.32111 8.10328 8.03898 8.38541C7.75686 8.66753 7.34705 8.83636 6.83817 8.83636Z" fill="#92ABFE" stroke="#92ABFE" stroke-width="0.367059"/>
<path d="M3.50257 3.99243C4.57452 3.06488 6.16469 3.06379 7.23433 3.98824L6.48157 5.1968C5.83592 4.65898 4.89838 4.65898 4.25273 5.1968L3.50257 3.99243Z" fill="#92ABFE" stroke="#92ABFE" stroke-width="0.367059"/>
</svg>
