<svg width="12" height="13" viewBox="0 0 12 13" fill="none" xmlns="http://www.w3.org/2000/svg">
<path opacity="0.4" d="M8.095 1.17285H3.905C2.085 1.17285 1 2.25785 1 4.07785V8.26285C1 10.0879 2.085 11.1729 3.905 11.1729H8.09C9.91 11.1729 10.995 10.0879 10.995 8.26785V4.07785C11 2.25785 9.915 1.17285 8.095 1.17285Z" fill="#92ABFE"/>
<path d="M5.36984 8.31293C5.27484 8.31293 5.17984 8.27793 5.10484 8.20293C4.95984 8.05793 4.95984 7.81793 5.10484 7.67293L6.60484 6.17293L5.10484 4.67293C4.95984 4.52793 4.95984 4.28793 5.10484 4.14293C5.24984 3.99793 5.48984 3.99793 5.63484 4.14293L7.39984 5.90793C7.54484 6.05293 7.54484 6.29293 7.39984 6.43793L5.63484 8.20293C5.55984 8.27793 5.46484 8.31293 5.36984 8.31293Z" fill="#92ABFE"/>
</svg>
