<svg width="134" height="50" viewBox="0 0 134 50" fill="none" xmlns="http://www.w3.org/2000/svg">
<g opacity="0.5">
<path d="M0 28.5303L2.22222 26.5553C4.44445 24.5678 8.88889 20.6178 13.3333 18.7428C17.7778 16.8678 22.2222 17.0678 26.6667 16.7803C31.1111 16.4928 35.5556 15.6928 40 14.6803C44.4445 13.6553 48.8889 12.4053 53.3333 15.9053C57.7778 19.4053 62.2222 27.6553 66.6667 30.6928C71.1111 33.7428 75.5556 31.5678 80 29.7803C84.4445 27.9928 88.8889 26.5678 93.3333 28.0053C97.7778 29.4428 102.222 33.7428 106.667 30.3428C111.111 26.9428 115.556 15.8678 120 9.65527C124.444 3.44277 128.889 2.11777 131.111 1.44277L133.333 0.780273V49.5303H131.111C128.889 49.5303 124.444 49.5303 120 49.5303C115.556 49.5303 111.111 49.5303 106.667 49.5303C102.222 49.5303 97.7778 49.5303 93.3333 49.5303C88.8889 49.5303 84.4445 49.5303 80 49.5303C75.5556 49.5303 71.1111 49.5303 66.6667 49.5303C62.2222 49.5303 57.7778 49.5303 53.3333 49.5303C48.8889 49.5303 44.4445 49.5303 40 49.5303C35.5556 49.5303 31.1111 49.5303 26.6667 49.5303C22.2222 49.5303 17.7778 49.5303 13.3333 49.5303C8.88889 49.5303 4.44445 49.5303 2.22222 49.5303H0V28.5303Z" fill="#6DA544" fill-opacity="0.64"/>
<path d="M0 33.4053L2.22222 31.1803C4.44444 28.9428 8.88889 24.4928 13.3333 20.1303C17.7778 15.7803 22.2222 11.5303 26.6667 11.2428C31.1111 10.9428 35.5556 14.6178 40 18.7553C44.4445 22.9053 48.8889 27.5303 53.3333 30.1178C57.7778 32.6928 62.2222 33.2428 66.6667 34.3053C71.1111 35.3678 75.5556 36.9428 80 37.5928C84.4445 38.2428 88.8889 37.9428 93.3333 34.9928C97.7778 32.0303 102.222 26.4053 106.667 21.6303C111.111 16.8678 115.556 12.9428 120 13.8053C124.444 14.6553 128.889 20.2803 131.111 23.0928L133.333 25.9053V49.5303H131.111C128.889 49.5303 124.444 49.5303 120 49.5303C115.556 49.5303 111.111 49.5303 106.667 49.5303C102.222 49.5303 97.7778 49.5303 93.3333 49.5303C88.8889 49.5303 84.4445 49.5303 80 49.5303C75.5556 49.5303 71.1111 49.5303 66.6667 49.5303C62.2222 49.5303 57.7778 49.5303 53.3333 49.5303C48.8889 49.5303 44.4445 49.5303 40 49.5303C35.5556 49.5303 31.1111 49.5303 26.6667 49.5303C22.2222 49.5303 17.7778 49.5303 13.3333 49.5303C8.88889 49.5303 4.44444 49.5303 2.22222 49.5303H0V33.4053Z" fill="#96C23D" fill-opacity="0.5"/>
</g>
</svg>
