<svg width="134" height="50" viewBox="0 0 134 50" fill="none" xmlns="http://www.w3.org/2000/svg">
<g opacity="0.5">
<path d="M0.671875 28.5303L2.8941 26.5553C5.11632 24.5678 9.56077 20.6178 14.0052 18.7428C18.4497 16.8678 22.8941 17.0678 27.3385 16.7803C31.783 16.4928 36.2274 15.6928 40.6719 14.6803C45.1163 13.6553 49.5608 12.4053 54.0052 15.9053C58.4497 19.4053 62.8941 27.6553 67.3385 30.6928C71.783 33.7428 76.2274 31.5678 80.6719 29.7803C85.1163 27.9928 89.5608 26.5678 94.0052 28.0053C98.4497 29.4428 102.894 33.7428 107.339 30.3428C111.783 26.9428 116.227 15.8678 120.672 9.65527C125.116 3.44277 129.561 2.11777 131.783 1.44277L134.005 0.780273V49.5303H131.783C129.561 49.5303 125.116 49.5303 120.672 49.5303C116.227 49.5303 111.783 49.5303 107.339 49.5303C102.894 49.5303 98.4497 49.5303 94.0052 49.5303C89.5608 49.5303 85.1163 49.5303 80.6719 49.5303C76.2274 49.5303 71.783 49.5303 67.3385 49.5303C62.8941 49.5303 58.4497 49.5303 54.0052 49.5303C49.5608 49.5303 45.1163 49.5303 40.6719 49.5303C36.2274 49.5303 31.783 49.5303 27.3385 49.5303C22.8941 49.5303 18.4497 49.5303 14.0052 49.5303C9.56077 49.5303 5.11632 49.5303 2.8941 49.5303H0.671875V28.5303Z" fill="#CED9FF"/>
<path d="M0.671875 33.4053L2.8941 31.1803C5.11632 28.9428 9.56077 24.4928 14.0052 20.1303C18.4497 15.7803 22.8941 11.5303 27.3385 11.2428C31.783 10.9428 36.2274 14.6178 40.6719 18.7553C45.1163 22.9053 49.5608 27.5303 54.0052 30.1178C58.4497 32.6928 62.8941 33.2428 67.3385 34.3053C71.783 35.3678 76.2274 36.9428 80.6719 37.5928C85.1163 38.2428 89.5608 37.9428 94.0052 34.9928C98.4497 32.0303 102.894 26.4053 107.339 21.6303C111.783 16.8678 116.227 12.9428 120.672 13.8053C125.116 14.6553 129.561 20.2803 131.783 23.0928L134.005 25.9053V49.5303H131.783C129.561 49.5303 125.116 49.5303 120.672 49.5303C116.227 49.5303 111.783 49.5303 107.339 49.5303C102.894 49.5303 98.4497 49.5303 94.0052 49.5303C89.5608 49.5303 85.1163 49.5303 80.6719 49.5303C76.2274 49.5303 71.783 49.5303 67.3385 49.5303C62.8941 49.5303 58.4497 49.5303 54.0052 49.5303C49.5608 49.5303 45.1163 49.5303 40.6719 49.5303C36.2274 49.5303 31.783 49.5303 27.3385 49.5303C22.8941 49.5303 18.4497 49.5303 14.0052 49.5303C9.56077 49.5303 5.11632 49.5303 2.8941 49.5303H0.671875V33.4053Z" fill="#04177F" fill-opacity="0.4"/>
</g>
</svg>
