<svg width="16" height="15" viewBox="0 0 16 15" fill="none" xmlns="http://www.w3.org/2000/svg">
<g id="vuesax/bulk/arrow-square-right">
<g id="arrow-square-right">
<path id="Vector" opacity="0.4" d="M10.6188 1.25H5.38125C3.10625 1.25 1.75 2.60625 1.75 4.88125V10.1125C1.75 12.3938 3.10625 13.75 5.38125 13.75H10.6125C12.8875 13.75 14.2437 12.3938 14.2437 10.1188V4.88125C14.25 2.60625 12.8938 1.25 10.6188 1.25Z" fill="#92ABFE"/>
<path id="Vector_2" d="M7.20937 10.1746C7.09062 10.1746 6.97188 10.1309 6.87812 10.0371C6.69688 9.85586 6.69688 9.55586 6.87812 9.37461L8.75312 7.49961L6.87812 5.62461C6.69688 5.44336 6.69688 5.14336 6.87812 4.96211C7.05937 4.78086 7.35938 4.78086 7.54063 4.96211L9.74688 7.16836C9.92813 7.34961 9.92813 7.64961 9.74688 7.83086L7.54063 10.0371C7.44688 10.1309 7.32812 10.1746 7.20937 10.1746Z" fill="#92ABFE"/>
</g>
</g>
</svg>
