<svg width="18" height="18" viewBox="0 0 18 18" fill="none" xmlns="http://www.w3.org/2000/svg">
<g id="Country Flags" clip-path="url(#clip0_10585_125793)">
<rect width="16.7694" height="16.7694" transform="translate(0.734375 0.425781)" fill="white"/>
<path id="Vector" d="M9.11907 17.1952C13.7498 17.1952 17.5038 13.4412 17.5038 8.81047C17.5038 4.17974 13.7498 0.425781 9.11907 0.425781C4.48833 0.425781 0.734375 4.17974 0.734375 8.81047C0.734375 13.4412 4.48833 17.1952 9.11907 17.1952Z" fill="#F0F0F0"/>
<g id="Group">
<path id="Vector_2" d="M2.46786 3.70508C1.80924 4.56199 1.31261 5.54965 1.02344 6.62259H5.38538L2.46786 3.70508Z" fill="#0052B4"/>
<path id="Vector_3" d="M17.2134 6.62256C16.9243 5.54965 16.4276 4.56199 15.769 3.70508L12.8516 6.62256H17.2134Z" fill="#0052B4"/>
<path id="Vector_4" d="M1.02344 10.998C1.31264 12.071 1.80927 13.0586 2.46786 13.9155L5.38528 10.998H1.02344Z" fill="#0052B4"/>
<path id="Vector_5" d="M14.2261 2.1593C13.3692 1.50068 12.3815 1.00405 11.3086 0.714844V5.07675L14.2261 2.1593Z" fill="#0052B4"/>
<path id="Vector_6" d="M4.01562 15.4623C4.87253 16.121 5.86019 16.6176 6.9331 16.9068V12.5449L4.01562 15.4623Z" fill="#0052B4"/>
<path id="Vector_7" d="M6.93307 0.714844C5.86016 1.00405 4.8725 1.50068 4.01562 2.15927L6.93307 5.07672V0.714844Z" fill="#0052B4"/>
<path id="Vector_8" d="M11.3086 16.9068C12.3815 16.6176 13.3692 16.121 14.226 15.4624L11.3086 12.5449V16.9068Z" fill="#0052B4"/>
<path id="Vector_9" d="M12.8516 10.998L15.769 13.9155C16.4276 13.0586 16.9243 12.071 17.2134 10.998H12.8516Z" fill="#0052B4"/>
</g>
<g id="Group_2">
<path id="Vector_10" d="M17.4328 7.71683H10.2128H10.2127V0.496756C9.85473 0.450149 9.48973 0.425781 9.11907 0.425781C8.74834 0.425781 8.38341 0.450149 8.02542 0.496756V7.71676V7.7168H0.80535C0.758743 8.07482 0.734375 8.43981 0.734375 8.81047C0.734375 9.1812 0.758743 9.54613 0.80535 9.90412H8.02536H8.02539V17.1242C8.38341 17.1708 8.74834 17.1952 9.11907 17.1952C9.48973 17.1952 9.85473 17.1708 10.2127 17.1242V9.90419V9.90415H17.4328C17.4794 9.54613 17.5038 9.1812 17.5038 8.81047C17.5038 8.43981 17.4794 8.07482 17.4328 7.71683Z" fill="#D80027"/>
<path id="Vector_11" d="M11.3047 10.9981L15.0462 14.7396C15.2183 14.5676 15.3825 14.3878 15.5391 14.2013L12.3358 10.998H11.3047V10.9981Z" fill="#D80027"/>
<path id="Vector_12" d="M6.93298 10.998H6.93291L3.19141 14.7396C3.36342 14.9116 3.54327 15.0758 3.7297 15.2324L6.93298 12.0291V10.998Z" fill="#D80027"/>
<path id="Vector_13" d="M6.93362 6.6225V6.62243L3.19208 2.88086C3.02 3.05288 2.85584 3.23272 2.69922 3.41915L5.90253 6.62246H6.93362V6.6225Z" fill="#D80027"/>
<path id="Vector_14" d="M11.3047 6.62311L15.0463 2.8815C14.8742 2.70942 14.6944 2.54526 14.508 2.38867L11.3047 5.59198V6.62311Z" fill="#D80027"/>
</g>
</g>
<defs>
<clipPath id="clip0_10585_125793">
<rect width="16.7694" height="16.7694" fill="white" transform="translate(0.734375 0.425781)"/>
</clipPath>
</defs>
</svg>
