<svg width="21" height="20" viewBox="0 0 21 20" fill="none" xmlns="http://www.w3.org/2000/svg">
<g id="vuesax/bulk/document-filter">
<g id="document-filter">
<path id="Vector" d="M3.29076 0.901367H10.0152C10.5776 0.901367 11.0325 1.36455 11.0325 1.93525V3.06839C11.0325 3.48194 10.7761 3.99474 10.5197 4.25114L8.32787 6.21141C8.02184 6.46781 7.81507 6.98889 7.81507 7.39417V9.61081C7.81507 9.91684 7.6083 10.3304 7.36017 10.4875L6.64882 10.9507C5.98713 11.3643 5.06907 10.9011 5.06907 10.074V7.33626C5.06907 6.97234 4.8623 6.50916 4.66379 6.25276L2.72834 4.18499C2.47193 3.92858 2.27344 3.4654 2.27344 3.1511V1.96834C2.27344 1.36455 2.72833 0.901367 3.29076 0.901367Z" fill="#92ABFE"/>
<path id="Vector_2" opacity="0.4" d="M14.6801 1.72852H12.695C12.4634 1.72852 12.2814 1.91048 12.2814 2.14207C12.2814 2.53908 12.2814 3.06843 12.2814 3.06843C12.2814 3.88726 11.8431 4.68955 11.413 5.12792L9.16326 7.13781C9.13845 7.1957 9.09705 7.27842 9.07224 7.34458V9.61913C9.07224 10.3718 8.62563 11.1906 8.01357 11.5628L7.33533 12.0012C6.95486 12.2411 6.53305 12.3569 6.11123 12.3569C5.73076 12.3569 5.35027 12.2576 5.00288 12.0674C4.46526 11.7696 4.09307 11.2816 3.92765 10.7192V8.51906C3.92765 8.41154 3.88628 8.30401 3.80357 8.22957L2.97646 7.40246C2.71178 7.14606 2.27344 7.32803 2.27344 7.69196V14.1351C2.27344 16.4179 4.12616 18.2707 6.40898 18.2707H14.6801C16.9629 18.2707 18.8156 16.4179 18.8156 14.1351V5.86405C18.8156 3.58124 16.9629 1.72852 14.6801 1.72852Z" fill="#92ABFE"/>
<g id="Group">
<path id="Vector_3" d="M15.5059 11.4457H11.3703C11.0312 11.4457 10.75 11.1645 10.75 10.8254C10.75 10.4863 11.0312 10.2051 11.3703 10.2051H15.5059C15.845 10.2051 16.1262 10.4863 16.1262 10.8254C16.1262 11.1645 15.845 11.4457 15.5059 11.4457Z" fill="white"/>
</g>
<g id="Group_2">
<path id="Vector_4" d="M15.5038 14.7543H9.71408C9.37497 14.7543 9.09375 14.4731 9.09375 14.134C9.09375 13.7949 9.37497 13.5137 9.71408 13.5137H15.5038C15.8429 13.5137 16.1242 13.7949 16.1242 14.134C16.1242 14.4731 15.8429 14.7543 15.5038 14.7543Z" fill="white"/>
</g>
</g>
</g>
</svg>
