<svg width="40" height="40" viewBox="0 0 40 40" fill="none" xmlns="http://www.w3.org/2000/svg">
<g id="vuesax/bold/menu">
<g id="menu">
<path id="Vector" d="M26.9859 3.33301H13.0193C6.9526 3.33301 3.33594 6.94967 3.33594 13.0163V26.9663C3.33594 33.0497 6.9526 36.6663 13.0193 36.6663H26.9693C33.0359 36.6663 36.6526 33.0497 36.6526 26.983V13.0163C36.6693 6.94967 33.0526 3.33301 26.9859 3.33301ZM28.3359 28.7497H11.6693C10.9859 28.7497 10.4193 28.183 10.4193 27.4997C10.4193 26.8163 10.9859 26.2497 11.6693 26.2497H28.3359C29.0193 26.2497 29.5859 26.8163 29.5859 27.4997C29.5859 28.183 29.0193 28.7497 28.3359 28.7497ZM28.3359 21.2497H11.6693C10.9859 21.2497 10.4193 20.683 10.4193 19.9997C10.4193 19.3163 10.9859 18.7497 11.6693 18.7497H28.3359C29.0193 18.7497 29.5859 19.3163 29.5859 19.9997C29.5859 20.683 29.0193 21.2497 28.3359 21.2497ZM28.3359 13.7497H11.6693C10.9859 13.7497 10.4193 13.183 10.4193 12.4997C10.4193 11.8163 10.9859 11.2497 11.6693 11.2497H28.3359C29.0193 11.2497 29.5859 11.8163 29.5859 12.4997C29.5859 13.183 29.0193 13.7497 28.3359 13.7497Z" fill="white"/>
</g>
</g>
</svg>
