<svg width="24" height="25" viewBox="0 0 24 25" fill="none" xmlns="http://www.w3.org/2000/svg">
<g id="vuesax/bulk/notification">
<g id="notification">
<path id="Vector" opacity="0.4" d="M19.3419 14.9904L18.3419 13.3304C18.1319 12.9604 17.9419 12.2604 17.9419 11.8504V9.32039C17.9419 6.06039 15.2919 3.40039 12.0219 3.40039C8.7519 3.40039 6.1019 6.06039 6.1019 9.32039V11.8504C6.1019 12.2604 5.9119 12.9604 5.7019 13.3204L4.6919 14.9904C4.2919 15.6604 4.2019 16.4004 4.4519 17.0804C4.6919 17.7504 5.2619 18.2704 6.0019 18.5204C7.9419 19.1804 9.9819 19.5004 12.0219 19.5004C14.0619 19.5004 16.1019 19.1804 18.0419 18.5304C18.7419 18.3004 19.2819 17.7704 19.5419 17.0804C19.8019 16.3904 19.7319 15.6304 19.3419 14.9904Z" fill="#92ABFE"/>
<path id="Vector_2" d="M14.2469 3.82C13.5569 3.55 12.8069 3.4 12.0169 3.4C11.2369 3.4 10.4869 3.54 9.79688 3.82C10.2269 3.01 11.0769 2.5 12.0169 2.5C12.9669 2.5 13.8069 3.01 14.2469 3.82Z" fill="#92ABFE"/>
<path id="Vector_3" d="M14.8297 20.51C14.4097 21.67 13.2997 22.5 11.9997 22.5C11.2097 22.5 10.4297 22.18 9.87969 21.61C9.55969 21.31 9.31969 20.91 9.17969 20.5C9.30969 20.52 9.43969 20.53 9.57969 20.55C9.80969 20.58 10.0497 20.61 10.2897 20.63C10.8597 20.68 11.4397 20.71 12.0197 20.71C12.5897 20.71 13.1597 20.68 13.7197 20.63C13.9297 20.61 14.1397 20.6 14.3397 20.57C14.4997 20.55 14.6597 20.53 14.8297 20.51Z" fill="#92ABFE"/>
</g>
</g>
</svg>
