<svg width="13" height="12" viewBox="0 0 13 12" fill="none" xmlns="http://www.w3.org/2000/svg">
<path fill-rule="evenodd" clip-rule="evenodd" d="M3.96325 10.731C4.11717 10.731 4.22965 10.7636 4.30069 10.8288C4.37173 10.894 4.40729 10.9954 4.40737 11.133V11.8705H4.17649V11.1642C4.17649 11.0087 4.08929 10.9309 3.91489 10.9309C3.83956 10.9303 3.7656 10.9511 3.70165 10.9909C3.71271 11.0375 3.71791 11.0852 3.71713 11.133V11.8705H3.48625V11.1642C3.48625 11.0087 3.39905 10.9309 3.22465 10.9309C3.14507 10.931 3.06615 10.9453 2.99161 10.9732V11.8705H2.76085V10.8466C2.83725 10.8086 2.91812 10.7804 3.00157 10.7626C3.09058 10.7418 3.18162 10.7311 3.27301 10.7304C3.41701 10.7304 3.52401 10.7584 3.59401 10.8144C3.7093 10.7594 3.83548 10.7309 3.96325 10.731ZM5.19841 11.9044C5.02241 11.9044 4.89013 11.854 4.80157 11.7533C4.71301 11.6526 4.66869 11.506 4.66861 11.3135C4.66861 10.924 4.84461 10.7293 5.19661 10.7293C5.37397 10.7293 5.50733 10.7793 5.59669 10.8792C5.68605 10.9791 5.73077 11.1239 5.73085 11.3135C5.73085 11.5029 5.68469 11.6488 5.59237 11.751C5.50005 11.8533 5.36873 11.9044 5.19841 11.9044ZM5.19613 11.7066C5.39845 11.7066 5.49957 11.5756 5.49949 11.3135C5.49949 11.1832 5.47549 11.0858 5.42749 11.0214C5.37949 10.957 5.30253 10.9248 5.19661 10.9247C5.08965 10.9247 5.01309 10.9577 4.96693 11.0236C4.92077 11.0895 4.89769 11.1861 4.89769 11.3135C4.89769 11.4408 4.92149 11.5381 4.96909 11.6056C5.01669 11.673 5.09237 11.7065 5.19613 11.7061V11.7066ZM6.50161 10.7315C6.66577 10.7315 6.79033 10.7811 6.87529 10.8803C6.96025 10.9795 7.00285 11.12 7.00309 11.3019C7.00309 11.5211 6.95217 11.6762 6.85033 11.7672C6.74849 11.8583 6.61905 11.904 6.46201 11.9044C6.14689 11.9044 5.98933 11.82 5.98933 11.6512V10.309H6.21805V10.8004C6.26404 10.7784 6.31234 10.7616 6.36205 10.7503C6.40769 10.7386 6.45451 10.7322 6.50161 10.731V10.7315ZM6.44437 11.7022C6.56437 11.7022 6.64837 11.6674 6.69637 11.5978C6.74437 11.5282 6.76837 11.4327 6.76837 11.3112C6.76837 11.1869 6.74309 11.0921 6.69253 11.0269C6.64197 10.9617 6.56689 10.9292 6.46729 10.9293C6.4239 10.9296 6.3807 10.9351 6.33865 10.9458C6.29655 10.956 6.25614 10.9722 6.21865 10.9938V11.5938C6.21825 11.6658 6.29349 11.7018 6.44437 11.7017V11.7022ZM7.26397 10.3672H7.51021V10.5783H7.26397V10.3672ZM7.27057 10.7626H7.50145L7.50361 11.871H7.27057V10.7626ZM7.82857 11.871V10.3335H8.05729V11.8705L7.82857 11.871ZM8.83069 10.7284C9.00221 10.7284 9.12789 10.7844 9.20773 10.8964C9.28757 11.0084 9.32677 11.165 9.32533 11.3662H8.55109C8.55853 11.4758 8.59053 11.5591 8.64709 11.6161C8.70365 11.6732 8.78389 11.7017 8.88781 11.7016C9.01231 11.7017 9.13482 11.6704 9.24397 11.6105V11.8282C9.12965 11.879 8.99869 11.9044 8.85109 11.9044C8.68549 11.9044 8.55541 11.8537 8.46085 11.7522C8.36629 11.6508 8.31905 11.5068 8.31913 11.3202C8.31913 11.1292 8.36381 10.983 8.45317 10.8816C8.54253 10.7803 8.66837 10.7292 8.83069 10.7284ZM8.82409 10.9204C8.74641 10.9204 8.68561 10.9411 8.64169 10.9827C8.59777 11.0242 8.56917 11.0945 8.55589 11.1936H9.09013C9.07981 11.0988 9.05341 11.0296 9.01093 10.986C8.96845 10.9424 8.90617 10.9205 8.82409 10.9204ZM6.61909 1.78191C6.36445 1.71895 6.16845 1.68743 6.03109 1.68735C5.00641 1.68735 4.17565 2.51535 4.17565 3.53643C4.17565 4.55751 5.00677 5.38563 6.03109 5.38563C7.05541 5.38563 7.88665 4.55763 7.88665 3.53643C7.88672 3.38725 7.86875 3.23861 7.83313 3.09375L9.30829 2.69643C9.42778 3.15072 9.45038 3.62506 9.37461 4.08865C9.29884 4.55224 9.1264 4.99471 8.86849 5.38731L6.42577 9.91599H4.16281L5.77081 6.95199C5.77957 6.93567 5.75377 6.89967 5.73217 6.89775C4.01389 6.74175 2.66797 5.30175 2.66797 3.54867C2.66797 1.69119 4.17877 0.185549 6.04261 0.185549C6.3838 0.185174 6.72308 0.236434 7.04893 0.337589L6.61909 1.78191Z" fill="#006E53"/>
<path d="M6.02091 4.55353C6.58258 4.55353 7.03791 4.0982 7.03791 3.53653C7.03791 2.97486 6.58258 2.51953 6.02091 2.51953C5.45923 2.51953 5.00391 2.97486 5.00391 3.53653C5.00391 4.0982 5.45923 4.55353 6.02091 4.55353Z" fill="#D6E806"/>
<path d="M7.77612 2.84297C7.59994 2.40192 7.26035 2.04586 6.82812 1.84901M8.4234 2.56553C8.17457 1.95383 7.70407 1.45855 7.10592 1.17869M9.04752 2.35757C8.73057 1.55114 8.10729 0.902965 7.31388 0.554688" stroke="#D6E806" stroke-width="0.361697" stroke-linecap="round"/>
</svg>
