<svg width="131" height="114" viewBox="0 0 131 114" fill="none" xmlns="http://www.w3.org/2000/svg">
<rect width="131" height="114" rx="12" fill="#B36ED4"/>
<path d="M74.5783 17.334H56.4217C48.535 17.334 43.8333 22.0357 43.8333 29.9223V48.0573C43.8333 55.9657 48.535 60.6673 56.4217 60.6673H74.5567C82.4433 60.6673 87.145 55.9657 87.145 48.079V29.9223C87.1667 22.0357 82.465 17.334 74.5783 17.334ZM63.1817 50.159C63.1817 50.3757 63.1383 50.5707 63.0517 50.7873C62.8783 51.1773 62.575 51.5023 62.1633 51.6757C61.9683 51.7623 61.7517 51.8057 61.535 51.8057C61.3183 51.8057 61.1233 51.7623 60.9067 51.6757C60.7117 51.589 60.5383 51.4807 60.3867 51.329L53.8 44.7423C53.1717 44.114 53.1717 43.074 53.8 42.4457C54.4283 41.8173 55.4683 41.8173 56.0967 42.4457L59.91 46.259V27.8423C59.91 26.954 60.6467 26.2173 61.535 26.2173C62.4233 26.2173 63.16 26.954 63.16 27.8423V50.159H63.1817ZM77.1783 35.5773C76.8533 35.9023 76.4417 36.054 76.03 36.054C75.6183 36.054 75.2067 35.9023 74.8817 35.5773L71.0683 31.764V50.1807C71.0683 51.069 70.3317 51.8057 69.4433 51.8057C68.555 51.8057 67.8183 51.069 67.8183 50.1807V27.8423C67.8183 27.6257 67.8617 27.4307 67.9483 27.214C68.1217 26.824 68.425 26.499 68.8367 26.3257C69.2267 26.1523 69.6817 26.1523 70.0717 26.3257C70.2667 26.4123 70.44 26.5207 70.5917 26.6723L77.1783 33.259C77.8067 33.909 77.8067 34.9273 77.1783 35.5773Z" fill="white"/>
<path d="M42.116 86.228V87.81H39.512V96H37.552V87.81H34.948V86.228H42.116ZM50.7561 91.954C50.7561 92.234 50.7374 92.486 50.7001 92.71H45.0301C45.0767 93.27 45.2727 93.7087 45.6181 94.026C45.9634 94.3433 46.3881 94.502 46.8921 94.502C47.6201 94.502 48.1381 94.1893 48.4461 93.564H50.5601C50.3361 94.3107 49.9067 94.9267 49.2721 95.412C48.6374 95.888 47.8581 96.126 46.9341 96.126C46.1874 96.126 45.5154 95.9627 44.9181 95.636C44.3301 95.3 43.8681 94.8287 43.5321 94.222C43.2054 93.6153 43.0421 92.9153 43.0421 92.122C43.0421 91.3193 43.2054 90.6147 43.5321 90.008C43.8587 89.4013 44.3161 88.9347 44.9041 88.608C45.4921 88.2813 46.1687 88.118 46.9341 88.118C47.6714 88.118 48.3294 88.2767 48.9081 88.594C49.4961 88.9113 49.9487 89.364 50.2661 89.952C50.5927 90.5307 50.7561 91.198 50.7561 91.954ZM48.7261 91.394C48.7167 90.89 48.5347 90.4887 48.1801 90.19C47.8254 89.882 47.3914 89.728 46.8781 89.728C46.3927 89.728 45.9821 89.8773 45.6461 90.176C45.3194 90.4653 45.1187 90.8713 45.0441 91.394H48.7261ZM54.1467 85.64V96H52.1867V85.64H54.1467ZM63.2932 91.954C63.2932 92.234 63.2745 92.486 63.2372 92.71H57.5672C57.6139 93.27 57.8099 93.7087 58.1552 94.026C58.5005 94.3433 58.9252 94.502 59.4292 94.502C60.1572 94.502 60.6752 94.1893 60.9832 93.564H63.0972C62.8732 94.3107 62.4439 94.9267 61.8092 95.412C61.1745 95.888 60.3952 96.126 59.4712 96.126C58.7245 96.126 58.0525 95.9627 57.4552 95.636C56.8672 95.3 56.4052 94.8287 56.0692 94.222C55.7425 93.6153 55.5792 92.9153 55.5792 92.122C55.5792 91.3193 55.7425 90.6147 56.0692 90.008C56.3959 89.4013 56.8532 88.9347 57.4412 88.608C58.0292 88.2813 58.7059 88.118 59.4712 88.118C60.2085 88.118 60.8665 88.2767 61.4452 88.594C62.0332 88.9113 62.4859 89.364 62.8032 89.952C63.1299 90.5307 63.2932 91.198 63.2932 91.954ZM61.2632 91.394C61.2539 90.89 61.0719 90.4887 60.7172 90.19C60.3625 89.882 59.9285 89.728 59.4152 89.728C58.9299 89.728 58.5192 89.8773 58.1832 90.176C57.8565 90.4653 57.6559 90.8713 57.5812 91.394H61.2632ZM64.2198 92.122C64.2198 91.3193 64.3831 90.6193 64.7098 90.022C65.0365 89.4153 65.4891 88.9487 66.0678 88.622C66.6465 88.286 67.3091 88.118 68.0558 88.118C69.0171 88.118 69.8105 88.3607 70.4358 88.846C71.0705 89.322 71.4951 89.994 71.7098 90.862H69.5958C69.4838 90.526 69.2925 90.2647 69.0218 90.078C68.7605 89.882 68.4338 89.784 68.0418 89.784C67.4818 89.784 67.0385 89.9893 66.7118 90.4C66.3851 90.8013 66.2218 91.3753 66.2218 92.122C66.2218 92.8593 66.3851 93.4333 66.7118 93.844C67.0385 94.2453 67.4818 94.446 68.0418 94.446C68.8351 94.446 69.3531 94.0913 69.5958 93.382H71.7098C71.4951 94.222 71.0705 94.8893 70.4358 95.384C69.8011 95.8787 69.0078 96.126 68.0558 96.126C67.3091 96.126 66.6465 95.9627 66.0678 95.636C65.4891 95.3 65.0365 94.8333 64.7098 94.236C64.3831 93.6293 64.2198 92.9247 64.2198 92.122ZM76.5897 96.126C75.843 96.126 75.171 95.9627 74.5737 95.636C73.9764 95.3 73.505 94.8287 73.1597 94.222C72.8237 93.6153 72.6557 92.9153 72.6557 92.122C72.6557 91.3287 72.8284 90.6287 73.1737 90.022C73.5284 89.4153 74.009 88.9487 74.6157 88.622C75.2224 88.286 75.899 88.118 76.6457 88.118C77.3924 88.118 78.069 88.286 78.6757 88.622C79.2824 88.9487 79.7584 89.4153 80.1037 90.022C80.4584 90.6287 80.6357 91.3287 80.6357 92.122C80.6357 92.9153 80.4537 93.6153 80.0897 94.222C79.735 94.8287 79.2497 95.3 78.6337 95.636C78.027 95.9627 77.3457 96.126 76.5897 96.126ZM76.5897 94.418C76.9444 94.418 77.2757 94.334 77.5837 94.166C77.901 93.9887 78.153 93.7273 78.3397 93.382C78.5264 93.0367 78.6197 92.6167 78.6197 92.122C78.6197 91.3847 78.4237 90.82 78.0317 90.428C77.649 90.0267 77.1777 89.826 76.6177 89.826C76.0577 89.826 75.5864 90.0267 75.2037 90.428C74.8304 90.82 74.6437 91.3847 74.6437 92.122C74.6437 92.8593 74.8257 93.4287 75.1897 93.83C75.563 94.222 76.0297 94.418 76.5897 94.418ZM91.7054 88.132C92.6574 88.132 93.4228 88.426 94.0014 89.014C94.5894 89.5927 94.8834 90.4047 94.8834 91.45V96H92.9234V91.716C92.9234 91.1093 92.7694 90.6473 92.4614 90.33C92.1534 90.0033 91.7334 89.84 91.2014 89.84C90.6694 89.84 90.2448 90.0033 89.9274 90.33C89.6194 90.6473 89.4654 91.1093 89.4654 91.716V96H87.5054V91.716C87.5054 91.1093 87.3514 90.6473 87.0434 90.33C86.7354 90.0033 86.3154 89.84 85.7834 89.84C85.2421 89.84 84.8128 90.0033 84.4954 90.33C84.1874 90.6473 84.0334 91.1093 84.0334 91.716V96H82.0734V88.244H84.0334V89.182C84.2854 88.8553 84.6074 88.5987 84.9994 88.412C85.4008 88.2253 85.8394 88.132 86.3154 88.132C86.9221 88.132 87.4634 88.2627 87.9394 88.524C88.4154 88.776 88.7841 89.14 89.0454 89.616C89.2974 89.168 89.6614 88.8087 90.1374 88.538C90.6228 88.2673 91.1454 88.132 91.7054 88.132Z" fill="white"/>
</svg>
