<svg width="53" height="52" viewBox="0 0 53 52" fill="none" xmlns="http://www.w3.org/2000/svg">
<path d="M35.5784 4.33398H17.4217C9.53504 4.33398 4.83337 9.03565 4.83337 16.9223V35.0573C4.83337 42.9657 9.53504 47.6673 17.4217 47.6673H35.5567C43.4434 47.6673 48.145 42.9657 48.145 35.079V16.9223C48.1667 9.03565 43.465 4.33398 35.5784 4.33398ZM24.1817 37.159C24.1817 37.3757 24.1384 37.5707 24.0517 37.7873C23.8784 38.1773 23.575 38.5023 23.1634 38.6757C22.9684 38.7623 22.7517 38.8057 22.535 38.8057C22.3184 38.8057 22.1234 38.7623 21.9067 38.6757C21.7117 38.589 21.5384 38.4807 21.3867 38.329L14.8 31.7423C14.1717 31.114 14.1717 30.074 14.8 29.4457C15.4284 28.8173 16.4684 28.8173 17.0967 29.4457L20.91 33.259V14.8423C20.91 13.954 21.6467 13.2173 22.535 13.2173C23.4234 13.2173 24.16 13.954 24.16 14.8423V37.159H24.1817ZM38.1784 22.5773C37.8534 22.9023 37.4417 23.054 37.03 23.054C36.6184 23.054 36.2067 22.9023 35.8817 22.5773L32.0684 18.764V37.1807C32.0684 38.069 31.3317 38.8057 30.4434 38.8057C29.555 38.8057 28.8184 38.069 28.8184 37.1807V14.8423C28.8184 14.6257 28.8617 14.4307 28.9484 14.214C29.1217 13.824 29.425 13.499 29.8367 13.3257C30.2267 13.1523 30.6817 13.1523 31.0717 13.3257C31.2667 13.4123 31.44 13.5207 31.5917 13.6723L38.1784 20.259C38.8067 20.909 38.8067 21.9273 38.1784 22.5773Z" fill="white"/>
</svg>
