<svg width="53" height="52" viewBox="0 0 53 52" fill="none" xmlns="http://www.w3.org/2000/svg">
<path d="M33.4766 14.1914H13.0233C12.4166 14.1914 11.8533 14.2131 11.3333 14.2347C6.19825 14.5381 4.83325 16.4231 4.83325 22.2731V23.5297C4.83325 24.7214 5.80825 25.6964 6.99992 25.6964H39.4999C40.6916 25.6964 41.6666 24.7214 41.6666 23.5297V22.2731C41.6666 15.8164 40.0199 14.1914 33.4766 14.1914Z" fill="white"/>
<path d="M6.99992 28.9473C5.80825 28.9473 4.83325 29.9223 4.83325 31.1139V37.4189C4.83325 43.8756 6.47992 45.5006 13.0233 45.5006H33.4766C39.9116 45.5006 41.6016 43.9406 41.6666 37.7656V31.1139C41.6666 29.9223 40.6916 28.9473 39.4999 28.9473H6.99992ZM15.5799 40.2139H11.8749C10.9866 40.2139 10.2499 39.4773 10.2499 38.5889C10.2499 37.7006 10.9866 36.9639 11.8749 36.9639H15.6016C16.4899 36.9639 17.2266 37.7006 17.2266 38.5889C17.2266 39.4773 16.4899 40.2139 15.5799 40.2139ZM27.6916 40.2139H20.2383C19.3499 40.2139 18.6133 39.4773 18.6133 38.5889C18.6133 37.7006 19.3499 36.9639 20.2383 36.9639H27.6916C28.5799 36.9639 29.3166 37.7006 29.3166 38.5889C29.3166 39.4773 28.6016 40.2139 27.6916 40.2139Z" fill="white"/>
<path d="M48.1667 28.8824V17.5291C48.1667 10.7474 44.2884 7.80078 38.4384 7.80078H19.0901C17.4434 7.80078 15.9701 8.03911 14.6701 8.53745C13.6517 8.90578 12.7417 9.44745 12.0051 10.1624C11.6151 10.5308 11.9184 11.1374 12.4817 11.1374H36.0334C40.9084 11.1374 44.8517 15.0808 44.8517 19.9558V35.4908C44.8517 36.0324 45.4367 36.3358 45.8267 35.9458C47.3217 34.3641 48.1667 32.0458 48.1667 28.8824Z" fill="white"/>
</svg>
