<svg width="131" height="114" viewBox="0 0 131 114" fill="none" xmlns="http://www.w3.org/2000/svg">
<rect width="131" height="114" rx="12" fill="#DAC15C"/>
<path d="M72.4766 27.1914H52.0233C51.4166 27.1914 50.8533 27.2131 50.3333 27.2347C45.1983 27.5381 43.8333 29.4231 43.8333 35.2731V36.5297C43.8333 37.7214 44.8083 38.6964 46 38.6964H78.5C79.6916 38.6964 80.6666 37.7214 80.6666 36.5297V35.2731C80.6666 28.8164 79.02 27.1914 72.4766 27.1914Z" fill="white"/>
<path d="M46 41.9473C44.8083 41.9473 43.8333 42.9223 43.8333 44.1139V50.4189C43.8333 56.8756 45.48 58.5006 52.0233 58.5006H72.4766C78.9116 58.5006 80.6016 56.9406 80.6666 50.7656V44.1139C80.6666 42.9223 79.6916 41.9473 78.5 41.9473H46ZM54.58 53.2139H50.875C49.9866 53.2139 49.25 52.4773 49.25 51.5889C49.25 50.7006 49.9866 49.9639 50.875 49.9639H54.6016C55.49 49.9639 56.2266 50.7006 56.2266 51.5889C56.2266 52.4773 55.49 53.2139 54.58 53.2139ZM66.6916 53.2139H59.2383C58.35 53.2139 57.6133 52.4773 57.6133 51.5889C57.6133 50.7006 58.35 49.9639 59.2383 49.9639H66.6916C67.58 49.9639 68.3166 50.7006 68.3166 51.5889C68.3166 52.4773 67.6016 53.2139 66.6916 53.2139Z" fill="white"/>
<path d="M87.1667 41.8824V30.5291C87.1667 23.7474 83.2883 20.8008 77.4383 20.8008H58.09C56.4433 20.8008 54.97 21.0391 53.67 21.5374C52.6517 21.9058 51.7417 22.4474 51.005 23.1624C50.615 23.5308 50.9183 24.1374 51.4817 24.1374H75.0333C79.9083 24.1374 83.8517 28.0808 83.8517 32.9558V48.4908C83.8517 49.0324 84.4367 49.3358 84.8267 48.9458C86.3217 47.3641 87.1667 45.0458 87.1667 41.8824Z" fill="white"/>
<path d="M20.99 91.1C20.99 90.1387 21.2047 89.28 21.634 88.524C22.0727 87.7587 22.6653 87.166 23.412 86.746C24.168 86.3167 25.0127 86.102 25.946 86.102C27.038 86.102 27.9947 86.382 28.816 86.942C29.6373 87.502 30.2113 88.2767 30.538 89.266H28.284C28.06 88.7993 27.7427 88.4493 27.332 88.216C26.9307 87.9827 26.464 87.866 25.932 87.866C25.3627 87.866 24.854 88.0013 24.406 88.272C23.9673 88.5333 23.622 88.9067 23.37 89.392C23.1273 89.8773 23.006 90.4467 23.006 91.1C23.006 91.744 23.1273 92.3133 23.37 92.808C23.622 93.2933 23.9673 93.6713 24.406 93.942C24.854 94.2033 25.3627 94.334 25.932 94.334C26.464 94.334 26.9307 94.2173 27.332 93.984C27.7427 93.7413 28.06 93.3867 28.284 92.92H30.538C30.2113 93.9187 29.6373 94.698 28.816 95.258C28.004 95.8087 27.0473 96.084 25.946 96.084C25.0127 96.084 24.168 95.874 23.412 95.454C22.6653 95.0247 22.0727 94.432 21.634 93.676C21.2047 92.92 20.99 92.0613 20.99 91.1ZM31.7081 92.094C31.7081 91.31 31.8621 90.6147 32.1701 90.008C32.4874 89.4013 32.9121 88.9347 33.4441 88.608C33.9854 88.2813 34.5874 88.118 35.2501 88.118C35.8288 88.118 36.3328 88.2347 36.7621 88.468C37.2008 88.7013 37.5508 88.9953 37.8121 89.35V88.244H39.7861V96H37.8121V94.866C37.5601 95.23 37.2101 95.5333 36.7621 95.776C36.3234 96.0093 35.8148 96.126 35.2361 96.126C34.5828 96.126 33.9854 95.958 33.4441 95.622C32.9121 95.286 32.4874 94.8147 32.1701 94.208C31.8621 93.592 31.7081 92.8873 31.7081 92.094ZM37.8121 92.122C37.8121 91.646 37.7188 91.24 37.5321 90.904C37.3454 90.5587 37.0934 90.2973 36.7761 90.12C36.4588 89.9333 36.1181 89.84 35.7541 89.84C35.3901 89.84 35.0541 89.9287 34.7461 90.106C34.4381 90.2833 34.1861 90.5447 33.9901 90.89C33.8034 91.226 33.7101 91.6273 33.7101 92.094C33.7101 92.5607 33.8034 92.9713 33.9901 93.326C34.1861 93.6713 34.4381 93.9373 34.7461 94.124C35.0634 94.3107 35.3994 94.404 35.7541 94.404C36.1181 94.404 36.4588 94.3153 36.7761 94.138C37.0934 93.9513 37.3454 93.69 37.5321 93.354C37.7188 93.0087 37.8121 92.598 37.8121 92.122ZM43.6604 89.448C43.9124 89.0373 44.239 88.7153 44.6404 88.482C45.051 88.2487 45.5177 88.132 46.0404 88.132V90.19H45.5224C44.9064 90.19 44.4397 90.3347 44.1224 90.624C43.8144 90.9133 43.6604 91.4173 43.6604 92.136V96H41.7004V88.244H43.6604V89.448ZM46.8565 92.094C46.8565 91.31 47.0105 90.6147 47.3185 90.008C47.6359 89.4013 48.0652 88.9347 48.6065 88.608C49.1479 88.2813 49.7499 88.118 50.4125 88.118C50.9165 88.118 51.3972 88.23 51.8545 88.454C52.3119 88.6687 52.6759 88.958 52.9465 89.322V85.64H54.9345V96H52.9465V94.852C52.7039 95.2347 52.3632 95.5427 51.9245 95.776C51.4859 96.0093 50.9772 96.126 50.3985 96.126C49.7452 96.126 49.1479 95.958 48.6065 95.622C48.0652 95.286 47.6359 94.8147 47.3185 94.208C47.0105 93.592 46.8565 92.8873 46.8565 92.094ZM52.9605 92.122C52.9605 91.646 52.8672 91.24 52.6805 90.904C52.4939 90.5587 52.2419 90.2973 51.9245 90.12C51.6072 89.9333 51.2665 89.84 50.9025 89.84C50.5385 89.84 50.2025 89.9287 49.8945 90.106C49.5865 90.2833 49.3345 90.5447 49.1385 90.89C48.9519 91.226 48.8585 91.6273 48.8585 92.094C48.8585 92.5607 48.9519 92.9713 49.1385 93.326C49.3345 93.6713 49.5865 93.9373 49.8945 94.124C50.2119 94.3107 50.5479 94.404 50.9025 94.404C51.2665 94.404 51.6072 94.3153 51.9245 94.138C52.2419 93.9513 52.4939 93.69 52.6805 93.354C52.8672 93.0087 52.9605 92.598 52.9605 92.122ZM62.1448 86.228V96H60.1848V86.228H62.1448ZM67.0492 96.126C66.4146 96.126 65.8452 96.014 65.3412 95.79C64.8372 95.5567 64.4359 95.244 64.1372 94.852C63.8479 94.46 63.6892 94.026 63.6612 93.55H65.6352C65.6726 93.8487 65.8172 94.096 66.0692 94.292C66.3306 94.488 66.6526 94.586 67.0352 94.586C67.4086 94.586 67.6979 94.5113 67.9032 94.362C68.1179 94.2127 68.2252 94.0213 68.2252 93.788C68.2252 93.536 68.0946 93.3493 67.8332 93.228C67.5812 93.0973 67.1752 92.9573 66.6152 92.808C66.0366 92.668 65.5606 92.5233 65.1872 92.374C64.8232 92.2247 64.5059 91.996 64.2352 91.688C63.9739 91.38 63.8432 90.9647 63.8432 90.442C63.8432 90.0127 63.9646 89.6207 64.2072 89.266C64.4592 88.9113 64.8139 88.6313 65.2712 88.426C65.7379 88.2207 66.2839 88.118 66.9092 88.118C67.8332 88.118 68.5706 88.3513 69.1212 88.818C69.6719 89.2753 69.9752 89.896 70.0312 90.68H68.1552C68.1272 90.372 67.9966 90.1293 67.7632 89.952C67.5392 89.7653 67.2359 89.672 66.8532 89.672C66.4986 89.672 66.2232 89.7373 66.0272 89.868C65.8406 89.9987 65.7472 90.1807 65.7472 90.414C65.7472 90.6753 65.8779 90.876 66.1392 91.016C66.4006 91.1467 66.8066 91.282 67.3572 91.422C67.9172 91.562 68.3792 91.7067 68.7432 91.856C69.1072 92.0053 69.4199 92.2387 69.6812 92.556C69.9519 92.864 70.0919 93.2747 70.1012 93.788C70.1012 94.236 69.9752 94.6373 69.7232 94.992C69.4806 95.3467 69.1259 95.6267 68.6592 95.832C68.2019 96.028 67.6652 96.126 67.0492 96.126ZM74.6781 96.126C74.0435 96.126 73.4741 96.014 72.9701 95.79C72.4661 95.5567 72.0648 95.244 71.7661 94.852C71.4768 94.46 71.3181 94.026 71.2901 93.55H73.2641C73.3015 93.8487 73.4461 94.096 73.6981 94.292C73.9595 94.488 74.2815 94.586 74.6641 94.586C75.0375 94.586 75.3268 94.5113 75.5321 94.362C75.7468 94.2127 75.8541 94.0213 75.8541 93.788C75.8541 93.536 75.7235 93.3493 75.4621 93.228C75.2101 93.0973 74.8041 92.9573 74.2441 92.808C73.6655 92.668 73.1895 92.5233 72.8161 92.374C72.4521 92.2247 72.1348 91.996 71.8641 91.688C71.6028 91.38 71.4721 90.9647 71.4721 90.442C71.4721 90.0127 71.5935 89.6207 71.8361 89.266C72.0881 88.9113 72.4428 88.6313 72.9001 88.426C73.3668 88.2207 73.9128 88.118 74.5381 88.118C75.4621 88.118 76.1995 88.3513 76.7501 88.818C77.3008 89.2753 77.6041 89.896 77.6601 90.68H75.7841C75.7561 90.372 75.6255 90.1293 75.3921 89.952C75.1681 89.7653 74.8648 89.672 74.4821 89.672C74.1275 89.672 73.8521 89.7373 73.6561 89.868C73.4695 89.9987 73.3761 90.1807 73.3761 90.414C73.3761 90.6753 73.5068 90.876 73.7681 91.016C74.0295 91.1467 74.4355 91.282 74.9861 91.422C75.5461 91.562 76.0081 91.7067 76.3721 91.856C76.7361 92.0053 77.0488 92.2387 77.3101 92.556C77.5808 92.864 77.7208 93.2747 77.7301 93.788C77.7301 94.236 77.6041 94.6373 77.3521 94.992C77.1095 95.3467 76.7548 95.6267 76.2881 95.832C75.8308 96.028 75.2941 96.126 74.6781 96.126ZM86.661 88.244V96H84.687V95.02C84.435 95.356 84.1037 95.622 83.693 95.818C83.2917 96.0047 82.853 96.098 82.377 96.098C81.7704 96.098 81.2337 95.972 80.767 95.72C80.3004 95.4587 79.9317 95.0807 79.661 94.586C79.3997 94.082 79.269 93.4847 79.269 92.794V88.244H81.229V92.514C81.229 93.13 81.383 93.606 81.691 93.942C81.999 94.2687 82.419 94.432 82.951 94.432C83.4924 94.432 83.917 94.2687 84.225 93.942C84.533 93.606 84.687 93.13 84.687 92.514V88.244H86.661ZM89.5889 87.32C89.2436 87.32 88.9542 87.2127 88.7209 86.998C88.4969 86.774 88.3849 86.4987 88.3849 86.172C88.3849 85.8453 88.4969 85.5747 88.7209 85.36C88.9542 85.136 89.2436 85.024 89.5889 85.024C89.9342 85.024 90.2189 85.136 90.4429 85.36C90.6762 85.5747 90.7929 85.8453 90.7929 86.172C90.7929 86.4987 90.6762 86.774 90.4429 86.998C90.2189 87.2127 89.9342 87.32 89.5889 87.32ZM90.5549 88.244V96H88.5949V88.244H90.5549ZM96.7894 88.132C97.7134 88.132 98.4601 88.426 99.0294 89.014C99.5987 89.5927 99.8834 90.4047 99.8834 91.45V96H97.9234V91.716C97.9234 91.1 97.7694 90.6287 97.4614 90.302C97.1534 89.966 96.7334 89.798 96.2014 89.798C95.6601 89.798 95.2307 89.966 94.9134 90.302C94.6054 90.6287 94.4514 91.1 94.4514 91.716V96H92.4914V88.244H94.4514V89.21C94.7127 88.874 95.0441 88.6127 95.4454 88.426C95.8561 88.23 96.3041 88.132 96.7894 88.132ZM104.785 88.118C105.364 88.118 105.873 88.2347 106.311 88.468C106.75 88.692 107.095 88.986 107.347 89.35V88.244H109.321V96.056C109.321 96.7747 109.177 97.414 108.887 97.974C108.598 98.5433 108.164 98.9913 107.585 99.318C107.007 99.654 106.307 99.822 105.485 99.822C104.384 99.822 103.479 99.5653 102.769 99.052C102.069 98.5387 101.673 97.8387 101.579 96.952H103.525C103.628 97.3067 103.847 97.5867 104.183 97.792C104.529 98.0067 104.944 98.114 105.429 98.114C105.999 98.114 106.461 97.9413 106.815 97.596C107.17 97.26 107.347 96.7467 107.347 96.056V94.852C107.095 95.216 106.745 95.5193 106.297 95.762C105.859 96.0047 105.355 96.126 104.785 96.126C104.132 96.126 103.535 95.958 102.993 95.622C102.452 95.286 102.023 94.8147 101.705 94.208C101.397 93.592 101.243 92.8873 101.243 92.094C101.243 91.31 101.397 90.6147 101.705 90.008C102.023 89.4013 102.447 88.9347 102.979 88.608C103.521 88.2813 104.123 88.118 104.785 88.118ZM107.347 92.122C107.347 91.646 107.254 91.24 107.067 90.904C106.881 90.5587 106.629 90.2973 106.311 90.12C105.994 89.9333 105.653 89.84 105.289 89.84C104.925 89.84 104.589 89.9287 104.281 90.106C103.973 90.2833 103.721 90.5447 103.525 90.89C103.339 91.226 103.245 91.6273 103.245 92.094C103.245 92.5607 103.339 92.9713 103.525 93.326C103.721 93.6713 103.973 93.9373 104.281 94.124C104.599 94.3107 104.935 94.404 105.289 94.404C105.653 94.404 105.994 94.3153 106.311 94.138C106.629 93.9513 106.881 93.69 107.067 93.354C107.254 93.0087 107.347 92.598 107.347 92.122Z" fill="white"/>
</svg>
