<svg width="131" height="114" viewBox="0 0 131 114" fill="none" xmlns="http://www.w3.org/2000/svg">
<rect width="131" height="114" rx="12" fill="#5DCACA"/>
<path d="M80.9266 45.3691L81.62 46.7775C81.9666 47.4708 82.855 48.1208 83.5916 48.2508L84.5233 48.4025C87.3616 48.8791 88.0116 50.9591 85.9966 52.9958L85.13 53.8625C84.545 54.4475 84.2416 55.5741 84.415 56.3975L84.5233 56.9175C85.3033 60.3408 83.4833 61.6625 80.515 59.8641L79.8866 59.4741C79.1283 59.0191 77.8716 59.0191 77.1133 59.4741L76.485 59.8641C73.495 61.6625 71.6966 60.3408 72.4766 56.9175L72.585 56.3975C72.7583 55.5958 72.455 54.4475 71.87 53.8625L71.0033 52.9958C68.9883 50.9375 69.6383 48.8791 72.4766 48.4025L73.4083 48.2508C74.1666 48.1208 75.0333 47.4708 75.38 46.7775L76.0733 45.3691C77.4166 42.6608 79.5833 42.6608 80.9266 45.3691Z" fill="white"/>
<path d="M74.5783 17.334H56.4216C48.535 17.334 43.8333 22.0357 43.8333 29.9223V48.079C43.8333 55.9657 48.535 60.6673 56.4216 60.6673H67.8616C68.62 60.6673 69.1616 59.8873 69.075 59.129C68.9883 58.3057 69.0316 57.3307 69.2916 56.204C69.335 56.0523 69.2916 55.879 69.1616 55.749L68.685 55.2723C66.8433 53.409 66.1716 51.1557 66.8216 49.0973C67.4933 47.0607 69.3566 45.6307 71.935 45.1973L72.585 45.089L73.17 43.919C74.3616 41.4923 76.3116 40.084 78.5 40.084C80.6883 40.084 82.6383 41.4923 83.83 43.919L84.155 44.5907C84.3066 44.9157 84.61 45.1323 84.9566 45.1973C85.1516 45.2407 85.3466 45.284 85.5416 45.3273C86.3 45.5223 87.1666 44.9157 87.1666 44.114V29.9223C87.1666 22.0357 82.465 17.334 74.5783 17.334ZM74.73 32.414L69.725 38.8707C69.0966 39.6723 68.2083 40.1923 67.19 40.3007C66.1933 40.4307 65.175 40.149 64.395 39.5207L60.43 36.444C60.2783 36.314 60.105 36.314 60.0183 36.3357C59.9316 36.3357 59.78 36.379 59.65 36.5523L54.4933 43.2473C54.1683 43.659 53.6916 43.8757 53.1933 43.8757C52.8466 43.8757 52.5 43.7673 52.1966 43.529C51.4816 42.9873 51.3516 41.969 51.8933 41.254L57.05 34.559C57.6783 33.7573 58.5666 33.2373 59.585 33.1073C60.6033 32.9773 61.6 33.259 62.4016 33.8873L66.3666 37.0073C66.5183 37.1373 66.67 37.1157 66.7783 37.1157C66.865 37.1157 67.0166 37.0723 67.1466 36.899L72.1516 30.4423C72.6933 29.7273 73.7116 29.5973 74.4266 30.1607C75.1633 30.7023 75.2716 31.7207 74.73 32.414Z" fill="white"/>
<path d="M20.324 96H18.364L13.926 89.294V96H11.966V86.214H13.926L18.364 92.934V86.214H20.324V96ZM29.4709 91.954C29.4709 92.234 29.4523 92.486 29.4149 92.71H23.7449C23.7916 93.27 23.9876 93.7087 24.3329 94.026C24.6783 94.3433 25.1029 94.502 25.6069 94.502C26.3349 94.502 26.8529 94.1893 27.1609 93.564H29.2749C29.0509 94.3107 28.6216 94.9267 27.9869 95.412C27.3523 95.888 26.5729 96.126 25.6489 96.126C24.9023 96.126 24.2303 95.9627 23.6329 95.636C23.0449 95.3 22.5829 94.8287 22.2469 94.222C21.9203 93.6153 21.7569 92.9153 21.7569 92.122C21.7569 91.3193 21.9203 90.6147 22.2469 90.008C22.5736 89.4013 23.0309 88.9347 23.6189 88.608C24.2069 88.2813 24.8836 88.118 25.6489 88.118C26.3863 88.118 27.0443 88.2767 27.6229 88.594C28.2109 88.9113 28.6636 89.364 28.9809 89.952C29.3076 90.5307 29.4709 91.198 29.4709 91.954ZM27.4409 91.394C27.4316 90.89 27.2496 90.4887 26.8949 90.19C26.5403 89.882 26.1063 89.728 25.5929 89.728C25.1076 89.728 24.6969 89.8773 24.3609 90.176C24.0343 90.4653 23.8336 90.8713 23.7589 91.394H27.4409ZM41.6535 88.244L39.3855 96H37.2715L35.8575 90.582L34.4435 96H32.3155L30.0335 88.244H32.0215L33.3935 94.152L34.8775 88.244H36.9495L38.4055 94.138L39.7775 88.244H41.6535ZM45.682 96.126C45.0474 96.126 44.478 96.014 43.974 95.79C43.47 95.5567 43.0687 95.244 42.77 94.852C42.4807 94.46 42.322 94.026 42.294 93.55H44.268C44.3054 93.8487 44.45 94.096 44.702 94.292C44.9634 94.488 45.2854 94.586 45.668 94.586C46.0414 94.586 46.3307 94.5113 46.536 94.362C46.7507 94.2127 46.858 94.0213 46.858 93.788C46.858 93.536 46.7274 93.3493 46.466 93.228C46.214 93.0973 45.808 92.9573 45.248 92.808C44.6694 92.668 44.1934 92.5233 43.82 92.374C43.456 92.2247 43.1387 91.996 42.868 91.688C42.6067 91.38 42.476 90.9647 42.476 90.442C42.476 90.0127 42.5974 89.6207 42.84 89.266C43.092 88.9113 43.4467 88.6313 43.904 88.426C44.3707 88.2207 44.9167 88.118 45.542 88.118C46.466 88.118 47.2034 88.3513 47.754 88.818C48.3047 89.2753 48.608 89.896 48.664 90.68H46.788C46.76 90.372 46.6294 90.1293 46.396 89.952C46.172 89.7653 45.8687 89.672 45.486 89.672C45.1314 89.672 44.856 89.7373 44.66 89.868C44.4734 89.9987 44.38 90.1807 44.38 90.414C44.38 90.6753 44.5107 90.876 44.772 91.016C45.0334 91.1467 45.4394 91.282 45.99 91.422C46.55 91.562 47.012 91.7067 47.376 91.856C47.74 92.0053 48.0527 92.2387 48.314 92.556C48.5847 92.864 48.7247 93.2747 48.734 93.788C48.734 94.236 48.608 94.6373 48.356 94.992C48.1134 95.3467 47.7587 95.6267 47.292 95.832C46.8347 96.028 46.298 96.126 45.682 96.126ZM61.1969 96L60.1329 94.95C59.2276 95.762 58.1216 96.168 56.8149 96.168C56.0962 96.168 55.4616 96.0467 54.9109 95.804C54.3696 95.552 53.9496 95.202 53.6509 94.754C53.3522 94.2967 53.2029 93.7693 53.2029 93.172C53.2029 92.528 53.3849 91.9493 53.7489 91.436C54.1129 90.9227 54.6496 90.5073 55.3589 90.19C55.1069 89.882 54.9249 89.588 54.8129 89.308C54.7009 89.0187 54.6449 88.7107 54.6449 88.384C54.6449 87.936 54.7616 87.5347 54.9949 87.18C55.2282 86.816 55.5596 86.5313 55.9889 86.326C56.4276 86.1207 56.9362 86.018 57.5149 86.018C58.1029 86.018 58.6069 86.13 59.0269 86.354C59.4469 86.578 59.7596 86.8767 59.9649 87.25C60.1702 87.6233 60.2589 88.0387 60.2309 88.496H58.3269C58.3362 88.188 58.2616 87.9547 58.1029 87.796C57.9442 87.628 57.7296 87.544 57.4589 87.544C57.1976 87.544 56.9782 87.6233 56.8009 87.782C56.6329 87.9313 56.5489 88.1273 56.5489 88.37C56.5489 88.6033 56.6189 88.8367 56.7589 89.07C56.8989 89.294 57.1276 89.574 57.4449 89.91L59.9089 92.346C59.9276 92.3273 59.9416 92.3087 59.9509 92.29C59.9602 92.2713 59.9696 92.2527 59.9789 92.234L60.7769 90.904H62.8209L61.8409 92.626C61.6542 92.99 61.4536 93.3353 61.2389 93.662L63.6049 96H61.1969ZM56.8709 94.544C57.6362 94.544 58.3129 94.2733 58.9009 93.732L56.4929 91.352C55.5876 91.7533 55.1349 92.3227 55.1349 93.06C55.1349 93.48 55.2936 93.8347 55.6109 94.124C55.9282 94.404 56.3482 94.544 56.8709 94.544ZM69.8433 86.228V92.276C69.8433 92.9387 70.016 93.4473 70.3613 93.802C70.7066 94.1473 71.192 94.32 71.8173 94.32C72.452 94.32 72.942 94.1473 73.2873 93.802C73.6326 93.4473 73.8053 92.9387 73.8053 92.276V86.228H75.7793V92.262C75.7793 93.0927 75.5973 93.7973 75.2333 94.376C74.8786 94.9453 74.398 95.3747 73.7913 95.664C73.194 95.9533 72.5266 96.098 71.7893 96.098C71.0613 96.098 70.3986 95.9533 69.8013 95.664C69.2133 95.3747 68.7466 94.9453 68.4013 94.376C68.056 93.7973 67.8833 93.0927 67.8833 92.262V86.228H69.8433ZM79.633 89.364C79.885 89.0093 80.2304 88.7153 80.669 88.482C81.117 88.2393 81.6257 88.118 82.195 88.118C82.8577 88.118 83.455 88.2813 83.987 88.608C84.5284 88.9347 84.953 89.4013 85.261 90.008C85.5784 90.6053 85.737 91.3007 85.737 92.094C85.737 92.8873 85.5784 93.592 85.261 94.208C84.953 94.8147 84.5284 95.286 83.987 95.622C83.455 95.958 82.8577 96.126 82.195 96.126C81.6257 96.126 81.1217 96.0093 80.683 95.776C80.2537 95.5427 79.9037 95.2487 79.633 94.894V99.696H77.673V88.244H79.633V89.364ZM83.735 92.094C83.735 91.6273 83.637 91.226 83.441 90.89C83.2544 90.5447 83.0024 90.2833 82.685 90.106C82.377 89.9287 82.041 89.84 81.677 89.84C81.3224 89.84 80.9864 89.9333 80.669 90.12C80.361 90.2973 80.109 90.5587 79.913 90.904C79.7264 91.2493 79.633 91.6553 79.633 92.122C79.633 92.5887 79.7264 92.9947 79.913 93.34C80.109 93.6853 80.361 93.9513 80.669 94.138C80.9864 94.3153 81.3224 94.404 81.677 94.404C82.041 94.404 82.377 94.3107 82.685 94.124C83.0024 93.9373 83.2544 93.6713 83.441 93.326C83.637 92.9807 83.735 92.57 83.735 92.094ZM86.6573 92.094C86.6573 91.31 86.8113 90.6147 87.1193 90.008C87.4366 89.4013 87.866 88.9347 88.4073 88.608C88.9486 88.2813 89.5506 88.118 90.2133 88.118C90.7173 88.118 91.198 88.23 91.6553 88.454C92.1126 88.6687 92.4766 88.958 92.7473 89.322V85.64H94.7353V96H92.7473V94.852C92.5046 95.2347 92.164 95.5427 91.7253 95.776C91.2866 96.0093 90.778 96.126 90.1993 96.126C89.546 96.126 88.9486 95.958 88.4073 95.622C87.866 95.286 87.4366 94.8147 87.1193 94.208C86.8113 93.592 86.6573 92.8873 86.6573 92.094ZM92.7613 92.122C92.7613 91.646 92.668 91.24 92.4813 90.904C92.2946 90.5587 92.0426 90.2973 91.7253 90.12C91.408 89.9333 91.0673 89.84 90.7033 89.84C90.3393 89.84 90.0033 89.9287 89.6953 90.106C89.3873 90.2833 89.1353 90.5447 88.9393 90.89C88.7526 91.226 88.6593 91.6273 88.6593 92.094C88.6593 92.5607 88.7526 92.9713 88.9393 93.326C89.1353 93.6713 89.3873 93.9373 89.6953 94.124C90.0126 94.3107 90.3486 94.404 90.7033 94.404C91.0673 94.404 91.408 94.3153 91.7253 94.138C92.0426 93.9513 92.2946 93.69 92.4813 93.354C92.668 93.0087 92.7613 92.598 92.7613 92.122ZM96.1456 92.094C96.1456 91.31 96.2996 90.6147 96.6076 90.008C96.9249 89.4013 97.3496 88.9347 97.8816 88.608C98.4229 88.2813 99.0249 88.118 99.6876 88.118C100.266 88.118 100.77 88.2347 101.2 88.468C101.638 88.7013 101.988 88.9953 102.25 89.35V88.244H104.224V96H102.25V94.866C101.998 95.23 101.648 95.5333 101.2 95.776C100.761 96.0093 100.252 96.126 99.6736 96.126C99.0203 96.126 98.4229 95.958 97.8816 95.622C97.3496 95.286 96.9249 94.8147 96.6076 94.208C96.2996 93.592 96.1456 92.8873 96.1456 92.094ZM102.25 92.122C102.25 91.646 102.156 91.24 101.97 90.904C101.783 90.5587 101.531 90.2973 101.214 90.12C100.896 89.9333 100.556 89.84 100.192 89.84C99.8276 89.84 99.4916 89.9287 99.1836 90.106C98.8756 90.2833 98.6236 90.5447 98.4276 90.89C98.2409 91.226 98.1476 91.6273 98.1476 92.094C98.1476 92.5607 98.2409 92.9713 98.4276 93.326C98.6236 93.6713 98.8756 93.9373 99.1836 94.124C99.5009 94.3107 99.8369 94.404 100.192 94.404C100.556 94.404 100.896 94.3153 101.214 94.138C101.531 93.9513 101.783 93.69 101.97 93.354C102.156 93.0087 102.25 92.598 102.25 92.122ZM108.42 89.854V93.606C108.42 93.8673 108.481 94.0587 108.602 94.18C108.733 94.292 108.947 94.348 109.246 94.348H110.156V96H108.924C107.272 96 106.446 95.1973 106.446 93.592V89.854H105.522V88.244H106.446V86.326H108.42V88.244H110.156V89.854H108.42ZM118.776 91.954C118.776 92.234 118.757 92.486 118.72 92.71H113.05C113.096 93.27 113.292 93.7087 113.638 94.026C113.983 94.3433 114.408 94.502 114.912 94.502C115.64 94.502 116.158 94.1893 116.466 93.564H118.58C118.356 94.3107 117.926 94.9267 117.292 95.412C116.657 95.888 115.878 96.126 114.954 96.126C114.207 96.126 113.535 95.9627 112.938 95.636C112.35 95.3 111.888 94.8287 111.552 94.222C111.225 93.6153 111.062 92.9153 111.062 92.122C111.062 91.3193 111.225 90.6147 111.552 90.008C111.878 89.4013 112.336 88.9347 112.924 88.608C113.512 88.2813 114.188 88.118 114.954 88.118C115.691 88.118 116.349 88.2767 116.928 88.594C117.516 88.9113 117.968 89.364 118.286 89.952C118.612 90.5307 118.776 91.198 118.776 91.954ZM116.746 91.394C116.736 90.89 116.554 90.4887 116.2 90.19C115.845 89.882 115.411 89.728 114.898 89.728C114.412 89.728 114.002 89.8773 113.666 90.176C113.339 90.4653 113.138 90.8713 113.064 91.394H116.746Z" fill="white"/>
</svg>
