<svg width="53" height="52" viewBox="0 0 53 52" fill="none" xmlns="http://www.w3.org/2000/svg">
<path d="M41.9266 32.3691L42.62 33.7775C42.9666 34.4708 43.855 35.1208 44.5916 35.2508L45.5233 35.4025C48.3616 35.8791 49.0116 37.9591 46.9966 39.9958L46.13 40.8625C45.545 41.4475 45.2416 42.5741 45.415 43.3975L45.5233 43.9175C46.3033 47.3408 44.4833 48.6625 41.515 46.8641L40.8866 46.4741C40.1283 46.0191 38.8716 46.0191 38.1133 46.4741L37.485 46.8641C34.495 48.6625 32.6966 47.3408 33.4766 43.9175L33.585 43.3975C33.7583 42.5958 33.455 41.4475 32.87 40.8625L32.0033 39.9958C29.9883 37.9375 30.6383 35.8791 33.4766 35.4025L34.4083 35.2508C35.1666 35.1208 36.0333 34.4708 36.38 33.7775L37.0733 32.3691C38.4166 29.6608 40.5833 29.6608 41.9266 32.3691Z" fill="white"/>
<path d="M35.5783 4.33398H17.4216C9.53492 4.33398 4.83325 9.03565 4.83325 16.9223V35.079C4.83325 42.9657 9.53492 47.6673 17.4216 47.6673H28.8616C29.6199 47.6673 30.1616 46.8873 30.0749 46.129C29.9883 45.3057 30.0316 44.3307 30.2916 43.204C30.3349 43.0523 30.2916 42.879 30.1616 42.749L29.6849 42.2723C27.8433 40.409 27.1716 38.1557 27.8216 36.0973C28.4933 34.0607 30.3566 32.6307 32.9349 32.1973L33.5849 32.089L34.1699 30.919C35.3616 28.4923 37.3116 27.084 39.4999 27.084C41.6883 27.084 43.6383 28.4923 44.8299 30.919L45.1549 31.5907C45.3066 31.9157 45.6099 32.1323 45.9566 32.1973C46.1516 32.2407 46.3466 32.284 46.5416 32.3273C47.2999 32.5223 48.1666 31.9157 48.1666 31.114V16.9223C48.1666 9.03565 43.4649 4.33398 35.5783 4.33398ZM35.7299 19.414L30.7249 25.8707C30.0966 26.6723 29.2083 27.1923 28.1899 27.3007C27.1933 27.4307 26.1749 27.149 25.3949 26.5207L21.4299 23.444C21.2783 23.314 21.1049 23.314 21.0183 23.3357C20.9316 23.3357 20.7799 23.379 20.6499 23.5523L15.4933 30.2473C15.1683 30.659 14.6916 30.8757 14.1933 30.8757C13.8466 30.8757 13.4999 30.7673 13.1966 30.529C12.4816 29.9873 12.3516 28.969 12.8933 28.254L18.0499 21.559C18.6783 20.7573 19.5666 20.2373 20.5849 20.1073C21.6033 19.9773 22.5999 20.259 23.4016 20.8873L27.3666 24.0073C27.5183 24.1373 27.6699 24.1157 27.7783 24.1157C27.8649 24.1157 28.0166 24.0723 28.1466 23.899L33.1516 17.4423C33.6933 16.7273 34.7116 16.5973 35.4266 17.1607C36.1633 17.7023 36.2716 18.7207 35.7299 19.414Z" fill="white"/>
</svg>
