<svg width="24" height="20" viewBox="0 0 24 20" fill="none" xmlns="http://www.w3.org/2000/svg">
<path fill-rule="evenodd" clip-rule="evenodd" d="M1.172 1.8381C-1.19209e-07 3.00885 0 4.89564 0 8.66657V11.3334C0 15.1044 -1.19209e-07 16.9912 1.172 18.1619C2.34267 19.334 4.22933 19.334 8 19.334H16C19.7707 19.334 21.6573 19.334 22.828 18.1619C24 16.9912 24 15.1044 24 11.3334V8.66657C24 4.89564 24 3.00885 22.828 1.8381C21.6573 0.666016 19.7707 0.666016 16 0.666016H8C4.22933 0.666016 2.34267 0.666016 1.172 1.8381ZM4.74 4.89031C4.44579 4.69404 4.08566 4.62269 3.73884 4.69195C3.39202 4.76122 3.08693 4.96544 2.89067 5.25967C2.69441 5.5539 2.62306 5.91406 2.69232 6.2609C2.76159 6.60774 2.96579 6.91286 3.26 7.10913L10.5213 11.9495C10.9593 12.2413 11.4738 12.397 12 12.397C12.5262 12.397 13.0407 12.2413 13.4787 11.9495L20.74 7.10913C21.0342 6.91286 21.2384 6.60774 21.3077 6.2609C21.3769 5.91406 21.3056 5.5539 21.1093 5.25967C20.9131 4.96544 20.608 4.76122 20.2612 4.69195C19.9143 4.62269 19.5542 4.69404 19.26 4.89031L12 9.73065L4.74 4.89031Z" fill="#9C9C9C"/>
</svg>
