<svg width="20" height="20" viewBox="0 0 20 20" fill="none" xmlns="http://www.w3.org/2000/svg">
<circle cx="10" cy="10" r="10" fill="#FF5C5C"/>
<path d="M12.43 7.92H9.19V9.63C9.33 9.45667 9.53 9.31667 9.79 9.21C10.05 9.09667 10.3267 9.04 10.62 9.04C11.1533 9.04 11.59 9.15667 11.93 9.39C12.27 9.62333 12.5167 9.92333 12.67 10.29C12.8233 10.65 12.9 11.0367 12.9 11.45C12.9 12.2167 12.68 12.8333 12.24 13.3C11.8067 13.7667 11.1867 14 10.38 14C9.62 14 9.01333 13.81 8.56 13.43C8.10667 13.05 7.85 12.5533 7.79 11.94H9.15C9.21 12.2067 9.34333 12.42 9.55 12.58C9.76333 12.74 10.0333 12.82 10.36 12.82C10.7533 12.82 11.05 12.6967 11.25 12.45C11.45 12.2033 11.55 11.8767 11.55 11.47C11.55 11.0567 11.4467 10.7433 11.24 10.53C11.04 10.31 10.7433 10.2 10.35 10.2C10.07 10.2 9.83667 10.27 9.65 10.41C9.46333 10.55 9.33 10.7367 9.25 10.97H7.91V6.69H12.43V7.92Z" fill="white"/>
</svg>
