<svg width="131" height="114" viewBox="0 0 131 114" fill="none" xmlns="http://www.w3.org/2000/svg">
<rect width="131" height="114" rx="12" fill="#738DE0"/>
<path d="M75.345 24.2878L78.4 30.3978C78.8117 31.2428 79.9167 32.0445 80.8484 32.2178L86.3734 33.1278C89.905 33.7128 90.7284 36.2695 88.1934 38.8261L83.8817 43.1378C83.1667 43.8528 82.755 45.2611 82.9934 46.2795L84.2284 51.6095C85.2034 55.8128 82.95 57.4595 79.245 55.2495L74.0667 52.1728C73.135 51.6095 71.575 51.6095 70.6434 52.1728L65.465 55.2495C61.76 57.4378 59.5067 55.8128 60.4817 51.6095L61.7167 46.2795C61.9117 45.2395 61.5 43.8311 60.785 43.1161L56.4734 38.8045C53.9384 36.2695 54.7617 33.7128 58.2934 33.1061L63.8184 32.1961C64.75 32.0445 65.855 31.2211 66.2667 30.3761L69.3217 24.2661C70.99 20.9728 73.6767 20.9728 75.345 24.2878Z" fill="white"/>
<path d="M59.3334 25.459H46.3334C45.445 25.459 44.7084 24.7223 44.7084 23.834C44.7084 22.9457 45.445 22.209 46.3334 22.209H59.3334C60.2217 22.209 60.9584 22.9457 60.9584 23.834C60.9584 24.7223 60.2217 25.459 59.3334 25.459Z" fill="white"/>
<path d="M52.8334 55.791H46.3334C45.445 55.791 44.7084 55.0543 44.7084 54.166C44.7084 53.2777 45.445 52.541 46.3334 52.541H52.8334C53.7217 52.541 54.4584 53.2777 54.4584 54.166C54.4584 55.0543 53.7217 55.791 52.8334 55.791Z" fill="white"/>
<path d="M48.5 40.625H46.3334C45.445 40.625 44.7084 39.8883 44.7084 39C44.7084 38.1117 45.445 37.375 46.3334 37.375H48.5C49.3884 37.375 50.125 38.1117 50.125 39C50.125 39.8883 49.3884 40.625 48.5 40.625Z" fill="white"/>
<path d="M44.77 89.168C44.546 88.7573 44.238 88.4447 43.846 88.23C43.454 88.0153 42.9967 87.908 42.474 87.908C41.8953 87.908 41.382 88.0387 40.934 88.3C40.486 88.5613 40.136 88.9347 39.884 89.42C39.632 89.9053 39.506 90.4653 39.506 91.1C39.506 91.7533 39.632 92.3227 39.884 92.808C40.1453 93.2933 40.5047 93.6667 40.962 93.928C41.4193 94.1893 41.9513 94.32 42.558 94.32C43.3047 94.32 43.916 94.124 44.392 93.732C44.868 93.3307 45.1807 92.7753 45.33 92.066H41.97V90.568H47.262V92.276C47.1313 92.9573 46.8513 93.5873 46.422 94.166C45.9927 94.7447 45.4373 95.2113 44.756 95.566C44.084 95.9113 43.328 96.084 42.488 96.084C41.5453 96.084 40.6913 95.874 39.926 95.454C39.17 95.0247 38.5727 94.432 38.134 93.676C37.7047 92.92 37.49 92.0613 37.49 91.1C37.49 90.1387 37.7047 89.28 38.134 88.524C38.5727 87.7587 39.17 87.166 39.926 86.746C40.6913 86.3167 41.5407 86.102 42.474 86.102C43.5753 86.102 44.532 86.3727 45.344 86.914C46.156 87.446 46.716 88.1973 47.024 89.168H44.77ZM55.9221 91.954C55.9221 92.234 55.9034 92.486 55.8661 92.71H50.1961C50.2428 93.27 50.4388 93.7087 50.7841 94.026C51.1294 94.3433 51.5541 94.502 52.0581 94.502C52.7861 94.502 53.3041 94.1893 53.6121 93.564H55.7261C55.5021 94.3107 55.0728 94.9267 54.4381 95.412C53.8034 95.888 53.0241 96.126 52.1001 96.126C51.3534 96.126 50.6814 95.9627 50.0841 95.636C49.4961 95.3 49.0341 94.8287 48.6981 94.222C48.3714 93.6153 48.2081 92.9153 48.2081 92.122C48.2081 91.3193 48.3714 90.6147 48.6981 90.008C49.0248 89.4013 49.4821 88.9347 50.0701 88.608C50.6581 88.2813 51.3348 88.118 52.1001 88.118C52.8374 88.118 53.4954 88.2767 54.0741 88.594C54.6621 88.9113 55.1148 89.364 55.4321 89.952C55.7588 90.5307 55.9221 91.198 55.9221 91.954ZM53.8921 91.394C53.8828 90.89 53.7008 90.4887 53.3461 90.19C52.9914 89.882 52.5574 89.728 52.0441 89.728C51.5588 89.728 51.1481 89.8773 50.8121 90.176C50.4854 90.4653 50.2848 90.8713 50.2101 91.394H53.8921ZM61.6507 88.132C62.5747 88.132 63.3214 88.426 63.8907 89.014C64.4601 89.5927 64.7447 90.4047 64.7447 91.45V96H62.7847V91.716C62.7847 91.1 62.6307 90.6287 62.3227 90.302C62.0147 89.966 61.5947 89.798 61.0627 89.798C60.5214 89.798 60.0921 89.966 59.7747 90.302C59.4667 90.6287 59.3127 91.1 59.3127 91.716V96H57.3527V88.244H59.3127V89.21C59.5741 88.874 59.9054 88.6127 60.3067 88.426C60.7174 88.23 61.1654 88.132 61.6507 88.132ZM73.8186 91.954C73.8186 92.234 73.7999 92.486 73.7626 92.71H68.0926C68.1392 93.27 68.3352 93.7087 68.6806 94.026C69.0259 94.3433 69.4506 94.502 69.9546 94.502C70.6826 94.502 71.2006 94.1893 71.5086 93.564H73.6226C73.3986 94.3107 72.9692 94.9267 72.3346 95.412C71.6999 95.888 70.9206 96.126 69.9966 96.126C69.2499 96.126 68.5779 95.9627 67.9806 95.636C67.3926 95.3 66.9306 94.8287 66.5946 94.222C66.2679 93.6153 66.1046 92.9153 66.1046 92.122C66.1046 91.3193 66.2679 90.6147 66.5946 90.008C66.9212 89.4013 67.3786 88.9347 67.9666 88.608C68.5546 88.2813 69.2312 88.118 69.9966 88.118C70.7339 88.118 71.3919 88.2767 71.9706 88.594C72.5586 88.9113 73.0112 89.364 73.3286 89.952C73.6552 90.5307 73.8186 91.198 73.8186 91.954ZM71.7886 91.394C71.7792 90.89 71.5972 90.4887 71.2426 90.19C70.8879 89.882 70.4539 89.728 69.9406 89.728C69.4552 89.728 69.0446 89.8773 68.7086 90.176C68.3819 90.4653 68.1812 90.8713 68.1066 91.394H71.7886ZM77.2092 89.448C77.4612 89.0373 77.7879 88.7153 78.1892 88.482C78.5999 88.2487 79.0665 88.132 79.5892 88.132V90.19H79.0712C78.4552 90.19 77.9885 90.3347 77.6712 90.624C77.3632 90.9133 77.2092 91.4173 77.2092 92.136V96H75.2492V88.244H77.2092V89.448ZM80.4054 92.094C80.4054 91.31 80.5594 90.6147 80.8674 90.008C81.1847 89.4013 81.6094 88.9347 82.1414 88.608C82.6827 88.2813 83.2847 88.118 83.9474 88.118C84.526 88.118 85.03 88.2347 85.4594 88.468C85.898 88.7013 86.248 88.9953 86.5094 89.35V88.244H88.4834V96H86.5094V94.866C86.2574 95.23 85.9074 95.5333 85.4594 95.776C85.0207 96.0093 84.512 96.126 83.9334 96.126C83.28 96.126 82.6827 95.958 82.1414 95.622C81.6094 95.286 81.1847 94.8147 80.8674 94.208C80.5594 93.592 80.4054 92.8873 80.4054 92.094ZM86.5094 92.122C86.5094 91.646 86.416 91.24 86.2294 90.904C86.0427 90.5587 85.7907 90.2973 85.4734 90.12C85.156 89.9333 84.8154 89.84 84.4514 89.84C84.0874 89.84 83.7514 89.9287 83.4434 90.106C83.1354 90.2833 82.8834 90.5447 82.6874 90.89C82.5007 91.226 82.4074 91.6273 82.4074 92.094C82.4074 92.5607 82.5007 92.9713 82.6874 93.326C82.8834 93.6713 83.1354 93.9373 83.4434 94.124C83.7607 94.3107 84.0967 94.404 84.4514 94.404C84.8154 94.404 85.156 94.3153 85.4734 94.138C85.7907 93.9513 86.0427 93.69 86.2294 93.354C86.416 93.0087 86.5094 92.598 86.5094 92.122ZM92.3576 85.64V96H90.3976V85.64H92.3576Z" fill="white"/>
</svg>
