<svg width="52" height="52" viewBox="0 0 52 52" fill="none" xmlns="http://www.w3.org/2000/svg">
<path d="M33.345 11.2878L36.4 17.3978C36.8117 18.2428 37.9167 19.0445 38.8484 19.2178L44.3734 20.1278C47.905 20.7128 48.7284 23.2695 46.1934 25.8261L41.8817 30.1378C41.1667 30.8528 40.755 32.2611 40.9934 33.2795L42.2284 38.6095C43.2034 42.8128 40.95 44.4595 37.245 42.2495L32.0667 39.1728C31.135 38.6095 29.575 38.6095 28.6434 39.1728L23.465 42.2495C19.76 44.4378 17.5067 42.8128 18.4817 38.6095L19.7167 33.2795C19.9117 32.2395 19.5 30.8311 18.785 30.1161L14.4734 25.8045C11.9384 23.2695 12.7617 20.7128 16.2934 20.1061L21.8184 19.1961C22.75 19.0445 23.855 18.2211 24.2667 17.3761L27.3217 11.2661C28.99 7.97279 31.6767 7.97279 33.345 11.2878Z" fill="white"/>
<path d="M17.3334 12.459H4.33337C3.44504 12.459 2.70837 11.7223 2.70837 10.834C2.70837 9.94565 3.44504 9.20898 4.33337 9.20898H17.3334C18.2217 9.20898 18.9584 9.94565 18.9584 10.834C18.9584 11.7223 18.2217 12.459 17.3334 12.459Z" fill="white"/>
<path d="M10.8334 42.791H4.33337C3.44504 42.791 2.70837 42.0543 2.70837 41.166C2.70837 40.2777 3.44504 39.541 4.33337 39.541H10.8334C11.7217 39.541 12.4584 40.2777 12.4584 41.166C12.4584 42.0543 11.7217 42.791 10.8334 42.791Z" fill="white"/>
<path d="M6.50004 27.625H4.33337C3.44504 27.625 2.70837 26.8883 2.70837 26C2.70837 25.1117 3.44504 24.375 4.33337 24.375H6.50004C7.38837 24.375 8.12504 25.1117 8.12504 26C8.12504 26.8883 7.38837 27.625 6.50004 27.625Z" fill="white"/>
</svg>
