<svg width="131" height="114" viewBox="0 0 131 114" fill="none" xmlns="http://www.w3.org/2000/svg">
<rect width="131" height="114" rx="12" fill="#5AC751"/>
<path d="M65.37 17.7876L60.1483 29.9426H54.9267C54.06 29.9426 53.215 30.0076 52.3917 30.181L54.5583 24.981L54.645 24.786L54.775 24.4393C54.84 24.2876 54.8833 24.1576 54.9483 24.0493C57.4617 18.221 60.2783 16.401 65.37 17.7876Z" fill="white"/>
<path d="M80.0817 30.5293L80.0383 30.5076C78.7383 30.1393 77.4167 29.9443 76.0733 29.9443H62.51L67.385 18.6126L67.45 18.4609C67.7533 18.5693 68.0783 18.7209 68.4033 18.8293L73.1917 20.8443C75.8567 21.9493 77.72 23.0976 78.8683 24.4843C79.0633 24.7443 79.2367 24.9826 79.41 25.2643C79.605 25.5676 79.7567 25.8709 79.8433 26.1959C79.93 26.3909 79.995 26.5643 80.0383 26.7593C80.3633 27.8643 80.385 29.1209 80.0817 30.5293Z" fill="white"/>
<path d="M66.6267 51.2625H67.1683C67.8183 51.2625 68.36 50.6775 68.36 49.9625C68.36 49.0525 68.1 48.9225 67.5367 48.7059L66.6267 48.3809V51.2625Z" fill="white"/>
<path d="M79.1283 33.6267C78.1533 33.345 77.135 33.1934 76.0733 33.1934H54.9267C53.4533 33.1934 52.0667 33.475 50.7667 34.0384C46.9967 35.6634 44.3533 39.4117 44.3533 43.7667V47.9917C44.3533 48.5117 44.3967 49.01 44.4617 49.53C44.9383 56.42 48.6217 60.1034 55.5117 60.5584C56.01 60.6234 56.5083 60.6667 57.05 60.6667H73.95C81.9667 60.6667 86.1917 56.8534 86.6033 49.27C86.625 48.8584 86.6467 48.425 86.6467 47.9917V43.7667C86.6467 38.9784 83.4617 34.9484 79.1283 33.6267ZM68.2733 46.5834C69.27 46.93 70.6133 47.6667 70.6133 49.9634C70.6133 51.935 69.075 53.5167 67.1683 53.5167H66.6267V53.9934C66.6267 54.6217 66.1283 55.12 65.5 55.12C64.8717 55.12 64.3733 54.6217 64.3733 53.9934V53.5167H64.1783C62.0983 53.5167 60.3867 51.7617 60.3867 49.595C60.3867 48.9667 60.885 48.4684 61.5133 48.4684C62.1417 48.4684 62.64 48.9667 62.64 49.595C62.64 50.505 63.3333 51.2634 64.1783 51.2634H64.3733V47.6017L62.7267 47.0167C61.73 46.67 60.3867 45.9334 60.3867 43.6367C60.3867 41.665 61.925 40.0834 63.8317 40.0834H64.3733V39.6067C64.3733 38.9784 64.8717 38.48 65.5 38.48C66.1283 38.48 66.6267 38.9784 66.6267 39.6067V40.0834H66.8217C68.9017 40.0834 70.6133 41.8384 70.6133 44.005C70.6133 44.6334 70.115 45.1317 69.4867 45.1317C68.8583 45.1317 68.36 44.6334 68.36 44.005C68.36 43.095 67.6667 42.3367 66.8217 42.3367H66.6267V45.9984L68.2733 46.5834Z" fill="white"/>
<path d="M62.64 43.6359C62.64 44.5459 62.9 44.6759 63.4633 44.8926L64.3733 45.2176V42.3359H63.8317C63.16 42.3359 62.64 42.9209 62.64 43.6359Z" fill="white"/>
<path d="M37.092 89.252C37.092 89.7747 36.966 90.2647 36.714 90.722C36.4713 91.1793 36.084 91.548 35.552 91.828C35.0293 92.108 34.3667 92.248 33.564 92.248H31.926V96H29.966V86.228H33.564C34.32 86.228 34.964 86.3587 35.496 86.62C36.028 86.8813 36.4247 87.2407 36.686 87.698C36.9567 88.1553 37.092 88.6733 37.092 89.252ZM33.48 90.666C34.0213 90.666 34.4227 90.5447 34.684 90.302C34.9453 90.05 35.076 89.7 35.076 89.252C35.076 88.3 34.544 87.824 33.48 87.824H31.926V90.666H33.48ZM37.9796 92.094C37.9796 91.31 38.1336 90.6147 38.4416 90.008C38.7589 89.4013 39.1836 88.9347 39.7156 88.608C40.2569 88.2813 40.8589 88.118 41.5216 88.118C42.1002 88.118 42.6042 88.2347 43.0336 88.468C43.4722 88.7013 43.8222 88.9953 44.0836 89.35V88.244H46.0576V96H44.0836V94.866C43.8316 95.23 43.4816 95.5333 43.0336 95.776C42.5949 96.0093 42.0862 96.126 41.5076 96.126C40.8542 96.126 40.2569 95.958 39.7156 95.622C39.1836 95.286 38.7589 94.8147 38.4416 94.208C38.1336 93.592 37.9796 92.8873 37.9796 92.094ZM44.0836 92.122C44.0836 91.646 43.9902 91.24 43.8036 90.904C43.6169 90.5587 43.3649 90.2973 43.0476 90.12C42.7302 89.9333 42.3896 89.84 42.0256 89.84C41.6616 89.84 41.3256 89.9287 41.0176 90.106C40.7096 90.2833 40.4576 90.5447 40.2616 90.89C40.0749 91.226 39.9816 91.6273 39.9816 92.094C39.9816 92.5607 40.0749 92.9713 40.2616 93.326C40.4576 93.6713 40.7096 93.9373 41.0176 94.124C41.3349 94.3107 41.6709 94.404 42.0256 94.404C42.3896 94.404 42.7302 94.3153 43.0476 94.138C43.3649 93.9513 43.6169 93.69 43.8036 93.354C43.9902 93.0087 44.0836 92.598 44.0836 92.122ZM55.3919 88.244L50.5899 99.668H48.5039L50.1839 95.804L47.0759 88.244H49.2739L51.2759 93.662L53.3059 88.244H55.3919ZM66.0804 88.132C67.0324 88.132 67.7978 88.426 68.3764 89.014C68.9644 89.5927 69.2584 90.4047 69.2584 91.45V96H67.2984V91.716C67.2984 91.1093 67.1444 90.6473 66.8364 90.33C66.5284 90.0033 66.1084 89.84 65.5764 89.84C65.0444 89.84 64.6198 90.0033 64.3024 90.33C63.9944 90.6473 63.8404 91.1093 63.8404 91.716V96H61.8804V91.716C61.8804 91.1093 61.7264 90.6473 61.4184 90.33C61.1104 90.0033 60.6904 89.84 60.1584 89.84C59.6171 89.84 59.1878 90.0033 58.8704 90.33C58.5624 90.6473 58.4084 91.1093 58.4084 91.716V96H56.4484V88.244H58.4084V89.182C58.6604 88.8553 58.9824 88.5987 59.3744 88.412C59.7758 88.2253 60.2144 88.132 60.6904 88.132C61.2971 88.132 61.8384 88.2627 62.3144 88.524C62.7904 88.776 63.1591 89.14 63.4204 89.616C63.6724 89.168 64.0364 88.8087 64.5124 88.538C64.9978 88.2673 65.5204 88.132 66.0804 88.132ZM78.3283 91.954C78.3283 92.234 78.3097 92.486 78.2723 92.71H72.6023C72.649 93.27 72.845 93.7087 73.1903 94.026C73.5357 94.3433 73.9603 94.502 74.4643 94.502C75.1923 94.502 75.7103 94.1893 76.0183 93.564H78.1323C77.9083 94.3107 77.479 94.9267 76.8443 95.412C76.2097 95.888 75.4303 96.126 74.5063 96.126C73.7597 96.126 73.0877 95.9627 72.4903 95.636C71.9023 95.3 71.4403 94.8287 71.1043 94.222C70.7777 93.6153 70.6143 92.9153 70.6143 92.122C70.6143 91.3193 70.7777 90.6147 71.1043 90.008C71.431 89.4013 71.8883 88.9347 72.4763 88.608C73.0643 88.2813 73.741 88.118 74.5063 88.118C75.2437 88.118 75.9017 88.2767 76.4803 88.594C77.0683 88.9113 77.521 89.364 77.8383 89.952C78.165 90.5307 78.3283 91.198 78.3283 91.954ZM76.2983 91.394C76.289 90.89 76.107 90.4887 75.7523 90.19C75.3977 89.882 74.9637 89.728 74.4503 89.728C73.965 89.728 73.5543 89.8773 73.2183 90.176C72.8917 90.4653 72.691 90.8713 72.6163 91.394H76.2983ZM84.057 88.132C84.981 88.132 85.7276 88.426 86.297 89.014C86.8663 89.5927 87.151 90.4047 87.151 91.45V96H85.191V91.716C85.191 91.1 85.037 90.6287 84.729 90.302C84.421 89.966 84.001 89.798 83.469 89.798C82.9276 89.798 82.4983 89.966 82.181 90.302C81.873 90.6287 81.719 91.1 81.719 91.716V96H79.759V88.244H81.719V89.21C81.9803 88.874 82.3116 88.6127 82.713 88.426C83.1236 88.23 83.5716 88.132 84.057 88.132ZM91.2968 89.854V93.606C91.2968 93.8673 91.3575 94.0587 91.4788 94.18C91.6095 94.292 91.8242 94.348 92.1228 94.348H93.0328V96H91.8008C90.1488 96 89.3228 95.1973 89.3228 93.592V89.854H88.3988V88.244H89.3228V86.326H91.2968V88.244H93.0328V89.854H91.2968ZM97.4106 96.126C96.7759 96.126 96.2066 96.014 95.7026 95.79C95.1986 95.5567 94.7972 95.244 94.4986 94.852C94.2092 94.46 94.0506 94.026 94.0226 93.55H95.9966C96.0339 93.8487 96.1786 94.096 96.4306 94.292C96.6919 94.488 97.0139 94.586 97.3966 94.586C97.7699 94.586 98.0592 94.5113 98.2646 94.362C98.4792 94.2127 98.5866 94.0213 98.5866 93.788C98.5866 93.536 98.4559 93.3493 98.1946 93.228C97.9426 93.0973 97.5366 92.9573 96.9766 92.808C96.3979 92.668 95.9219 92.5233 95.5486 92.374C95.1846 92.2247 94.8672 91.996 94.5966 91.688C94.3352 91.38 94.2046 90.9647 94.2046 90.442C94.2046 90.0127 94.3259 89.6207 94.5686 89.266C94.8206 88.9113 95.1752 88.6313 95.6326 88.426C96.0992 88.2207 96.6452 88.118 97.2706 88.118C98.1946 88.118 98.9319 88.3513 99.4826 88.818C100.033 89.2753 100.337 89.896 100.393 90.68H98.5166C98.4886 90.372 98.3579 90.1293 98.1246 89.952C97.9006 89.7653 97.5972 89.672 97.2146 89.672C96.8599 89.672 96.5846 89.7373 96.3886 89.868C96.2019 89.9987 96.1086 90.1807 96.1086 90.414C96.1086 90.6753 96.2392 90.876 96.5006 91.016C96.7619 91.1467 97.1679 91.282 97.7186 91.422C98.2786 91.562 98.7406 91.7067 99.1046 91.856C99.4686 92.0053 99.7812 92.2387 100.043 92.556C100.313 92.864 100.453 93.2747 100.463 93.788C100.463 94.236 100.337 94.6373 100.085 94.992C99.8419 95.3467 99.4872 95.6267 99.0206 95.832C98.5632 96.028 98.0266 96.126 97.4106 96.126Z" fill="white"/>
</svg>
