<svg width="53" height="52" viewBox="0 0 53 52" fill="none" xmlns="http://www.w3.org/2000/svg">
<path d="M26.3701 4.78764L21.1484 16.9426H15.9267C15.0601 16.9426 14.2151 17.0076 13.3917 17.181L15.5584 11.981L15.6451 11.786L15.7751 11.4393C15.8401 11.2876 15.8834 11.1576 15.9484 11.0493C18.4617 5.22097 21.2784 3.40097 26.3701 4.78764Z" fill="white"/>
<path d="M41.0817 17.5293L41.0383 17.5076C39.7383 17.1393 38.4167 16.9443 37.0733 16.9443H23.51L28.385 5.6126L28.45 5.46094C28.7533 5.56927 29.0783 5.72094 29.4033 5.82927L34.1917 7.84427C36.8567 8.94927 38.72 10.0976 39.8683 11.4843C40.0633 11.7443 40.2367 11.9826 40.41 12.2643C40.605 12.5676 40.7567 12.8709 40.8433 13.1959C40.93 13.3909 40.995 13.5643 41.0383 13.7593C41.3633 14.8643 41.385 16.1209 41.0817 17.5293Z" fill="white"/>
<path d="M27.6267 38.2625H28.1684C28.8184 38.2625 29.36 37.6775 29.36 36.9625C29.36 36.0525 29.1 35.9225 28.5367 35.7059L27.6267 35.3809V38.2625Z" fill="white"/>
<path d="M40.1284 20.6267C39.1534 20.345 38.1351 20.1934 37.0734 20.1934H15.9267C14.4534 20.1934 13.0667 20.475 11.7667 21.0384C7.99673 22.6634 5.35339 26.4117 5.35339 30.7667V34.9917C5.35339 35.5117 5.39673 36.01 5.46173 36.53C5.93839 43.42 9.62173 47.1034 16.5117 47.5584C17.0101 47.6234 17.5084 47.6667 18.0501 47.6667H34.9501C42.9667 47.6667 47.1917 43.8534 47.6034 36.27C47.6251 35.8584 47.6467 35.425 47.6467 34.9917V30.7667C47.6467 25.9784 44.4617 21.9484 40.1284 20.6267ZM29.2734 33.5834C30.2701 33.93 31.6134 34.6667 31.6134 36.9634C31.6134 38.935 30.0751 40.5167 28.1684 40.5167H27.6267V40.9934C27.6267 41.6217 27.1284 42.12 26.5001 42.12C25.8717 42.12 25.3734 41.6217 25.3734 40.9934V40.5167H25.1784C23.0984 40.5167 21.3867 38.7617 21.3867 36.595C21.3867 35.9667 21.8851 35.4684 22.5134 35.4684C23.1417 35.4684 23.6401 35.9667 23.6401 36.595C23.6401 37.505 24.3334 38.2634 25.1784 38.2634H25.3734V34.6017L23.7267 34.0167C22.7301 33.67 21.3867 32.9334 21.3867 30.6367C21.3867 28.665 22.9251 27.0834 24.8317 27.0834H25.3734V26.6067C25.3734 25.9784 25.8717 25.48 26.5001 25.48C27.1284 25.48 27.6267 25.9784 27.6267 26.6067V27.0834H27.8217C29.9017 27.0834 31.6134 28.8384 31.6134 31.005C31.6134 31.6334 31.1151 32.1317 30.4867 32.1317C29.8584 32.1317 29.3601 31.6334 29.3601 31.005C29.3601 30.095 28.6667 29.3367 27.8217 29.3367H27.6267V32.9984L29.2734 33.5834Z" fill="white"/>
<path d="M23.64 30.6359C23.64 31.5459 23.9 31.6759 24.4633 31.8926L25.3733 32.2176V29.3359H24.8317C24.16 29.3359 23.64 29.9209 23.64 30.6359Z" fill="white"/>
</svg>
