<svg width="12" height="12" viewBox="0 0 12 12" fill="none" xmlns="http://www.w3.org/2000/svg">
<g clip-path="url(#clip0_10386_116581)">
<path d="M5.67773 11.5195C8.68185 11.5195 11.1172 9.08419 11.1172 6.08007C11.1172 3.07595 8.68185 0.640625 5.67773 0.640625C2.6736 0.640625 0.238281 3.07595 0.238281 6.08007C0.238281 9.08419 2.6736 11.5195 5.67773 11.5195Z" fill="#F0F0F0"/>
<path d="M0.238281 6.08059C0.238281 8.41938 1.71441 10.4131 3.78576 11.1817V0.979492C1.71441 1.74803 0.238281 3.74184 0.238281 6.08059Z" fill="#6DA544"/>
<path d="M11.1178 6.08059C11.1178 3.74184 9.64166 1.74803 7.57031 0.979492V11.1817C9.64166 10.4131 11.1178 8.41938 11.1178 6.08059Z" fill="#6DA544"/>
</g>
<defs>
<clipPath id="clip0_10386_116581">
<rect width="10.8789" height="10.8789" fill="white" transform="translate(0.238281 0.640625)"/>
</clipPath>
</defs>
</svg>
