<svg width="9" height="9" viewBox="0 0 9 9" fill="none" xmlns="http://www.w3.org/2000/svg">
<path d="M6.76146 1.18555V1.69549C6.98583 1.69549 7.20001 1.78729 7.35639 1.94027C7.51958 2.10685 7.60797 2.32103 7.60797 2.54541V3.36812C7.60797 3.6197 7.49578 3.73529 7.24081 3.73529H6.58807V1.86888C6.58807 1.77369 6.66626 1.69549 6.76146 1.69549V1.18555ZM6.76146 1.18555C6.38409 1.18555 6.07812 1.49152 6.07812 1.86888V4.24523H7.24081C7.77795 4.24523 8.11792 3.90527 8.11792 3.36812V2.54541C8.11792 2.17145 7.96493 1.83148 7.72016 1.58331C7.47198 1.33853 7.13542 1.18895 6.76146 1.18555C6.76485 1.18555 6.76146 1.18555 6.76146 1.18555Z" fill="white"/>
<path d="M3.02014 1.18555H2.68017C1.66028 1.18555 1.32031 1.79408 1.32031 2.54541V2.88537V7.64489C1.32031 7.92706 1.63988 8.08684 1.86426 7.91686L2.4456 7.4817C2.58158 7.37971 2.77196 7.39331 2.89435 7.5157L3.45869 8.08344C3.59128 8.21603 3.80886 8.21603 3.94144 8.08344L4.51259 7.5123C4.63157 7.39331 4.82195 7.37971 4.95454 7.4817L5.53588 7.91686C5.76026 8.08344 6.07983 7.92366 6.07983 7.64489V1.86548C6.07983 1.49152 6.3858 1.18555 6.75976 1.18555H3.02014ZM4.63497 4.16024H3.95504V4.84017C3.95504 4.97956 3.83946 5.09515 3.70007 5.09515C3.56068 5.09515 3.4451 4.97956 3.4451 4.84017V4.16024H2.76516C2.62578 4.16024 2.51019 4.04465 2.51019 3.90527C2.51019 3.76588 2.62578 3.6503 2.76516 3.6503H3.4451V2.97036C3.4451 2.83098 3.56068 2.71539 3.70007 2.71539C3.83946 2.71539 3.95504 2.83098 3.95504 2.97036V3.6503H4.63497C4.77436 3.6503 4.88995 3.76588 4.88995 3.90527C4.88995 4.04465 4.77436 4.16024 4.63497 4.16024Z" fill="white"/>
</svg>
